<?xml version="1.0" encoding="UTF-8"?> <svg xmlns="http://www.w3.org/2000/svg" xmlns:xlink="http://www.w3.org/1999/xlink" width="133px" height="46px" viewBox="0 0 133 46" version="1.1"><title>SustainableWebDesign</title><g id="✨-Design-1440px" stroke="none" stroke-width="1" fill="none" fill-rule="evenodd"><g id="SWD-1440px-Strategies" transform="translate(-50.000000, -17.000000)" fill="#000000" fill-rule="nonzero"><path d="M57.7134146,34.8343496 C62.4115854,34.8343496 63.6971545,32.2865854 63.6971545,30.0894309 C63.6971545,24.3394309 55.0487805,26.3729675 55.0487805,23.8719512 C55.0487805,23.1006098 55.4928862,22.4461382 57.245935,22.4461382 C59.3495935,22.4461382 59.7235772,23.4745935 59.7936992,24.7367886 L63.5335366,24.7367886 C63.4634146,21.6981707 62.1310976,19.4542683 57.3628049,19.4542683 C52.6646341,19.4542683 51.2855691,21.6280488 51.2855691,24.245935 C51.2855691,29.4817073 60.027439,27.4014228 60.027439,30.2997967 C60.027439,31.0477642 59.5599593,31.8424797 57.6199187,31.8424797 C55.4461382,31.8424797 54.8617886,30.8373984 54.7916667,29.3180894 L51.0284553,29.3180894 C51.0284553,32.8943089 52.7581301,34.8343496 57.7134146,34.8343496 Z M70.8113452,34.8343496 C73.1487435,34.8343496 74.3641907,33.9928862 75.0186622,33.0579268 L75.8601256,34.6239837 L77.5196785,34.6239837 L77.5196785,22.703252 L73.849963,22.703252 L73.849963,29.4583333 C73.849963,31.0945122 73.4292313,31.8424797 71.7696785,31.8424797 C70.1101256,31.8424797 69.7828899,31.1646341 69.7828899,29.5518293 L69.7828899,22.703252 L66.1365484,22.703252 L66.1365484,29.4349593 C66.1365484,32.6138211 66.8611419,34.8343496 70.8113452,34.8343496 Z M85.6389505,34.8343496 C89.5424058,34.8343496 91.1084627,32.847561 91.1084627,31.0243902 C91.1084627,26.5365854 83.511918,27.9390244 83.511918,26.1158537 C83.511918,25.4613821 83.9326497,25.0640244 85.3350887,25.0640244 C86.8310237,25.0640244 87.3218773,25.7418699 87.3218773,26.7936992 L90.687731,26.7936992 C90.687731,23.9654472 89.4021619,22.4928862 85.3350887,22.4928862 C81.4082594,22.4928862 79.8422025,24.199187 79.8422025,26.3262195 C79.8422025,30.5335366 87.4854952,29.2245935 87.4854952,31.0711382 C87.4854952,31.6788618 86.9712676,32.1930894 85.5220806,32.1930894 C83.6989098,32.1930894 83.1846822,31.445122 83.1846822,30.3231707 L79.6552106,30.3231707 C79.6552106,33.5955285 81.4550074,34.8343496 85.6389505,34.8343496 Z M100.887288,34.7174797 L100.887288,31.7723577 C98.1525314,32.0528455 97.9421656,31.304878 97.9421656,30.3932927 L97.9421656,25.625 L100.887288,25.625 L100.887288,22.703252 L97.8486696,22.703252 L97.8486696,19.6646341 L94.2257021,19.6646341 L94.2257021,22.703252 L92.3557834,23.6382114 L92.3557834,25.625 L94.2257021,25.625 L94.2257021,30.7672764 C94.2257021,34.0162602 95.5112712,35.0680894 100.887288,34.7174797 Z M107.066519,34.8343496 C109.193551,34.8343496 110.47912,34.1097561 111.29721,32.754065 L112.162047,34.6239837 L113.798226,34.6239837 L113.798226,27.8689024 C113.798226,24.7835366 113.050259,22.4928862 107.95473,22.4928862 C103.607169,22.4928862 102.578714,24.245935 102.578714,26.7936992 L106.131559,26.7936992 C106.131559,25.8353659 106.552291,25.1341463 108.048226,25.1341463 C109.637657,25.1341463 110.151885,25.8587398 110.151885,27.2378049 L107.019771,27.5650407 C103.677291,27.9156504 102.111234,28.8739837 102.111234,31.1646341 C102.111234,33.6656504 104.261641,34.8343496 107.066519,34.8343496 Z M107.814486,32.2632114 C106.482169,32.2632114 105.921194,31.7489837 105.921194,31.0243902 C105.921194,30.4634146 106.365299,30.0426829 107.814486,29.902439 L110.151885,29.6219512 C110.128511,31.0945122 109.450665,32.2632114 107.814486,32.2632114 Z M118.014043,20.9268293 C119.393108,20.9268293 120.374815,20.5762195 120.374815,18.9634146 C120.374815,17.3038618 119.393108,17 118.014043,17 C116.611604,17 115.583149,17.3038618 115.583149,18.9634146 C115.583149,20.5995935 116.611604,20.9268293 118.014043,20.9268293 Z M119.837214,34.6239837 L119.837214,22.703252 L116.167498,22.703252 L116.167498,34.6239837 L119.837214,34.6239837 Z M126.109941,34.6239837 L126.109941,27.9156504 C126.109941,26.3495935 126.624169,25.5315041 128.213599,25.5315041 C129.896526,25.5315041 130.200388,26.3028455 130.200388,27.9156504 L130.200388,34.6239837 L133.870103,34.6239837 L133.870103,28.0558943 C133.870103,24.8302846 133.122136,22.4928862 129.195307,22.4928862 C126.92803,22.4928862 125.572339,23.3577236 124.98799,24.3394309 L124.123152,22.703252 L122.463599,22.703252 L122.463599,34.6239837 L126.109941,34.6239837 Z M140.84405,34.8343496 C142.971083,34.8343496 144.256652,34.1097561 145.074741,32.754065 L145.939579,34.6239837 L147.575758,34.6239837 L147.575758,27.8689024 C147.575758,24.7835366 146.82779,22.4928862 141.732262,22.4928862 C137.384701,22.4928862 136.356245,24.245935 136.356245,26.7936992 L139.909091,26.7936992 C139.909091,25.8353659 140.329823,25.1341463 141.825758,25.1341463 C143.415188,25.1341463 143.929416,25.8587398 143.929416,27.2378049 L140.797302,27.5650407 C137.454823,27.9156504 135.888766,28.8739837 135.888766,31.1646341 C135.888766,33.6656504 138.039172,34.8343496 140.84405,34.8343496 Z M141.592018,32.2632114 C140.259701,32.2632114 139.698725,31.7489837 139.698725,31.0243902 C139.698725,30.4634146 140.142831,30.0426829 141.592018,29.902439 L143.929416,29.6219512 C143.906042,31.0945122 143.228197,32.2632114 141.592018,32.2632114 Z M156.840355,34.8343496 C160.790558,34.8343496 162.029379,31.6788618 162.029379,28.6402439 C162.029379,25.578252 160.930802,22.4928862 157.237712,22.4928862 C155.391168,22.4928862 154.222469,23.1239837 153.661493,23.8485772 L153.661493,18.0985772 L150.038525,18.0985772 L150.038525,34.6239837 L151.674704,34.6239837 L152.562916,32.754065 C153.170639,33.7591463 154.549704,34.8343496 156.840355,34.8343496 Z M155.998891,31.8191057 C153.965355,31.8191057 153.638119,30.5335366 153.638119,28.6402439 C153.638119,26.8170732 153.895233,25.4847561 155.975517,25.4847561 C157.962306,25.4847561 158.289542,26.7936992 158.289542,28.6402439 C158.289542,30.5101626 157.962306,31.8191057 155.998891,31.8191057 Z M167.974871,34.6239837 L167.974871,18.0985772 L164.328529,18.0985772 L164.328529,34.6239837 L167.974871,34.6239837 Z M176.398004,34.8343496 C180.020972,34.8343496 181.867517,33.2215447 182.077882,31.0243902 L178.267923,31.0243902 C178.127679,31.7022358 177.566704,32.2632114 176.234387,32.2632114 C174.644956,32.2632114 173.896988,31.421748 173.873614,29.8323171 L182.007761,29.8323171 C182.054508,29.4817073 182.054508,29.1310976 182.054508,28.7804878 C182.054508,25.648374 180.909183,22.4928862 176.327882,22.4928862 C171.419346,22.4928862 170.203899,25.578252 170.203899,28.6636179 C170.203899,31.7957317 171.395972,34.8343496 176.398004,34.8343496 Z M178.267923,27.3546748 L173.896988,27.3546748 C174.013858,26.0924797 174.691704,25.1575203 176.140891,25.1575203 C177.683574,25.1575203 178.267923,26.1158537 178.267923,27.3546748 Z M58.648374,57.9979675 L61.476626,47.3861789 L64.328252,57.9979675 L68.675813,57.9979675 L73,43.0386179 L69.1432927,43.0386179 L66.5487805,54.0945122 L63.6971545,43.0386179 L59.4430894,43.0386179 L56.5680894,54.0945122 L53.9969512,43.0386179 L50,43.0386179 L54.324187,57.9979675 L58.648374,57.9979675 Z M79.3428492,58.2083333 C82.9658167,58.2083333 84.8123614,56.5955285 85.0227273,54.398374 L81.2127679,54.398374 C81.072524,55.0762195 80.5115484,55.6371951 79.1792313,55.6371951 C77.5898004,55.6371951 76.841833,54.7957317 76.818459,53.2063008 L84.9526053,53.2063008 C84.9993533,52.8556911 84.9993533,52.5050813 84.9993533,52.1544715 C84.9993533,49.0223577 83.8540281,45.8668699 79.2727273,45.8668699 C74.3641907,45.8668699 73.1487435,48.9522358 73.1487435,52.0376016 C73.1487435,55.1697154 74.3408167,58.2083333 79.3428492,58.2083333 Z M81.2127679,50.7286585 L76.841833,50.7286585 C76.9587029,49.4664634 77.6365484,48.5315041 79.0857354,48.5315041 C80.6284183,48.5315041 81.2127679,49.4898374 81.2127679,50.7286585 Z M94.1003326,58.2083333 C98.0505358,58.2083333 99.289357,55.0528455 99.289357,52.0142276 C99.289357,48.9522358 98.1907797,45.8668699 94.4976903,45.8668699 C92.6511456,45.8668699 91.4824464,46.4979675 90.9214708,47.222561 L90.9214708,41.472561 L87.2985033,41.472561 L87.2985033,57.9979675 L88.9346822,57.9979675 L89.8228936,56.1280488 C90.4306171,57.1331301 91.8096822,58.2083333 94.1003326,58.2083333 Z M93.2588692,55.1930894 C91.2253326,55.1930894 90.8980968,53.9075203 90.8980968,52.0142276 C90.8980968,50.1910569 91.1552106,48.8587398 93.2354952,48.8587398 C95.2222838,48.8587398 95.5495196,50.1676829 95.5495196,52.0142276 C95.5495196,53.8841463 95.2222838,55.1930894 93.2588692,55.1930894 Z M113.190503,57.9979675 C117.935421,57.9979675 120.506559,55.0762195 120.506559,50.4247967 C120.506559,45.726626 118.099039,43.0386179 113.447616,43.0386179 L107.533999,43.0386179 L107.533999,57.9979675 L113.190503,57.9979675 Z M112.606153,54.9126016 L111.320584,54.9126016 L111.320584,46.1239837 L112.699649,46.1239837 C115.411031,46.1239837 116.766722,46.7550813 116.790096,50.4014228 C116.790096,54.0477642 115.364283,54.9126016 112.606153,54.9126016 Z M128.695953,58.2083333 C132.318921,58.2083333 134.165466,56.5955285 134.375831,54.398374 L130.565872,54.398374 C130.425628,55.0762195 129.864653,55.6371951 128.532336,55.6371951 C126.942905,55.6371951 126.194937,54.7957317 126.171563,53.2063008 L134.30571,53.2063008 C134.352458,52.8556911 134.352458,52.5050813 134.352458,52.1544715 C134.352458,49.0223577 133.207132,45.8668699 128.625831,45.8668699 C123.717295,45.8668699 122.501848,48.9522358 122.501848,52.0376016 C122.501848,55.1697154 123.693921,58.2083333 128.695953,58.2083333 Z M130.565872,50.7286585 L126.194937,50.7286585 C126.311807,49.4664634 126.989653,48.5315041 128.43884,48.5315041 C129.981523,48.5315041 130.565872,49.4898374 130.565872,50.7286585 Z M142.00425,58.2083333 C145.907705,58.2083333 147.473762,56.2215447 147.473762,54.398374 C147.473762,49.9105691 139.877217,51.3130081 139.877217,49.4898374 C139.877217,48.8353659 140.297949,48.4380081 141.700388,48.4380081 C143.196323,48.4380081 143.687177,49.1158537 143.687177,50.1676829 L147.05303,50.1676829 C147.05303,47.3394309 145.767461,45.8668699 141.700388,45.8668699 C137.773559,45.8668699 136.207502,47.5731707 136.207502,49.7002033 C136.207502,53.9075203 143.850795,52.5985772 143.850795,54.445122 C143.850795,55.0528455 143.336567,55.5670732 141.88738,55.5670732 C140.064209,55.5670732 139.549982,54.8191057 139.549982,53.6971545 L136.02051,53.6971545 C136.02051,56.9695122 137.820307,58.2083333 142.00425,58.2083333 Z M151.385717,44.300813 C152.764782,44.300813 153.746489,43.9502033 153.746489,42.3373984 C153.746489,40.6778455 152.764782,40.3739837 151.385717,40.3739837 C149.983278,40.3739837 148.954823,40.6778455 148.954823,42.3373984 C148.954823,43.9735772 149.983278,44.300813 151.385717,44.300813 Z M153.208888,57.9979675 L153.208888,46.0772358 L149.539172,46.0772358 L149.539172,57.9979675 L153.208888,57.9979675 Z M161.234664,63 C166.002956,63 167.265152,60.9898374 167.265152,59.1199187 C167.265152,57.25 165.769217,56.5020325 164.156412,56.2449187 C163.38507,56.1280488 162.169623,55.9644309 161.585273,55.8943089 C158.854208,55.5301669 158.605058,55.3433045 158.593836,55.096377 L158.593404,55.0762195 C158.593404,54.8658537 158.640152,54.5619919 160.650314,54.5619919 C165.512103,54.5619919 166.587306,53.2063008 166.587306,50.8922764 C166.587306,49.7002033 165.886086,48.9054878 165.184867,48.601626 L167.031412,47.7134146 L167.031412,46.0772358 L161.632021,46.0772358 C156.489745,46.0772358 155.391168,48.0172764 155.391168,50.4014228 C155.391168,51.5934959 155.952143,52.8323171 157.331208,53.3465447 C156.045639,53.6737805 155.134054,54.328252 155.134054,55.4268293 C155.134054,57.296748 157.074095,57.7642276 159.224501,58.0914634 L162.239745,58.5355691 C163.081208,58.652439 163.50194,59.0030488 163.50194,59.4237805 C163.50194,59.8445122 163.198078,60.5924797 161.281412,60.5924797 C159.014135,60.5924797 158.640152,59.7743902 158.640152,58.9329268 L155.017184,58.9329268 C155.017184,61.6910569 156.326127,63 161.234664,63 Z M160.97755,52.2479675 C159.434867,52.2479675 159.084257,51.546748 159.084257,50.4949187 C159.084257,49.5365854 159.458241,48.9054878 160.954176,48.9054878 C162.520233,48.9054878 162.824095,49.5599593 162.824095,50.4949187 C162.824095,51.546748 162.473485,52.2479675 160.97755,52.2479675 Z M172.626293,57.9979675 L172.626293,51.2896341 C172.626293,49.7235772 173.140521,48.9054878 174.729952,48.9054878 C176.412879,48.9054878 176.716741,49.6768293 176.716741,51.2896341 L176.716741,57.9979675 L180.386456,57.9979675 L180.386456,51.429878 C180.386456,48.2042683 179.638489,45.8668699 175.711659,45.8668699 C173.444383,45.8668699 172.088692,46.7317073 171.504342,47.7134146 L170.639505,46.0772358 L168.979952,46.0772358 L168.979952,57.9979675 L172.626293,57.9979675 Z" id="SustainableWebDesign"></path></g></g></svg> 