<?xml version="1.0" encoding="UTF-8"?>
<svg id="Layer_2" data-name="Layer 2" xmlns="http://www.w3.org/2000/svg" viewBox="0 0 38.87 60.31">
  <defs>
    <style>
      .cls-1 {
        fill: #432f24;
      }

      .cls-1, .cls-2, .cls-3 {
        stroke-width: 0px;
      }

      .cls-4 {
        fill: #fecf0d;
        stroke: #ffde17;
        stroke-miterlimit: 10;
      }

      .cls-2 {
        fill: #39b54a;
      }

      .cls-3 {
        fill: #006838;
      }
    </style>
  </defs>
  <g id="idk">
    <g>
      <g id="stalk">
        <path class="cls-3" d="M23.49,57.9c.87-13.9,1.14-27.82.8-41.74-.08-3.21-5.08-3.22-5,0,.33,13.92.07,27.85-.8,41.74-.2,3.21,4.8,3.2,5,0h0Z"/>
      </g>
      <g id="leaf">
        <g>
          <path class="cls-3" d="M21.5,39.19c-2.77-1.95-3.53-5.9-6.24-7.94-1.55-1.17-3.58-1.55-5.52-1.45-1.94.11-3.82.66-5.69,1.21-1.35.4-2.86.93-3.43,2.22,1.63.08,3.22.85,4.29,2.08.92,1.05,1.45,2.38,2.21,3.54,1.33,2.02,3.41,3.54,5.75,4.14,2.34.59,4.92.24,6.98-1.02.88-.54,1.7-1.27,2.08-2.23"/>
          <path class="cls-2" d="M21.81,38.65c-1.83-1.36-2.72-3.55-3.95-5.39s-2.75-3.19-4.89-3.76c-2.38-.64-4.88-.24-7.22.39-2,.53-4.63,1.01-5.67,3.04-.23.44.06.9.54.94,1.31.1,2.56.62,3.51,1.54s1.44,2.08,2.09,3.17c1.13,1.91,2.76,3.48,4.79,4.41,3.6,1.65,9.61,1.14,11.47-2.92.33-.73-.74-1.36-1.08-.63-.97,2.11-3.6,3.09-5.79,3.2-2.31.12-4.59-.71-6.32-2.24s-2.33-3.5-3.66-5.19c-1.23-1.57-3.03-2.44-5-2.59l.54.94c.95-1.86,4.03-2.28,5.87-2.7,2.31-.53,4.88-.74,7.05.4,3.39,1.78,4.07,6.24,7.1,8.48.65.48,1.27-.61.63-1.08h0Z"/>
        </g>
        <g>
          <path class="cls-3" d="M3.22,32.7c2.62-.1,5.26.79,7.28,2.45,1.62,1.33,2.9,3.17,4.84,3.95.73.29,1.51.42,2.29.55.99.16,2,.32,2.99.17"/>
          <path class="cls-2" d="M3.22,33.32c1.74-.04,3.47.3,5.02,1.1,1.46.74,2.58,1.85,3.74,2.99.98.96,2.03,1.86,3.33,2.35,1.58.59,3.64.89,5.3.68.79-.1.8-1.35,0-1.25-1.67.21-3.91-.07-5.43-.85-1.36-.69-2.36-1.9-3.45-2.94-2.32-2.2-5.3-3.42-8.51-3.34-.8.02-.81,1.27,0,1.25h0Z"/>
        </g>
      </g>
      <g>
        <path class="cls-1" d="M18.49,23.13c1.05.19,2.11.33,3.17.45.93.1,1.85.21,2.78.09,2.2-.3,3.86-1.77,4.71-3.79.79-1.88.94-4.14.55-6.13s-1.89-3.79-3.5-4.98c-1.71-1.26-4.1-.99-6.08-.72-1.16.16-2.23.36-3.19,1.09-.81.62-1.42,1.53-1.97,2.39-1.23,1.91-1.46,4.05-1.11,6.26.28,1.77.9,3.85,2.35,5.02,1.81,1.47,3.99,1.73,6.13.82.24-.1.48-.2.72-.31.02-.01.25-.09.25-.11,0,.02-.44.17-.17.08.17-.06.34-.13.52-.17.02,0,.26-.08.27-.06-.02-.03-.47.05-.04.01,1.23-.12,2.45-.36,3.34-1.3.95-1.01,1.04-2.33,1.08-3.64.03-.96.05-1.92-.02-2.88-.07-1.06-.22-2.17-.82-3.08s-1.46-1.62-2.49-2.06c-2.06-.87-4.16-.44-6.13.42-1,.43-2.01.97-2.52,1.98s-.55,2.35-.57,3.5c-.04,2.09.32,4.21,2.15,5.48.93.65,2.14.76,3.24.69s2.39-.16,3.4-.7c1.11-.59,1.67-1.7,1.84-2.89s.29-2.35,0-3.55c-.23-.97-.79-1.97-1.56-2.6-1.02-.83-2.16-1.12-3.45-1.17-2.54-.1-4.57,1.66-4.74,4.21-.15,2.31,1.65,4.28,3.76,4.92,1.13.35,2.3.27,3.44.05.77-.15,1.61-.96,1.75-1.75.26-1.52.13-3.1-.75-4.41-.53-.8-1.17-1.46-2.09-1.78s-2-.13-2.87.32c-1.34.71-2.28,2.3-2.16,3.82.14,1.79,1.36,3.35,3.13,3.81.82.21,1.85.03,2.43-.64,1.5-1.74,1.28-4.12-.32-5.72-1.17-1.17-2.82-1.07-4.02-.05-.7.6-1.23,1.51-1.4,2.42-.16.83-.06,1.84.64,2.43.97.82,2.04,1.3,3.32,1.3s2.56-1.15,2.5-2.5-1.1-2.49-2.5-2.5c-.52,0,.56.11-.09-.02-.18-.06-.11-.03.21.08-.23-.14-.2-.11.09.09l.64,2.43c.02-.11.04-.23.08-.33-.14.3-.17.37-.07.21.1-.16.05-.11-.14.16.33-.32.12-.22-.64.31h-1.33l.15.05-1.1-.64c.06.05.4.4.15.12-.1-.14-.12-.15-.04-.04.09.16.07.09-.06-.2.12.34-.01-.05-.01-.19,0-.37.17-.67.41-.93l2.43-.64c-.32-.08.06.04.16.09-.29-.14.04.02.13.11l.19.27c-.1-.18-.11-.18-.02.03.14.43.04-.3.04.19.04.12.03.24,0,.36-.04.2-.04.24-.01.1.11-.3-.25.44-.08.17s-.33.36-.11.13c.21-.21-.51.33-.07.07-.18.11-.42.2-.64.2l-1.22-.49.1.1c-.52-.54.15.24.1.24-.08,0-.15-.49-.06-.1,0,.04.12.6.06.19-.05-.37-.01.03-.01.11,0,.17-.08.58.03-.04l1.75-1.75c-.61.12.38.02,0,0-.16,0-.33,0-.49,0h-.1c-.19-.02-.13,0,.18.03-.06.02-.34-.08-.37-.09-.54-.14.11.03.08.04,0,0-.55-.31-.17-.08s-.16-.07-.12-.14l.18.24c-.06-.09-.12-.19-.17-.29.05-.04.15.63.07.13.11.71.01.35.03.21.05-.45-.05.22-.05.22.07-.04.09-.57.02-.12l-.07.16c.14-.22.09-.17-.14.15.13-.14.29-.2-.18.1.32-.21-.1.03-.15.05.28-.06.25-.06-.09,0h.2c.15.02.33.02.48.02.35,0-.46-.12-.13-.02.19.05.47.2,0-.07.26.15,0,.09-.1-.13-.01-.02.23.22.23.23.02-.03-.36-.46-.08-.03.17.26-.12-.57-.04-.06l.04.16c.05.24.05.21,0-.1.1.17,0,.63,0,.83,0,.14-.03.28-.04.41-.05.67.07-.32,0,.04,0,.05-.05.42-.08.42l.06-.14c.1-.3.3-.53.6-.7.48-.28.31-.1.13-.08s-.36.08-.55.09c.5-.03.12-.01.01,0-.18.02-.36.04-.55.05-.03,0-.89,0-.9.02.06-.15.48.15.11,0l.25.11c-.18-.11-.17-.11,0,.02l.14.1c-.18-.19-.14-.14.12.16-.25-.35.1.4.03.12-.06-.22-.1-.47-.17-.69.16.53.04.39.04.19,0-.14-.02-.28-.02-.42-.02-.7.02-1.38.08-2.08.04-.51,0-.03-.02.06l.03-.17c-.09.33-.27.58-.54.75l-.12.09c.1-.06.19-.11.29-.16.12-.06.24-.12.35-.18.09-.04.25-.14.36-.17-.47.1-.18.07-.05.02.34-.12.68-.24,1.04-.32l.1-.02c.28-.05.26-.05-.08,0,.05-.04.36-.02.39-.02-.02,0,.32.02.32.02-.05.09-.6-.12-.1,0,.11.03.21.07.31.09.31.08-.5-.32-.08-.02.06.04.23.16.27.17-.27-.22-.33-.27-.19-.14.06.05.12.11.17.17-.25-.08-.24-.4-.1-.13.24.47-.07-.42,0-.05.02.12.15.34.11.46,0-.03-.04-.61-.02-.1.03.69.06,1.38.05,2.07,0,.62-.04,1.23-.05,1.85-.01.48.01-.1.06-.23.09-.25.26-.48.49-.62.04-.02.56-.23.16-.08-.47.17.52-.03-.11.03-.75.07-1.46.16-2.16.44-.37.14-.74.31-1.1.47-.04.02-.59.21-.21.09s-.23.07-.3.09l-.09.03c-.23.05-.24.06-.01.03l.16-.02c-.11.01-.21.02-.32.01-.23.02-.27-.15.18.04-.07-.03-.23-.06-.32-.07-.51-.08.34.21.07.05-.03-.02-.36-.18-.35-.2.01-.03.46.43.12.09-.06-.05-.12-.11-.17-.17-.12-.14-.08-.07.14.19-.1-.02-.33-.52-.35-.63.11.54.09.18.03,0-.05-.15-.1-.3-.14-.45-.08-.26-.15-.53-.21-.79-.04-.17-.07-.34-.11-.5-.05-.28-.12-.37-.02-.05-.09-.28-.05-.72-.04-1.01,0-.08,0-.35.03-.4-.13.18-.08.36,0,.07.05-.16.08-.33.13-.49l.03-.1c.1-.26.09-.25-.02.05,0-.24.37-.67.5-.86.15-.22.31-.44.46-.65.38-.52-.24.26.01-.01.03-.04.25-.33.29-.32.05.03-.59.3-.09.08-.52.23-.21.08-.08.06.33-.07.65-.14.98-.18-.53.06-.04.01.1,0,.18-.02.36-.03.55-.05.29-.02.58-.04.88-.04s.6.02.9,0c.32-.02-.54-.2-.03,0,.48.19-.42-.25.08.03.35.19-.08-.05-.06-.06.03-.01.39.36.41.38.22.22.42.44.63.67.31.35,0-.04-.05-.07.12.09.22.32.3.46.02.03.31.55.12.19-.17-.33.07.25.1.34.04.15.1.33.1.48,0-.33-.04-.27-.02.03.02.37,0,.73-.02,1.1,0,.13-.02.26-.03.4-.05.66.11-.52-.01.13-.06.33-.15.64-.24.96-.13.46.02.03.04-.04-.03.15-.17.33-.25.47l-.09.14c-.13.18-.13.18,0,.01.13-.16.12-.16-.02,0-.06.06-.12.12-.18.17-.21.24.51-.28.05-.04l-.14.09c-.24.12-.19.11.15-.04,0,.01-.34.1-.32.1-.48.13.41.05-.12,0-.68-.07-1.37-.08-2.05-.15-.17-.02-.35-.04-.52-.06-.31-.03.42.07-.07,0-.42-.06-.83-.13-1.25-.2-1.28-.23-2.76.34-3.08,1.75-.28,1.22.37,2.83,1.75,3.08h0Z"/>
        <path class="cls-4" d="M22.74,10.43c-.54-.42-.66-.48-1.7-.26s-1.35-4.84-.63-7.04.83-3.68,1.73-1.66,1.65,5.45.61,8.96Z"/>
        <path class="cls-4" d="M20.47,10.37s-1.71-.48-2.61.97c-1.63-2.63-3.36-4.43-3.37-8.52.36-2.73,2.95.98,3.6,2.23,1.08,1.8,2.37,5.32,2.37,5.32Z"/>
        <path class="cls-4" d="M23,10.25c.37-.19,1.64-.1,1.81.71.76-.25,5.41-7.71,3.44-10.33-2.76,1.26-5.25,9.62-5.25,9.62Z"/>
        <path class="cls-4" d="M26.81,12.83c-.13-.67-.17-.8-1.1-1.32s2.19-4.52,4.18-5.7,3.06-2.22,2.39-.1-2.36,5.18-5.47,7.12Z"/>
        <path class="cls-4" d="M28.15,15.55s.41-1.73-1.08-2.56c2.55-1.74,4.28-3.55,8.37-3.73,2.74.24-.85,2.99-2.08,3.69-1.75,1.16-5.21,2.6-5.21,2.6Z"/>
        <path class="cls-4" d="M28.1,17.98c.33-.6.37-.73-.01-1.72s4.56-2.11,6.85-1.75,3.77.23,1.91,1.44-5.12,2.51-8.75,2.04Z"/>
        <path class="cls-4" d="M27.96,18.08c.24.34.33,1.61-.45,1.89.36.72,8.4,4.27,10.72,1.95-1.64-2.55-10.27-3.83-10.27-3.83Z"/>
        <path class="cls-4" d="M25.14,21.32c.68-.06.81-.09,1.43-.96s4.27,2.64,5.24,4.74,1.89,3.27-.15,2.39-4.91-2.88-6.52-6.17Z"/>
        <path class="cls-4" d="M22.21,22.27s1.65.65,2.69-.71c1.36,2.78,2.9,4.75,2.49,8.82-.63,2.68-2.84-1.27-3.36-2.58-.9-1.9-1.83-5.53-1.83-5.53Z"/>
        <path class="cls-4" d="M19.65,21.87c.53.43.65.5,1.7.3s1.25,4.86.49,7.05-.9,3.67-1.76,1.62-1.54-5.48-.42-8.97Z"/>
        <path class="cls-4" d="M19.56,21.73c-.37.19-1.64.08-1.8-.73-.76.25-5.49,7.65-3.55,10.3,2.77-1.23,5.35-9.57,5.35-9.57Z"/>
        <path class="cls-4" d="M16.26,18.95c.03.68.06.82.9,1.47s-2.81,4.17-4.95,5.04-3.34,1.76-2.38-.24,3.08-4.79,6.43-6.27Z"/>
        <path class="cls-4" d="M16.35,18.68c-.38-.16-1.13-1.19-.62-1.84-.68-.42-9.39.82-10.13,4.02,2.74,1.3,10.74-2.17,10.74-2.17Z"/>
        <path class="cls-4" d="M16.27,13.74s-1.28,1.23-.48,2.74c-3.09.08-5.52.66-9.06-1.4-2.17-1.69,2.33-2.05,3.75-1.98,2.1-.03,5.79.64,5.79.64Z"/>
        <path class="cls-4" d="M16.35,13.4c-.1-.4.3-1.62,1.13-1.58-.06-.8-6.15-7.14-9.18-5.87.55,2.98,8.05,7.44,8.05,7.44Z"/>
      </g>
    </g>
  </g>
</svg>