<?xml version="1.0" encoding="UTF-8"?>
<svg id="Layer_2" data-name="Layer 2" xmlns="http://www.w3.org/2000/svg" viewBox="0 0 77.1 38.6">
  <defs>
    <style>
      .cls-1 {
        fill: #fff;
        stroke-width: 0px;
      }
    </style>
  </defs>
  <g id="idk">
    <path class="cls-1" d="M16.04,32.85c-4.74-4.07-10.38-.44-13.99-4.11-1.85-1.88-2.68-5.18-1.52-6.84,1.98-2.85,8.57.78,10.95-1.98,2.68-3.11-4.09-9.63-1.67-14.75C12.07.38,21.21-.77,27.91.45c9.35,1.71,9.45,7.21,19.47,11.41,13.59,5.69,22.29-.74,27.22,5.32,3.74,4.58,3.27,13.8-1.22,18.25-7.39,7.34-18.92-4.94-38.48.91-4.01,1.2-11.34,4.05-15.66.61-1.76-1.4-1.22-2.41-3.19-4.11Z"/>
  </g>
</svg>