<?xml version="1.0" encoding="UTF-8"?>
<svg id="Layer_2" data-name="Layer 2" xmlns="http://www.w3.org/2000/svg" viewBox="0 0 132.87 79.64">
  <defs>
    <style>
      .cls-1 {
        fill: #fff;
        stroke-width: 0px;
      }
    </style>
  </defs>
  <g id="idk">
    <path class="cls-1" d="M105.52,34.5c5.16,2.09,8.22-3.57,15.31-1.19,7.59,2.55,12.98,12.05,11.91,18.03-.44,2.46-1.57,3.51-6.8,10.04-7.91,9.87-8.12,10.79-9.36,12.08-5.33,5.56-24.9,10.2-41.16.85-11.6-6.67-12.24-15.05-19.39-14.97-8.96.1-10.3,13.3-20.58,15.99C23.1,78.55,1.33,65.72.06,46.23c-.87-13.29,7.84-26.2,18.03-30.28,7.71-3.08,11.78.66,23.98-3.23,8.51-2.72,8.71-5.23,16.67-8.33,2.41-.94,23.25-9.06,33.85-.51,10.36,8.36,3.89,26.95,12.93,30.62Z"/>
  </g>
</svg>