<?xml version="1.0" encoding="UTF-8"?>
<svg id="Layer_2" data-name="Layer 2" xmlns="http://www.w3.org/2000/svg" viewBox="0 0 127.01 28.45">
  <defs>
    <style>
      .cls-1 {
        fill: #231f20;
        stroke-width: 0px;
      }
    </style>
  </defs>
  <g id="idk">
    <path class="cls-1" d="M15.9,1.26C12.46,0,8.72-.46,5.31,1.14,2.1,2.64.07,6.16.73,9.69s3.95,5.36,7.03,6.49c1.05.39,2.92.75,3.57,1.78.52.82.16,2.17-.1,3.16-.1.36-.17.76-.32,1.09-.05.12-.2.32-.06.22-.37.27-1.5.24-1.98.26-1.75.07-3.52-.22-5.12-.94-1.23-.56-2.69-.35-3.42.9-.63,1.07-.34,2.86.9,3.42,3.36,1.53,7.14,2.12,10.76,1.21s4.54-4.97,4.58-8.14c.02-1.75-.53-3.43-1.7-4.74-1.25-1.4-3.13-2.08-4.85-2.7-1.84-.67-5.28-1.74-4.25-4.33,1.36-3.43,6.28-2.21,8.81-1.28,1.27.47,2.74-.52,3.08-1.75.38-1.4-.48-2.6-1.75-3.08h0Z"/>
    <path class="cls-1" d="M23.01,12.95c.08-.96.18-1.92.35-2.88.14-.81.21-1.84.57-2.59.27-.56.96-.86,1.49-1.16.83-.46,1.67-.8,2.58-1.05,2.8-.75,6.28-.07,7.49,2.88.68,1.66,1,3.65,1.23,5.43.19,1.43.3,3.09-.26,4.46-1.12,2.77-5.28,4.68-8.13,4.19-1.93-.33-2.95-1.78-3.8-3.42-.95-1.84-1.42-3.89-1.49-5.96-.11-3.21-5.11-3.22-5,0,.16,4.98,2.21,11.43,7.16,13.6s11.26-.1,14.47-4.16,2.28-10.08.87-14.76C38.98,2.32,33.99-.58,28.65.1c-2.8.36-6,1.52-8.04,3.56-1.11,1.11-1.58,2.56-1.88,4.06-.34,1.73-.57,3.48-.71,5.24-.11,1.35,1.23,2.5,2.5,2.5,1.44,0,2.39-1.15,2.5-2.5h0Z"/>
    <path class="cls-1" d="M49.12,25.9c.02-3.82.04-7.65.06-11.47l.03-5.51.02-2.75c0-.76-.16-2.14-.04-2.71l-1.15,1.49c-.35.18-.28.22.22.12.29,0,.59,0,.88.01.51.02,1.02.07,1.53.11,1.05.09,2.09.18,3.13.3,1.39.15,1.9.44,2.14,1.92.22,1.37.27,3.24-.93,4.17-1.36,1.05-3.33,1.04-4.95,1.12-1.35.07-2.5,1.1-2.5,2.5,0,1.3,1.14,2.57,2.5,2.5,3.72-.18,8.14-.83,10.03-4.56,1.63-3.22,1.37-8.55-1.48-11.05-1.55-1.36-3.47-1.48-5.43-1.67s-4.1-.52-6.12-.25c-1.18.16-2.34.68-2.69,1.95-.27.98-.13,2.11-.14,3.12l-.04,6.42-.08,14.22c-.02,3.22,4.98,3.22,5,0h0Z"/>
    <path class="cls-1" d="M67.35,25.48c.09-5.01.12-10.01.09-15.02h-5l.05,2.43c.03,1.59,1.58,2.88,3.16,2.41,1.01-.3,1.73-.87,2.47-1.61.44-.44.76-.63,1.4-.76.77-.15,1.65-.16,2.43-.08.27.03.43.07.69.12-.5-.1-.2-.33-.17-.04.08.76.24,1.18.3,2,.08,1.16.14,2.33.16,3.5.04,2.19-.04,4.38-.22,6.56h5c.14-3.16.28-6.31.41-9.47.03-.75-.14-1.69.49-2.11.89-.59,2.45-.71,3.49-.76.45-.02,1.17-.12,1.61.03.12.04.18.11.28.34.5,1.16.56,2.54.55,3.78-.02,3.05-.68,6.06-.54,9.12.06,1.35,1.1,2.5,2.5,2.5,1.31,0,2.56-1.14,2.5-2.5-.18-3.85.87-7.65.39-11.5-.22-1.79-.65-3.71-1.88-5.09-1.37-1.54-3.46-1.77-5.42-1.69-3.52.14-7.99,1.21-8.75,5.21-.37,1.94-.3,3.99-.38,5.95s-.18,4.11-.27,6.17c-.06,1.35,1.19,2.5,2.5,2.5,1.44,0,2.39-1.15,2.5-2.5.22-2.69.28-5.39.17-8.1-.09-2.26,0-4.98-1.39-6.91-1.52-2.12-4.22-2.31-6.62-2.11-1.29.11-2.55.36-3.69,1-.51.28-.98.67-1.4,1.07-.14.13-.28.27-.41.42-.34.41-.21.16-.06.11l3.16,2.41-.05-2.43c-.06-3.21-5.02-3.23-5,0,.03,5.01,0,10.01-.09,15.02-.06,3.22,4.94,3.22,5,0h0Z"/>
    <path class="cls-1" d="M104.15,13.52c-2.81,0-5.73.11-8.23,1.54s-3.91,3.77-4.08,6.59c-.21,3.39,2.11,5.79,5.4,6.14,2.57.27,5.38-.64,7.21-2.48,2.35-2.36,2.87-6.27,2.56-9.45-.13-1.3-1.06-2.56-2.5-2.5s-2.48,1.1-2.5,2.5c-.04,2.88-.03,5.76.03,8.64h5c-.07-2.39-.13-4.78-.2-7.17s-.07-5.13-1.29-7.36c-.55-1.01-1.4-1.91-2.4-2.5-1.14-.67-2.44-.81-3.74-.8-2.21.02-4.59.34-6.42,1.69-1.08.8-1.63,2.17-.9,3.42.63,1.07,2.33,1.7,3.42.9.33-.25.68-.48,1.07-.64-.25.11-.03.02.1-.01.2-.06.4-.12.61-.16s.41-.09.62-.12c-.35.05.08,0,.22-.01.38-.03.77-.05,1.15-.05.32,0,.92.01,1.08.02l.22.06c-.2-.1-.23-.1-.07-.02.09.05.46.35.16.07.12.1.22.22.33.33-.27-.28.04.06.1.15.25.41.26.48.37.88.42,1.52.34,3.45.39,5.24.06,2.03.11,4.06.17,6.09.04,1.31,1.12,2.56,2.5,2.5s2.53-1.1,2.5-2.5c-.06-2.88-.07-5.76-.03-8.64h-5c.12,1.25.1,2.52-.12,3.6-.12.59-.29,1.26-.49,1.64-.04.08-.45.69-.16.33-.15.19-.32.35-.49.51-.36.36.17-.05-.24.19-.24.14-.48.28-.73.4-.16.07-.14.07.04-.02-.15.05-.3.1-.46.15-.23.07-.47.12-.71.16.49-.09-.18.01-.29.02-.18,0-.8,0-.78,0,.24.03-.84-.29-.35-.07l-.2-.11c-.24-.16-.25-.16-.04,0-.17-.19-.21-.21-.1-.08.1.14.08.1-.06-.11.01.49-.05-.37.01.08-.04-.29-.02-.6,0-.89,0-.13.02-.26.03-.39-.02.23,0,.2.05-.11.02-.05.3-.73.08-.3.1-.21.22-.4.35-.59-.26.39.2-.21.28-.29.08-.08.17-.16.26-.24-.2.14-.19.13.05-.04.2-.13.4-.26.6-.37.03-.02.71-.33.26-.15.6-.25,1.24-.4,1.87-.51.37-.06.84-.09,1.39-.11.69-.03,1.38-.03,2.08-.02,1.31,0,2.56-1.15,2.5-2.5s-1.1-2.5-2.5-2.5h0Z"/>
    <path class="cls-1" d="M115.36,25.13c-.55-5.01-.68-10.06-.37-15.1h-5l.04,3.09c.01,1,.62,1.9,1.54,2.28.84.36,2.11.25,2.73-.52.3-.37.63-.71.99-1.02-.32.27.18-.12.26-.17.17-.11.34-.21.51-.31.21-.12.43-.22.64-.33.23-.11-.23.07.18-.07.46-.15.92-.31,1.39-.43.23-.06.47-.11.71-.16.07-.01.79-.11.42-.07.23-.02.45-.03.68-.03.14,0,.27,0,.41.02-.18-.02-.18-.01,0,.03.2.06.54.24.19.05.14.08.52.39.21.11.17.15.32.3.46.47-.32-.37.08.16.12.22.06.1.33.69.14.21.07.17.13.35.18.53.16.55.17.66.21,1.19.07,1.19-.03,2.39-.1,3.58-.13,2.31-.26,4.61-.39,6.92-.07,1.31,1.2,2.56,2.5,2.5,1.42-.06,2.42-1.1,2.5-2.5.16-2.8.34-5.61.48-8.41s-.19-5.61-2.09-7.78-4.95-2.39-7.72-1.76c-2.4.55-4.85,1.72-6.42,3.67l4.27,1.77-.04-3.09c-.02-1.31-1.14-2.56-2.5-2.5s-2.42,1.1-2.5,2.5c-.3,5.04-.18,10.08.37,15.1.14,1.3,1.05,2.57,2.5,2.5,1.23-.06,2.65-1.11,2.5-2.5h0Z"/>
  </g>
</svg>