<?xml version="1.0" encoding="UTF-8"?>
<svg id="Layer_2" data-name="Layer 2" xmlns="http://www.w3.org/2000/svg" viewBox="0 0 24.24 20.99">
  <defs>
    <style>
      .cls-1, .cls-2 {
        fill: none;
        stroke: #fff;
        stroke-miterlimit: 10;
      }

      .cls-2 {
        stroke-width: .25px;
      }
    </style>
  </defs>
  <g id="idk">
    <g id="hexaception">
      <polygon class="cls-1" points="17.89 .5 6.35 .5 .58 10.5 6.35 20.49 17.89 20.49 23.66 10.5 17.89 .5"/>
      <polygon class="cls-1" points="14.03 .5 10.41 .5 8.59 3.64 10.41 6.78 14.03 6.78 15.85 3.64 14.03 .5"/>
      <polygon class="cls-1" points="19.42 3.74 15.79 3.74 13.97 6.88 15.79 10.02 19.42 10.02 21.23 6.88 19.42 3.74"/>
      <polygon class="cls-1" points="13.91 6.88 10.28 6.88 8.47 10.02 10.28 13.16 13.91 13.16 15.73 10.02 13.91 6.88"/>
      <polygon class="cls-1" points="8.62 3.74 4.99 3.74 3.18 6.88 4.99 10.02 8.62 10.02 10.43 6.88 8.62 3.74"/>
      <polygon class="cls-1" points="19.42 10.02 15.79 10.02 13.97 13.16 15.79 16.31 19.42 16.31 21.23 13.16 19.42 10.02"/>
      <polygon class="cls-1" points="8.45 10.02 4.82 10.02 3.01 13.16 4.82 16.31 8.45 16.31 10.27 13.16 8.45 10.02"/>
      <polygon class="cls-1" points="13.91 13.26 10.28 13.26 8.47 16.4 10.28 19.54 13.91 19.54 15.73 16.4 13.91 13.26"/>
      <polygon class="cls-2" points="12.76 .84 11.69 .84 11.15 1.76 11.69 2.69 12.76 2.69 13.29 1.76 12.76 .84"/>
      <polygon class="cls-2" points="14.34 1.79 13.27 1.79 12.74 2.72 13.27 3.64 14.34 3.64 14.88 2.72 14.34 1.79"/>
      <polygon class="cls-2" points="12.72 2.72 11.65 2.72 11.12 3.64 11.65 4.57 12.72 4.57 13.26 3.64 12.72 2.72"/>
      <polygon class="cls-2" points="11.16 1.79 10.09 1.79 9.56 2.72 10.09 3.64 11.16 3.64 11.7 2.72 11.16 1.79"/>
      <polygon class="cls-2" points="14.34 3.64 13.27 3.64 12.74 4.57 13.27 5.49 14.34 5.49 14.88 4.57 14.34 3.64"/>
      <polygon class="cls-2" points="11.11 3.64 10.04 3.64 9.51 4.57 10.04 5.49 11.11 5.49 11.65 4.57 11.11 3.64"/>
      <polygon class="cls-2" points="12.72 4.6 11.65 4.6 11.12 5.52 11.65 6.45 12.72 6.45 13.26 5.52 12.72 4.6"/>
      <polygon class="cls-2" points="18.17 4.03 17.1 4.03 16.56 4.95 17.1 5.88 18.17 5.88 18.7 4.95 18.17 4.03"/>
      <polygon class="cls-2" points="19.75 4.98 18.68 4.98 18.15 5.91 18.68 6.83 19.75 6.83 20.29 5.91 19.75 4.98"/>
      <polygon class="cls-2" points="18.13 5.91 17.06 5.91 16.53 6.83 17.06 7.76 18.13 7.76 18.66 6.83 18.13 5.91"/>
      <polygon class="cls-2" points="16.57 4.98 15.5 4.98 14.97 5.91 15.5 6.83 16.57 6.83 17.11 5.91 16.57 4.98"/>
      <polygon class="cls-2" points="19.75 6.83 18.68 6.83 18.15 7.76 18.68 8.68 19.75 8.68 20.29 7.76 19.75 6.83"/>
      <polygon class="cls-2" points="16.52 6.83 15.45 6.83 14.92 7.76 15.45 8.68 16.52 8.68 17.06 7.76 16.52 6.83"/>
      <polygon class="cls-2" points="18.13 7.78 17.06 7.78 16.53 8.71 17.06 9.64 18.13 9.64 18.66 8.71 18.13 7.78"/>
      <polygon class="cls-2" points="12.69 7.22 11.62 7.22 11.09 8.14 11.62 9.07 12.69 9.07 13.23 8.14 12.69 7.22"/>
      <polygon class="cls-2" points="14.28 8.17 13.21 8.17 12.67 9.1 13.21 10.02 14.28 10.02 14.81 9.1 14.28 8.17"/>
      <polygon class="cls-2" points="12.66 9.1 11.59 9.1 11.05 10.02 11.59 10.95 12.66 10.95 13.19 10.02 12.66 9.1"/>
      <polygon class="cls-2" points="11.1 8.17 10.03 8.17 9.5 9.1 10.03 10.02 11.1 10.02 11.63 9.1 11.1 8.17"/>
      <polygon class="cls-2" points="14.28 10.02 13.21 10.02 12.67 10.95 13.21 11.87 14.28 11.87 14.81 10.95 14.28 10.02"/>
      <polygon class="cls-2" points="11.05 10.02 9.98 10.02 9.45 10.95 9.98 11.87 11.05 11.87 11.58 10.95 11.05 10.02"/>
      <polygon class="cls-2" points="12.66 10.97 11.59 10.97 11.05 11.9 11.59 12.82 12.66 12.82 13.19 11.9 12.66 10.97"/>
      <polygon class="cls-2" points="18.3 10.36 17.23 10.36 16.69 11.28 17.23 12.21 18.3 12.21 18.83 11.28 18.3 10.36"/>
      <polygon class="cls-2" points="19.88 11.31 18.81 11.31 18.28 12.24 18.81 13.16 19.88 13.16 20.42 12.24 19.88 11.31"/>
      <polygon class="cls-2" points="18.26 12.24 17.19 12.24 16.66 13.16 17.19 14.09 18.26 14.09 18.8 13.16 18.26 12.24"/>
      <polygon class="cls-2" points="16.7 11.31 15.63 11.31 15.1 12.24 15.63 13.16 16.7 13.16 17.24 12.24 16.7 11.31"/>
      <polygon class="cls-2" points="19.88 13.16 18.81 13.16 18.28 14.09 18.81 15.01 19.88 15.01 20.42 14.09 19.88 13.16"/>
      <polygon class="cls-2" points="16.65 13.16 15.59 13.16 15.05 14.09 15.59 15.01 16.65 15.01 17.19 14.09 16.65 13.16"/>
      <polygon class="cls-2" points="18.26 14.12 17.19 14.12 16.66 15.04 17.19 15.97 18.26 15.97 18.8 15.04 18.26 14.12"/>
      <polygon class="cls-2" points="12.79 13.5 11.72 13.5 11.19 14.43 11.72 15.35 12.79 15.35 13.33 14.43 12.79 13.5"/>
      <polygon class="cls-2" points="14.38 14.45 13.31 14.45 12.77 15.38 13.31 16.31 14.38 16.31 14.91 15.38 14.38 14.45"/>
      <polygon class="cls-2" points="12.76 15.38 11.69 15.38 11.15 16.31 11.69 17.23 12.76 17.23 13.29 16.31 12.76 15.38"/>
      <polygon class="cls-2" points="11.2 14.45 10.13 14.45 9.6 15.38 10.13 16.31 11.2 16.31 11.73 15.38 11.2 14.45"/>
      <polygon class="cls-2" points="14.38 16.31 13.31 16.31 12.77 17.23 13.31 18.16 14.38 18.16 14.91 17.23 14.38 16.31"/>
      <polygon class="cls-2" points="11.15 16.31 10.08 16.31 9.55 17.23 10.08 18.16 11.15 18.16 11.68 17.23 11.15 16.31"/>
      <polygon class="cls-2" points="12.76 17.26 11.69 17.26 11.15 18.18 11.69 19.11 12.76 19.11 13.29 18.18 12.76 17.26"/>
      <polygon class="cls-2" points="7.1 10.45 6.04 10.45 5.5 11.38 6.04 12.3 7.1 12.3 7.64 11.38 7.1 10.45"/>
      <polygon class="cls-2" points="8.69 11.41 7.62 11.41 7.09 12.33 7.62 13.26 8.69 13.26 9.22 12.33 8.69 11.41"/>
      <polygon class="cls-2" points="7.07 12.33 6 12.33 5.47 13.26 6 14.18 7.07 14.18 7.6 13.26 7.07 12.33"/>
      <polygon class="cls-2" points="5.51 11.41 4.44 11.41 3.91 12.33 4.44 13.26 5.51 13.26 6.04 12.33 5.51 11.41"/>
      <polygon class="cls-2" points="8.69 13.26 7.62 13.26 7.09 14.18 7.62 15.11 8.69 15.11 9.22 14.18 8.69 13.26"/>
      <polygon class="cls-2" points="5.46 13.26 4.39 13.26 3.86 14.18 4.39 15.11 5.46 15.11 5.99 14.18 5.46 13.26"/>
      <polygon class="cls-2" points="7.07 14.21 6 14.21 5.47 15.14 6 16.06 7.07 16.06 7.6 15.14 7.07 14.21"/>
      <polygon class="cls-2" points="7.23 4.03 6.16 4.03 5.63 4.95 6.16 5.88 7.23 5.88 7.77 4.95 7.23 4.03"/>
      <polygon class="cls-2" points="8.82 4.98 7.75 4.98 7.21 5.91 7.75 6.83 8.82 6.83 9.35 5.91 8.82 4.98"/>
      <polygon class="cls-2" points="7.2 5.91 6.13 5.91 5.59 6.83 6.13 7.76 7.2 7.76 7.73 6.83 7.2 5.91"/>
      <polygon class="cls-2" points="5.64 4.98 4.57 4.98 4.03 5.91 4.57 6.83 5.64 6.83 6.17 5.91 5.64 4.98"/>
      <polygon class="cls-2" points="8.82 6.83 7.75 6.83 7.21 7.76 7.75 8.68 8.82 8.68 9.35 7.76 8.82 6.83"/>
      <polygon class="cls-2" points="5.59 6.83 4.52 6.83 3.98 7.76 4.52 8.68 5.59 8.68 6.12 7.76 5.59 6.83"/>
      <polygon class="cls-2" points="7.2 7.78 6.13 7.78 5.59 8.71 6.13 9.64 7.2 9.64 7.73 8.71 7.2 7.78"/>
    </g>
  </g>
</svg>