<?xml version="1.0" encoding="UTF-8"?>
<svg id="Lag_2" data-name="Lag 2" xmlns="http://www.w3.org/2000/svg" viewBox="0 0 11.48 8.72">
  <defs>
    <style>
      .cls-1 {
        stroke-width: .5px;
      }

      .cls-1, .cls-2 {
        opacity: .1;
      }

      .cls-1, .cls-2, .cls-3 {
        fill: #fcea10;
      }

      .cls-1, .cls-2, .cls-3, .cls-4 {
        stroke: #ffed00;
        stroke-miterlimit: 10;
      }

      .cls-3 {
        stroke-width: .15px;
      }

      .cls-4 {
        fill: #ffde00;
        stroke-width: .1px;
      }
    </style>
  </defs>
  <path class="cls-3" d="m5.45,8.62c.32-1.52.35-1.67,1.68-1.95-1.64-.03-1.58-.59-1.68-2.01-.3,1.98-.66,1.89-1.61,1.98,1.64.28,1.61,1.98,1.61,1.98Z"/>
  <path class="cls-2" d="m5.45,8.62c.32-1.52.35-1.67,1.68-1.95-1.64-.03-1.58-.59-1.68-2.01-.3,1.98-.66,1.89-1.61,1.98,1.64.28,1.61,1.98,1.61,1.98Z"/>
  <path class="cls-1" d="m5.45,8.62c.32-1.52.35-1.67,1.68-1.95-1.64-.03-1.58-.59-1.68-2.01-.3,1.98-.66,1.89-1.61,1.98,1.64.28,1.61,1.98,1.61,1.98Z"/>
  <path class="cls-1" d="m5.45,8.62c.32-1.52.35-1.67,1.68-1.95-1.64-.03-1.58-.59-1.68-2.01-.3,1.98-.66,1.89-1.61,1.98,1.64.28,1.61,1.98,1.61,1.98Z"/>
  <path class="cls-4" d="m5.46,7.85c.2-.93.22-1.02,1.02-1.19-1-.02-.97-.36-1.02-1.23-.18,1.21-.4,1.15-.98,1.21,1,.17.98,1.21.98,1.21Z"/>
</svg>