<?xml version="1.0" encoding="UTF-8"?>
<svg xmlns="http://www.w3.org/2000/svg" viewBox="0 0 1920 5039">
  <defs>
    <style>
      .cls-1 {
        fill: #754c24;
      }

      .cls-1, .cls-2, .cls-3, .cls-4, .cls-5 {
        stroke-width: 0px;
      }

      .cls-2 {
        fill: #39b54a;
      }

      .cls-3 {
        fill: #42210b;
      }

      .cls-4 {
        fill: #a67c52;
      }

      .cls-5 {
        fill: #8c6239;
      }
    </style>
  </defs>
  <g id="Layer_1" data-name="Layer 1">
    <g>
      <g id="Layer_4" data-name="Layer 4">
        <path class="cls-3" d="m1920,1675.14v909.52H0v-798.7c281.19-160.15,379.3,169.52,800.58,226.26,365.69,49.26,399.54-184.61,1044.31-322.06,24.16-5.15,49.18-10.16,75.11-15.02Z"/>
      </g>
      <g id="Layer_3" data-name="Layer 3">
        <path class="cls-1" d="m1442.47,1286.06c197.82,3.91,353.51,10.11,477.53,20.23v905.54c-149.89,13.09-214.37,157.6-377.1,141.76-233.35-22.72-287.55-338.06-514.14-326.42-101.14,5.2-97.62,68.4-220.35,84.94-187.09,25.2-253.68-113.8-466.18-158.22-144.94-30.29-172.19,22.2-342.23,46.45v-686.79c443.39,57.59,298.47-50.1,1442.47-27.5Z"/>
      </g>
      <g id="Layer_2" data-name="Layer 2">
        <path class="cls-5" d="m1920,820.16v962.25c-31.18-30.69-54.08-62.59-75.11-92.25-39.58-55.84-72.56-103.81-141.6-120.98-129.35-32.18-162.63,99.09-343.26,126.57-235.61,35.84-292.84-170.17-569.61-183.2-241-11.34-260.02,141.93-479.67,116.58-152.18-17.57-230.14-101.19-310.75-164.58v-590.83c65.83.42,311.89-6.61,746.95-19.02,570.83-16.29,956.35-27.28,1173.05-34.56Z"/>
      </g>
      <g id="Lag_1" data-name="Lag 1">
        <path class="cls-4" d="m1920,786v341.93c-618.65-68.43-656.67-180.68-1017.16-156.63-432.98,28.9-524.59,200.62-824.43,104.92-24.7-7.89-50.81-17.59-78.41-27.36v-262.85h1920Z"/>
      </g>
    </g>
    <g>
      <g id="Layer_4-2" data-name="Layer 4">
        <path class="cls-3" d="m1920.8,3494.86v-909.52H.8v798.7c281.19,160.15,379.3-169.52,800.58-226.26,365.69-49.26,399.54,184.61,1044.31,322.06,24.16,5.15,49.18,10.16,75.11,15.02Z"/>
      </g>
      <g id="Layer_3-2" data-name="Layer 3">
        <path class="cls-1" d="m1443.27,3883.94c197.82-3.91,353.51-10.11,477.53-20.23v-905.54c-149.89-13.09-214.37-157.6-377.1-141.76-233.35,22.72-287.55,338.06-514.14,326.42-101.14-5.2-97.62-68.4-220.35-84.94-187.09-25.2-253.68,113.8-466.18,158.22-144.94,30.29-172.19-22.2-342.23-46.45v686.79c443.39-57.59,298.47,50.1,1442.47,27.5Z"/>
      </g>
      <g id="Layer_2-2" data-name="Layer 2">
        <path class="cls-5" d="m1920.8,4349.84v-962.25c-31.18,30.69-54.08,62.59-75.11,92.25-39.58,55.84-72.56,103.81-141.6,120.98-129.35,32.18-162.63-99.09-343.26-126.57-235.61-35.84-292.84,170.17-569.61,183.2-241,11.34-260.02-141.93-479.67-116.58-152.18,17.57-230.14,101.19-310.75,164.58v590.83c65.83-.42,311.89,6.61,746.95,19.02,570.83,16.29,956.35,27.28,1173.05,34.56Z"/>
      </g>
      <g id="Lag_1-2" data-name="Lag 1">
        <path class="cls-4" d="m1920.8,4384v-341.93c-618.65,68.43-656.67,180.68-1017.16,156.63-432.98-28.9-524.59-200.62-824.43-104.92-24.7,7.89-50.81,17.59-78.41,27.36v262.85h1920Z"/>
      </g>
    </g>
  </g>
  <g id="Layer_2-3" data-name="Layer 2">
    <path class="cls-2" d="m1145.9,850.3c-49.27,86.96-159.36,183.9-268.03,168.5-45.96-6.52-84.01-32.06-114.28-54.58-15.26,13.42-37.69,23.64-59.73,22.98-6.58-.2-13.86-1.38-20.95-3.53-.11.38-.24.77-.37,1.15-21.58,63.34-134.06,97.14-225.27,83.53-30.02-4.48-62.09-14.75-90.35-28.87-34.33,26.31-80.04,37.99-118.58,35.97-72.92-3.83-145.72-58.11-155.16-128.11-.8-5.95-1.11-11.72-1.01-17.25-24.33,2.99-41.85,3.64-48.37,3.76-95.49,1.68-169.61-70.96-185.34-86.38-171.16-167.73-98.92-557.12,58.45-624.41,6.88-2.93,83.5-35.69,144-2.82,11.02,5.99,20.21,13.45,28.24,21.54,12.03-17.32,28.3-27.3,31.07-28.95,35.7-21.22,79.09-13.96,108.18,5.69,1.96,1.32,37.84,26.36,45.48,63.66,54.28,2.65,109.99,32.47,122.06,71.15,10.65,34.08-13.92,70.62-1.42,77.88,6.88,4,17.49-5.21,28.51-11.33,43.44-24.09,115.42-12.51,143.27,18.25,42.02-18.68,103-33.48,155.3-13.95,51.09,19.09,63.47,59.59,65.07,65.21,5.57,19.72,1.52,38.08-6.56,54.08,13.21,6.11,25.12,13.99,35,23.67,8.2,8.03,14.48,16.78,19.52,25.72,6.31-1.96,12.43-3.23,17.25-4.23,8.07-1.67,52.9-9.84,85.41,21.35,2.62,2.52,12.6,12.1,19.56,26.01,75.44-25.84,190.63,3.53,220.4,68.48,22.92,50.02-10.43,108.9-31.37,145.84Z"/>
    <path class="cls-2" d="m767.92,903.41c49.27,86.96,159.36,183.9,268.03,168.5,45.96-6.52,84.01-32.06,114.28-54.58,15.26,13.42,37.69,23.64,59.73,22.98,6.58-.2,13.86-1.38,20.95-3.53.11.38.24.77.37,1.15,21.58,63.34,134.06,97.14,225.27,83.53,30.02-4.48,62.09-14.75,90.35-28.87,34.33,26.31,80.04,37.99,118.58,35.97,72.92-3.83,145.72-58.11,155.16-128.11.8-5.95,1.11-11.72,1.01-17.25,24.33,2.99,41.85,3.64,48.37,3.76,95.49,1.68,169.61-70.96,185.34-86.38,171.16-167.73,98.92-557.12-58.45-624.41-6.88-2.93-83.5-35.69-144-2.82-11.02,5.99-20.21,13.45-28.24,21.54-12.03-17.32-28.3-27.3-31.07-28.95-35.7-21.22-79.09-13.96-108.18,5.69-1.96,1.32-37.84,26.36-45.48,63.66-54.28,2.65-109.99,32.47-122.06,71.15-10.65,34.08,13.92,70.62,1.42,77.88-6.88,4-17.49-5.21-28.51-11.33-43.44-24.09-115.42-12.51-143.27,18.25-42.02-18.68-103-33.48-155.3-13.95-51.09,19.09-63.47,59.59-65.07,65.21-5.57,19.72-1.52,38.08,6.56,54.08-13.21,6.11-25.12,13.99-35,23.67-8.2,8.03-14.48,16.78-19.52,25.72-6.31-1.96-12.43-3.23-17.25-4.23-8.07-1.67-52.9-9.84-85.41,21.35-2.62,2.52-12.6,12.1-19.56,26.01-75.44-25.84-190.63,3.53-220.4,68.48-22.92,50.02,10.43,108.9,31.37,145.84Z"/>
    <path class="cls-2" d="m1042.69,4218.28c-49.27-86.96-159.36-183.9-268.03-168.5-45.96,6.52-84.01,32.06-114.28,54.58-15.26-13.42-37.69-23.64-59.73-22.98-6.58.2-13.86,1.38-20.95,3.53-.11-.38-.24-.77-.37-1.15-21.58-63.34-134.06-97.14-225.27-83.53-30.02,4.48-62.09,14.75-90.35,28.87-34.33-26.31-80.04-37.99-118.58-35.97-72.92,3.83-145.72,58.11-155.16,128.11-.8,5.95-1.11,11.72-1.01,17.25-24.33-2.99-41.85-3.64-48.37-3.76-95.49-1.68-169.61,70.96-185.34,86.38-171.16,167.73-98.92,557.12,58.45,624.41,6.88,2.93,83.5,35.69,144,2.82,11.02-5.99,20.21-13.45,28.24-21.54,12.03,17.32,28.3,27.3,31.07,28.95,35.7,21.22,79.09,13.96,108.18-5.69,1.96-1.32,37.84-26.36,45.48-63.66,54.28-2.65,109.99-32.47,122.06-71.15,10.65-34.08-13.92-70.62-1.42-77.88,6.88-4,17.49,5.21,28.51,11.33,43.44,24.09,115.42,12.51,143.27-18.25,42.02,18.68,103,33.48,155.3,13.95,51.09-19.09,63.47-59.59,65.07-65.21,5.57-19.72,1.52-38.08-6.56-54.08,13.21-6.11,25.12-13.99,35-23.67,8.2-8.03,14.48-16.78,19.52-25.72,6.31,1.96,12.43,3.23,17.25,4.23,8.07,1.67,52.9,9.84,85.41-21.35,2.62-2.52,12.6-12.1,19.56-26.01,75.44,25.84,190.63-3.53,220.4-68.48,22.92-50.02-10.43-108.9-31.37-145.84Z"/>
    <path class="cls-2" d="m664.71,4165.18c49.27-86.96,159.36-183.9,268.03-168.5,45.96,6.52,84.01,32.06,114.28,54.58,15.26-13.42,37.69-23.64,59.73-22.98,6.58.2,13.86,1.38,20.95,3.53.11-.38.24-.77.37-1.15,21.58-63.34,134.06-97.14,225.27-83.53,30.02,4.48,62.09,14.75,90.35,28.87,34.33-26.31,80.04-37.99,118.58-35.97,72.92,3.83,145.72,58.11,155.16,128.11.8,5.95,1.11,11.72,1.01,17.25,24.33-2.99,41.85-3.64,48.37-3.76,95.49-1.68,169.61,70.96,185.34,86.38,171.16,167.73,98.92,557.12-58.45,624.41-6.88,2.93-83.5,35.69-144,2.82-11.02-5.99-20.21-13.45-28.24-21.54-12.03,17.32-28.3,27.3-31.07,28.95-35.7,21.22-79.09,13.96-108.18-5.69-1.96-1.32-37.84-26.36-45.48-63.66-54.28-2.65-109.99-32.47-122.06-71.15-10.65-34.08,13.92-70.62,1.42-77.88-6.88-4-17.49,5.21-28.51,11.33-43.44,24.09-115.42,12.51-143.27-18.25-42.02,18.68-103,33.48-155.3,13.95-51.09-19.09-63.47-59.59-65.07-65.21-5.57-19.72-1.52-38.08,6.56-54.08-13.21-6.11-25.12-13.99-35-23.67-8.2-8.03-14.48-16.78-19.52-25.72-6.31,1.96-12.43,3.23-17.25,4.23-8.07,1.67-52.9,9.84-85.41-21.35-2.62-2.52-12.6-12.1-19.56-26.01-75.44,25.84-190.63-3.53-220.4-68.48-22.92-50.02,10.43-108.9,31.37-145.84Z"/>
  </g>
</svg>