<?xml version="1.0" encoding="UTF-8"?>
<svg xmlns="http://www.w3.org/2000/svg" viewBox="0 0 1920 5039">
  <defs>
    <style>
      .cls-1 {
        stroke-width: 5px;
      }

      .cls-1, .cls-2, .cls-3, .cls-4, .cls-5 {
        stroke: #231f20;
        stroke-miterlimit: 10;
      }

      .cls-1, .cls-2, .cls-3, .cls-6 {
        fill: #231f20;
      }

      .cls-7 {
        stroke: #93c01f;
        stroke-linecap: round;
        stroke-linejoin: round;
        stroke-width: 24px;
      }

      .cls-7, .cls-4, .cls-5 {
        fill: none;
      }

      .cls-2, .cls-5 {
        stroke-width: 4px;
      }

      .cls-3 {
        stroke-width: 8px;
      }

      .cls-4 {
        stroke-width: 2px;
      }

      .cls-8 {
        fill: #faaf40;
      }

      .cls-8, .cls-9, .cls-10, .cls-11, .cls-12, .cls-13, .cls-6, .cls-14, .cls-15, .cls-16, .cls-17, .cls-18, .cls-19, .cls-20, .cls-21 {
        stroke-width: 0px;
      }

      .cls-9 {
        fill: #78ccda;
      }

      .cls-10 {
        fill: #754c24;
      }

      .cls-11 {
        fill: #7fd0e6;
      }

      .cls-12 {
        fill: #39b54a;
      }

      .cls-13 {
        fill: #42210b;
      }

      .cls-14 {
        fill: #d0d2d3;
      }

      .cls-15 {
        fill: #a67c52;
      }

      .cls-16 {
        fill: #a6a8ab;
      }

      .cls-17 {
        fill: #8c6239;
      }

      .cls-18 {
        fill: #bd1622;
      }

      .cls-19 {
        fill: #fff;
      }

      .cls-20 {
        fill: #ffec00;
      }

      .cls-21 {
        fill: #fff100;
      }
    </style>
  </defs>
  <g id="Layer_1" data-name="Layer 1">
    <g>
      <g id="Layer_4" data-name="Layer 4">
        <path class="cls-13" d="m1920,1675.14v909.52H0v-798.7c281.19-160.15,379.3,169.52,800.58,226.26,365.69,49.26,399.54-184.61,1044.31-322.06,24.16-5.15,49.18-10.16,75.11-15.02Z"/>
      </g>
      <g id="Layer_3" data-name="Layer 3">
        <path class="cls-10" d="m1442.47,1286.06c197.82,3.91,353.51,10.11,477.53,20.23v905.54c-149.89,13.09-214.37,157.6-377.1,141.76-233.35-22.72-287.55-338.06-514.14-326.42-101.14,5.2-97.62,68.4-220.35,84.94-187.09,25.2-253.68-113.8-466.18-158.22-144.94-30.29-172.19,22.2-342.23,46.45v-686.79c443.39,57.59,298.47-50.1,1442.47-27.5Z"/>
      </g>
      <g id="Layer_2" data-name="Layer 2">
        <path class="cls-17" d="m1920,820.16v962.25c-31.18-30.69-54.08-62.59-75.11-92.25-39.58-55.84-72.56-103.81-141.6-120.98-129.35-32.18-162.63,99.09-343.26,126.57-235.61,35.84-292.84-170.17-569.61-183.2-241-11.34-260.02,141.93-479.67,116.58-152.18-17.57-230.14-101.19-310.75-164.58v-590.83c65.83.42,311.89-6.61,746.95-19.02,570.83-16.29,956.35-27.28,1173.05-34.56Z"/>
      </g>
      <g id="Lag_1" data-name="Lag 1">
        <path class="cls-15" d="m1920,786v341.93c-618.65-68.43-656.67-180.68-1017.16-156.63-432.98,28.9-524.59,200.62-824.43,104.92-24.7-7.89-50.81-17.59-78.41-27.36v-262.85h1920Z"/>
      </g>
    </g>
    <g>
      <g id="Layer_4-2" data-name="Layer 4">
        <path class="cls-13" d="m1920.8,3494.86v-909.52H.8v798.7c281.19,160.15,379.3-169.52,800.58-226.26,365.69-49.26,399.54,184.61,1044.31,322.06,24.16,5.15,49.18,10.16,75.11,15.02Z"/>
      </g>
      <g id="Layer_3-2" data-name="Layer 3">
        <path class="cls-10" d="m1443.27,3883.94c197.82-3.91,353.51-10.11,477.53-20.23v-905.54c-149.89-13.09-214.37-157.6-377.1-141.76-233.35,22.72-287.55,338.06-514.14,326.42-101.14-5.2-97.62-68.4-220.35-84.94-187.09-25.2-253.68,113.8-466.18,158.22-144.94,30.29-172.19-22.2-342.23-46.45v686.79c443.39-57.59,298.47,50.1,1442.47,27.5Z"/>
      </g>
      <g id="Layer_2-2" data-name="Layer 2">
        <path class="cls-17" d="m1920.8,4349.84v-962.25c-31.18,30.69-54.08,62.59-75.11,92.25-39.58,55.84-72.56,103.81-141.6,120.98-129.35,32.18-162.63-99.09-343.26-126.57-235.61-35.84-292.84,170.17-569.61,183.2-241,11.34-260.02-141.93-479.67-116.58-152.18,17.57-230.14,101.19-310.75,164.58v590.83c65.83-.42,311.89,6.61,746.95,19.02,570.83,16.29,956.35,27.28,1173.05,34.56Z"/>
      </g>
      <g id="Lag_1-2" data-name="Lag 1">
        <path class="cls-15" d="m1920.8,4384v-341.93c-618.65,68.43-656.67,180.68-1017.16,156.63-432.98-28.9-524.59-200.62-824.43-104.92-24.7,7.89-50.81,17.59-78.41,27.36v262.85h1920Z"/>
      </g>
    </g>
  </g>
  <g id="Layer_3-3" data-name="Layer 3">
    <g>
      <path class="cls-7" d="m318.36,411.05c.38-23.69,1.65-48.71,4.12-74.9,5.62-59.75,16.29-113.26,28.69-159.57"/>
      <path class="cls-18" d="m351.52,143.73c-8.76-15.61-3.85-32.74-3.08-35.3,5.18-17.13,21.85-36.77,35.18-33.55,13.67,3.3,21.36,30,14.48,49.55-6.4,18.21-26.54,33.35-38.15,28.73-4.06-1.62-6.11-5.27-8.44-9.43Z"/>
      <path class="cls-18" d="m363.38,154.94c11.79-14.6,30.36-16.48,33.15-16.73,18.68-1.62,44.28,6.95,46.33,21.18,2.11,14.58-20.88,32.45-42.58,33.36-20.21.85-42.77-12.85-42.79-25.94,0-4.58,2.75-8,5.89-11.88Z"/>
      <path class="cls-18" d="m334.65,175.92c-17.58-3.38-27.51-18.17-28.96-20.42-9.75-15.01-14.01-40.41-2.95-48.53,11.34-8.32,36.7,3.03,47.21,20.89,9.79,16.64,8.37,41.79-2.64,47.68-3.86,2.06-7.97,1.27-12.65.37Z"/>
      <path class="cls-18" d="m372.79,170.46c18.07,5.04,27.16,21.34,28.49,23.81,8.89,16.51,11.17,43.41-1.09,50.94-12.55,7.71-38.07-6.31-47.51-25.87-8.79-18.22-5.15-44.37,6.86-49.57,4.2-1.82,8.43-.64,13.24.7Z"/>
      <path class="cls-18" d="m354.65,188.68c-2.23,18.63-16.97,30.09-19.2,31.78-14.97,11.3-41.21,17.63-50.51,6.67-9.53-11.24.46-38.59,18.35-50.89,16.67-11.46,43.07-11.83,50.04-.76,2.44,3.88,1.92,8.24,1.32,13.19Z"/>
      <path class="cls-20" d="m347.94,139.58c-2.73.96-4.23,3.51-7.24,8.62-2.9,4.93-7.43,12.63-6.08,21.83,1.3,8.91,8.32,20.55,20.57,22.17,11.55,1.52,22.45-6.56,25.27-15.51,5.74-18.17-21.48-40.98-32.52-37.1Z"/>
    </g>
    <g>
      <path class="cls-7" d="m1422.1,571.46c-.38-23.69-1.65-48.71-4.12-74.9-5.62-59.75-16.29-113.26-28.69-159.57"/>
      <path class="cls-18" d="m1388.94,304.15c8.76-15.61,3.85-32.74,3.08-35.3-5.18-17.13-21.85-36.77-35.18-33.55-13.67,3.3-21.36,30-14.48,49.55,6.4,18.21,26.54,33.35,38.15,28.73,4.06-1.62,6.11-5.27,8.44-9.43Z"/>
      <path class="cls-18" d="m1377.08,315.36c-11.79-14.6-30.36-16.48-33.15-16.73-18.68-1.62-44.28,6.95-46.33,21.18-2.11,14.58,20.88,32.45,42.58,33.36,20.21.85,42.77-12.85,42.79-25.94,0-4.58-2.75-8-5.89-11.88Z"/>
      <path class="cls-18" d="m1405.8,336.33c17.58-3.38,27.51-18.17,28.96-20.42,9.75-15.01,14.01-40.41,2.95-48.53-11.34-8.32-36.7,3.03-47.21,20.89-9.79,16.64-8.37,41.79,2.64,47.68,3.86,2.06,7.97,1.27,12.65.37Z"/>
      <path class="cls-18" d="m1367.66,330.87c-18.07,5.04-27.16,21.34-28.49,23.81-8.89,16.51-11.17,43.41,1.09,50.94,12.55,7.71,38.07-6.31,47.51-25.87,8.79-18.22,5.15-44.37-6.86-49.57-4.2-1.82-8.43-.64-13.24.7Z"/>
      <path class="cls-18" d="m1385.8,349.1c2.23,18.63,16.97,30.09,19.2,31.78,14.97,11.3,41.21,17.63,50.51,6.67,9.53-11.24-.46-38.59-18.35-50.89-16.67-11.46-43.07-11.83-50.04-.76-2.44,3.88-1.92,8.24-1.32,13.19Z"/>
      <path class="cls-20" d="m1392.52,299.99c2.73.96,4.23,3.51,7.24,8.62,2.9,4.93,7.43,12.63,6.08,21.83-1.3,8.91-8.32,20.55-20.57,22.17-11.55,1.52-22.45-6.56-25.27-15.51-5.74-18.17,21.48-40.98,32.52-37.1Z"/>
    </g>
    <g>
      <path class="cls-7" d="m586.68,921.94c.38,23.69,1.65,48.71,4.12,74.9,5.62,59.75,16.29,113.26,28.69,159.57"/>
      <path class="cls-18" d="m619.84,1189.26c-8.76,15.61-3.85,32.74-3.08,35.3,5.18,17.13,21.85,36.77,35.18,33.55,13.67-3.3,21.36-30,14.48-49.55-6.4-18.21-26.54-33.35-38.15-28.73-4.06,1.62-6.11,5.27-8.44,9.43Z"/>
      <path class="cls-18" d="m631.7,1178.04c11.79,14.6,30.36,16.48,33.15,16.73,18.68,1.62,44.28-6.95,46.33-21.18,2.11-14.58-20.88-32.45-42.58-33.36-20.21-.85-42.77,12.85-42.79,25.94,0,4.58,2.75,8,5.89,11.88Z"/>
      <path class="cls-18" d="m602.97,1157.07c-17.58,3.38-27.51,18.17-28.96,20.42-9.75,15.01-14.01,40.41-2.95,48.53,11.34,8.32,36.7-3.03,47.21-20.89,9.79-16.64,8.37-41.79-2.64-47.68-3.86-2.06-7.97-1.27-12.65-.37Z"/>
      <path class="cls-18" d="m641.11,1162.53c18.07-5.04,27.16-21.34,28.49-23.81,8.89-16.51,11.17-43.41-1.09-50.94-12.55-7.71-38.07,6.31-47.51,25.87-8.79,18.22-5.15,44.37,6.86,49.57,4.2,1.82,8.43.64,13.24-.7Z"/>
      <path class="cls-18" d="m622.97,1144.31c-2.23-18.63-16.97-30.09-19.2-31.78-14.97-11.3-41.21-17.63-50.51-6.67-9.53,11.24.46,38.59,18.35,50.89,16.67,11.46,43.07,11.83,50.04.76,2.44-3.88,1.92-8.24,1.32-13.19Z"/>
      <path class="cls-20" d="m616.26,1193.41c-2.73-.96-4.23-3.51-7.24-8.62-2.9-4.93-7.43-12.63-6.08-21.83,1.3-8.91,8.32-20.55,20.57-22.17,11.55-1.52,22.45,6.56,25.27,15.51,5.74,18.17-21.48,40.98-32.52,37.1Z"/>
    </g>
  </g>
  <g id="Layer_4-3" data-name="Layer 4">
    <g>
      <path class="cls-14" d="m888.6,483.06c-2.56-.71-4.14,2.92-8.98,5.66-9.93,5.61-21.5.64-21.87,2.15-.27,1.09,5.7,3.95,12.5,5.47,4.57,1.02,17.95,4.01,21.48-1.76,2.3-3.76.04-10.64-3.12-11.52Z"/>
      <path class="cls-8" d="m1025.24,424.36c3.65-2,8.12.06,11.98,1.9,14.91,7.13,21.58,21.26,22.91,24.19.87,1.94,9.29,20.98,2.96,26.04-2.72,2.17-7.96,1.61-10.53-.96-2.95-2.94-.79-6.89-1.96-14.5-.45-2.94-1.75-11.42-7.22-16.15-7.79-6.73-18.04-.69-21.84-6.42-2.68-4.03-.7-11.69,3.71-14.11Z"/>
      <path class="cls-6" d="m1040.32,461.38c-.12.43-.25.85-.39,1.27-2.61,8.29-6.79,15.27-11.9,21.14-7.17,8.24-16.18,14.29-25.25,18.72-13.01,6.35-26.18,9.37-34.3,10.76-3.67.62-6.31.92-7.45,1.03-3.45.35-16.84,1.7-32.5-1.2-14.97-2.77-32.02-9.43-44.43-24.58-2.5-3.04-17.6-21.48-15-44.26.13-1.18.31-2.37.55-3.58,1.65-8.49,5.42-15.12,10.52-21.25,3.19-3.84,6.9-7.48,10.95-11.26,1.34-1.25,2.71-2.51,4.11-3.8,4.53-4.18,9.11-7.72,13.56-10.73,3.91-2.64,7.71-4.87,11.29-6.75,9.33-4.88,17.17-7.38,21.46-8.57.41-.12.79-.22,1.14-.31,7.29-1.94,18.37-4.79,32.8-3.51,7.94.7,30.86,2.72,48.23,20.5,11.5,11.77,18.05,27.88,19.02,44.04.45,7.59-.33,15.19-2.42,22.35Z"/>
      <path class="cls-21" d="m1040.32,461.38c-.12.43-.25.85-.39,1.27-1.94,1.08-4.09,2.17-6.45,3.22-31.06,13.85-60.88,3.87-65.22,2.34-8.88-3.12-28.41-9.99-39.83-29.09-5.98-10-7.6-19.77-8.98-28.12-1.66-10.02-2.95-17.79.64-24.12,9.33-4.88,17.17-7.38,21.46-8.57,0,.29-.01.57-.03.86-.26,3.86-1.9,5.16-3.32,8.98-6.13,16.51,8.09,36.27,10.93,40.22,8.52,11.84,19.31,17.94,25.78,20.89,7.61,2.02,18.21,3.77,30.66,2.54,15.16-1.51,27.66-6.92,37.18-12.79.45,7.59-.33,15.19-2.42,22.35Z"/>
      <path class="cls-21" d="m1028.04,483.79c-7.17,8.24-16.18,14.29-25.25,18.72-39.5-.97-72.01-12.52-89.59-31.55-7.13-7.72-21.29-23.06-23.04-46.08-.48-6.34.07-12,.97-16.7,1.34-1.25,2.71-2.51,4.11-3.8,4.53-4.18,9.11-7.72,13.56-10.73-.79,3.38-1.95,7.59-2.62,12.49-1.27,9.27-.27,17.09.78,22.26,2.75,6.98,7.32,16.04,15.04,24.99,17.3,20.06,39.19,26.55,48.43,28.7,10,1.83,21.91,3.19,35.34,3.12,7.89-.04,15.34-.56,22.28-1.42Z"/>
      <path class="cls-21" d="m968.49,513.27c-3.67.62-6.31.92-7.45,1.03-3.45.35-16.84,1.7-32.5-1.2-4.2-2.01-8.4-4.02-12.6-6.03-7-4.04-15.43-10.01-23.43-18.75-13.63-14.87-20.18-31.34-23.39-44.07.13-1.18.31-2.37.55-3.58,1.65-8.49,5.42-15.12,10.52-21.25-1.08,5.75-1.54,12.76-.17,20.47,2.87,16.2,12.22,26.42,21.09,36.12,6.68,7.3,18.59,18.46,37.1,27.34,5.9,2.92,13.36,5.97,22.26,8.2,2.75.69,5.43,1.25,8.03,1.7Z"/>
      <path class="cls-9" d="m935.08,350.28c.64-8.98,3.75-10.63,2.73-19.14-.82-6.84-3.15-8.43-2.73-13.86.69-9.1,8.01-15.19,8.79-15.82,9.3-7.52,24.05-7.28,32.61,0,6.64,5.65,7.53,13.81,8.59,23.63,1.49,13.76-1.99,24.55-3.71,29.09-2.3,6.08-10.51,27.83-25.19,28.7-4.89.29-8.6-1.85-9.76-2.54-12.66-7.52-11.43-28.67-11.33-30.07Z"/>
      <path class="cls-11" d="m955.38,389.91c.79-1.42,1.22-2.9.78-13.47-.47-11.27-.7-16.91-2.15-22.65-.67-2.68-2.25-8.94-5.66-14.84-.77-1.34-14.88-24.88-37.49-22.65-9.96.98-22.73,7.07-27.34,19.53-3.01,8.14-2.13,17.91,2.54,25.19,6.57,10.26,14.71,6.36,29.49,18.16,12.38,9.89,12.83,17.54,21.87,18.75,6.76.9,14.79-2.28,17.96-8.01Z"/>
      <path class="cls-21" d="m1023.01,418.32c-.5,1.61-1.38,3.3-2.51,4.74-.39.51-.82.98-1.27,1.42-6.77,6.54-19,2.94-24.41,1.37-7.13-2.08-11.66-5.26-18.35-9.96-6.16-4.33-13.8-9.8-19.92-19.53-4.43-7.04-5.03-11.49-5.08-14.25-.04-2.23-.14-8.29,4.1-11.72.14-.11.28-.22.43-.33,1.85-1.34,4.55-2.38,6.35-1.85.31.09.59.23.84.42,1.02.79.96,2.12.78,4.07-.16,1.81-.42,4.14,0,7.06.72,4.98,2.98,8.47,3.91,9.96,1.8,2.89,3.52,4.1,6.51,5.94,2.04,1.26,4.67,2.81,8.33,5.39,2.2,1.55,3.91,2.86,5.26,3.99,4,3.3,4.97,4.94,6.84,6.21,0,0,1.45.91,3.13,1.52,3.3,1.19,8.64.38,13.58-.28,5.01-.68,9.61-1.2,11.21.67.94,1.09.92,3.06.26,5.17Z"/>
      <path class="cls-16" d="m1070.53,475.43c-.06-.24-.14-.48-.23-.72l-1.05-2.67c-1.17-2.97-4.53-4.43-7.51-3.26l-9.15,3.6c-2.97,1.17-4.43,4.53-3.26,7.51l1.05,2.67c.09.24.2.47.33.69l-20.32,8.01,12.67,32.15,60.94-24.01-12.67-32.15-20.8,8.2Zm-16.6,6.54c-.08-.14-.15-.28-.21-.43l-.66-1.68c-.74-1.87.26-4.02,2.23-4.8l6.06-2.39c1.97-.78,4.17.11,4.9,1.99l.66,1.68c.06.15.11.3.14.46l-13.13,5.17Z"/>
      <path class="cls-21" d="m1044.62,403.78c-.08,1.36-.46,5.39-3.12,9.76-1.61,2.65-3.79,6.23-7.62,7.22-1.29.34-2.37.28-3.71-.07-1.3-.33-2.85-.93-5.08-1.69-10.51-3.58-14.85-3.48-14.84-4.69.02-2.7,21.65-.34,28.7-11.91,1.93-3.16,2.66-7.19,3.91-7.03.55.07.98.93,1.29,2.17.42,1.73.59,4.18.47,6.23Z"/>
      <path class="cls-8" d="m995.41,412.57c-18.82-6.9-21.07-7.06-25.19-10.93-8.75-8.24-10.75-19.01-11.23-22.36-2.92-20.42,11.84-35.52,13.86-37.49,15.46-15.02,41.38-18.56,60.73-7.81,14.75,8.19,22.36,23.52,24.21,35.93.57,3.82,1.36,9.56-.88,16.11-1.78,5.21-4.36,7.67-16.01,19.53-13.57,13.82-13.89,14.37-16.01,15.04-5.36,1.69-8.34-.25-29.49-8.01Z"/>
      <path class="cls-8" d="m1043.03,488.94c-5.75,5.7-23.71-4.84-25.53-5.93-.87-.52-2.77-1.69-5.14-3.53-1.27-.99-2.67-2.17-4.13-3.55-4.46-4.24-9.35-10.35-12.14-18.44-1.39-4.04-2.93-8.72-.52-12.12,2.91-4.1,10.75-5.19,14.44-2.06,5.25,4.44-1.92,13.93,3.87,22.44.87,1.29,1.94,2.4,3.11,3.36,1.43,1.18,3.01,2.14,4.56,2.91,3.08,1.53,6.05,2.35,7.55,2.76,7.43,2.03,11.6.34,14.18,3.61,2.25,2.85,2.21,8.12-.26,10.57Z"/>
      <path class="cls-3" d="m996.19,360.62c-1.54-.27-3.51.51-3.91,1.76-.5,1.55,1.9,2.37,3.32,5.86,1.38,3.38.27,5.41,1.95,6.64,1.01.74,2.61.87,3.51.2,1.8-1.34.46-5.54-.2-7.62-.87-2.73-2.02-6.36-4.69-6.83Z"/>
      <path class="cls-3" d="m1021.07,353.48c1.09-1.11,3.15-1.61,4.2-.83,1.3.98-.18,3.03.68,6.7.83,3.55,2.91,4.57,2.25,6.54-.4,1.18-1.62,2.22-2.75,2.19-2.24-.05-3.58-4.25-4.25-6.32-.87-2.73-2.03-6.35-.13-8.29Z"/>
      <path class="cls-5" d="m1006.32,390.75c.56,2.65,2.39,4.63,4.57,4.99,3.21.53,5.52-2.74,5.67-2.96,2.98-4.36.16-11.23.54-11.31.33-.08.74,5.79,4.72,8.72,1.68,1.24,5.11,2.78,7.37,1.06,1.53-1.17,2.11-3.52,1.56-5.96"/>
      <path class="cls-6" d="m1011.33,337.52c-3.47-3.39,2.1-15.52,7.33-23.09,7.72-11.19,22.41-23.63,32.39-20.01,1.93.7,4.79,2.4,4.84,4.41.07,3.01-6.15,6.79-11.37,5.9-3.23-.55-3.72-2.49-6.36-2.54-2.14-.03-4.14,1.21-9.32,7.5-6.52,7.91-9.78,11.87-10.92,16.02-1.76,6.38-.41,11.5-3.07,12.57-1.11.45-2.64.08-3.52-.78Z"/>
      <path class="cls-6" d="m1004.81,338.22c2.97-3.83-4.23-15.07-10.45-21.85-9.19-10.01-25.46-20.3-34.85-15.33-1.81.96-4.41,3.04-4.18,5.04.35,2.99,7.04,5.87,12.08,4.27,3.12-.99,3.34-2.99,5.95-3.39,2.12-.33,4.27.63,10.27,6.14,7.55,6.93,11.33,10.4,13.04,14.35,2.63,6.07,2,11.33,4.78,12.03,1.16.29,2.63-.29,3.37-1.26Z"/>
      <path class="cls-19" d="m1004.06,368.02c-.64-.03-1.36.69-1.41,1.38-.05.69.6.81.85,1.78.27,1.09-.36,1.68.07,2.23.29.37.91.53,1.34.36.93-.38.99-2.32.65-3.62-.12-.44-.55-2.08-1.48-2.13Z"/>
      <path class="cls-19" d="m1018.52,363.77c.45-.29,1.37.02,1.78.57.41.56,0,.92.35,1.84.39,1.02,1.17,1.25,1.16,1.89-.01.43-.38.81-.78.84-.88.07-1.98-1.53-2.43-2.75-.15-.42-.73-1.96-.07-2.39Z"/>
    </g>
    <g>
      <path class="cls-8" d="m400.88,1232.18c-1.15.27-4.6,1.1-6.77,4.16-2.14,3.03-2.04,6.85-1.34,9.17,1.83,6.09,9.59,7.86,17.62,11.16,23.59,9.67,28.39,23.76,37.88,20.41,4.37-1.54,8.09-6.21,8.15-10.59.1-6.76-8.58-7.95-31.21-23.62-9.53-6.59-16.81-12.48-24.33-10.69Z"/>
      <path class="cls-14" d="m303.97,1220.77c-1.34-1.67-4.09-.02-8.55-.5-9.15-.98-14.41-9.67-15.36-8.85-.69.59,1.89,5.26,5.63,9.45,2.52,2.81,9.89,11.06,14.92,8.93,3.28-1.39,5.02-6.96,3.36-9.03Z"/>
      <path class="cls-6" d="m413.69,1277.76c-.28.22-.56.44-.85.65-5.61,4.22-11.62,6.83-17.72,8.29-8.57,2.04-17.32,1.78-25.35.43-11.52-1.94-21.57-6.13-27.55-9.04-2.7-1.31-4.57-2.36-5.37-2.82-2.43-1.39-11.85-6.79-20.76-16.04-8.52-8.84-16.58-21.22-17.62-36.98-.21-3.17-1.47-22.35,10.93-36.08.64-.71,1.32-1.41,2.04-2.09,5.07-4.79,10.65-7.38,16.88-9.01,3.89-1.02,8.04-1.67,12.47-2.25,1.46-.19,2.96-.38,4.48-.57,4.94-.61,9.6-.79,13.93-.68,3.8.1,7.34.42,10.58.87,8.41,1.17,14.73,3.22,18.1,4.45.33.12.62.23.89.33,5.69,2.15,14.3,5.48,23.17,13.09,4.88,4.18,18.97,16.27,22.02,36.09,2.02,13.12-1.24,26.77-8.19,37.82-3.27,5.19-7.35,9.81-12.08,13.53Z"/>
      <path class="cls-21" d="m413.69,1277.76c-.28.22-.56.44-.85.65-1.78-.2-3.71-.49-5.74-.91-26.88-5.49-41.76-26.03-43.89-29.07-4.36-6.22-13.95-19.89-12.48-37.78.77-9.37,4.29-16.54,7.3-22.66,3.61-7.35,6.42-13.06,11.74-15.53,8.41,1.17,14.73,3.22,18.1,4.45-.14.19-.28.37-.43.55-1.98,2.41-3.67,2.49-6.39,4.34-11.77,7.96-11.72,27.6-11.7,31.52.03,11.76,4.24,20.83,7.11,25.8,4.04,4.9,10.18,11.02,18.92,16.05,10.66,6.13,21.4,8.44,30.39,9.06-3.27,5.19-7.35,9.81-12.08,13.53Z"/>
      <path class="cls-21" d="m395.12,1286.7c-8.57,2.04-17.32,1.78-25.35.43-25.46-19.18-41.37-42.01-43.97-62.75-1.05-8.42-3.15-25.12,6.51-41.05,2.66-4.38,5.68-7.84,8.47-10.5,1.46-.19,2.96-.38,4.48-.57,4.94-.61,9.6-.79,13.93-.68-2.11,1.85-4.84,4.06-7.58,6.96-5.18,5.48-8.2,11.08-9.93,14.97-1.47,5.87-2.73,13.96-1.87,23.46,1.93,21.28,13.25,35.81,18.3,41.56,5.7,5.89,12.88,12.38,21.72,18.64,5.2,3.68,10.33,6.83,15.28,9.53Z"/>
      <path class="cls-21" d="m342.21,1278.09c-2.7-1.31-4.57-2.36-5.37-2.82-2.43-1.39-11.85-6.79-20.76-16.04-1.81-3.29-3.63-6.58-5.44-9.87-2.7-5.94-5.42-13.81-6.58-23.3-1.97-16.15,1.47-30.03,5.33-39.89.64-.71,1.32-1.41,2.04-2.09,5.07-4.79,10.65-7.38,16.88-9.01-3.4,3.27-7,7.65-9.72,13.35-5.72,11.98-4.38,23.07-3.12,33.6.95,7.93,3.53,20.84,11.51,35.35,2.5,4.68,5.97,10.19,10.76,15.83,1.48,1.74,2.98,3.37,4.47,4.89Z"/>
      <path class="cls-9" d="m396.78,1155.47c4.63-5.59,7.45-5.21,10.77-11.27,2.67-4.87,1.89-7.01,4.71-10.38,4.72-5.64,12.38-6.21,13.19-6.25,9.63-.57,19.2,6.51,21.4,15.3,1.71,6.82-1.54,12.6-5.45,19.53-5.48,9.73-12.83,15.17-16.09,17.35-4.36,2.91-19.96,13.33-30,7.01-3.35-2.1-4.78-5.25-5.21-6.25-4.78-10.88,5.96-24.17,6.68-25.04Z"/>
      <path class="cls-11" d="m391.5,1191.01c1.19-.56,2.16-1.33,6.84-8.47,4.98-7.62,7.47-11.42,9.22-15.87.82-2.08,2.72-6.92,3.25-12.39.12-1.24,1.91-23.31-13.97-32.46-6.99-4.03-18.23-6.03-27.1-.02-5.8,3.93-9.8,10.75-10.16,17.72-.5,9.81,6.67,11.08,10.82,25.75,3.48,12.3.18,17.53,5.55,22.56,4.01,3.76,10.77,5.44,15.54,3.18Z"/>
      <path class="cls-21" d="m422.54,1241.38c-1.09.82-2.46,1.51-3.87,1.93-.5.15-1,.26-1.49.33-7.51,1.11-13.85-6.99-16.66-10.56-3.7-4.71-5.18-8.92-7.37-15.15-2.01-5.73-4.45-12.91-3.9-22.16.4-6.69,2.09-9.9,3.36-11.74,1.02-1.48,3.8-5.5,8.19-5.76.14,0,.29-.01.44-.01,1.84,0,4.1.57,5.03,1.77.16.2.28.43.35.67.3,1-.37,1.84-1.39,3.04-.96,1.11-2.22,2.52-3.32,4.63-1.87,3.61-2.02,6.95-2.11,8.37-.17,2.74.39,4.34,1.48,6.95.75,1.78,1.75,4.03,2.94,7.44.72,2.05,1.22,3.71,1.58,5.08,1.07,4.04.95,5.57,1.57,7.29,0,0,.52,1.28,1.34,2.46,1.6,2.33,5.49,4.31,9.05,6.19,3.61,1.91,6.86,3.72,7.04,5.7.1,1.15-.83,2.44-2.25,3.51Z"/>
      <path class="cls-21" d="m443.54,1241.98c-.69.86-2.83,3.32-6.63,4.94-2.3.98-5.41,2.3-8.39,1.17-1-.38-1.68-.93-2.4-1.79-.7-.83-1.43-1.95-2.54-3.49-5.22-7.28-8.11-9.25-7.54-10.04,1.28-1.76,14.36,9.94,24.42,5.66,2.75-1.17,5.12-3.47,5.86-2.78.33.3.21,1.07-.17,2.03-.53,1.33-1.57,3.02-2.61,4.31Z"/>
      <path class="cls-8" d="m407.14,1224.65c-9.11-13.36-10.51-14.52-11.39-19-1.88-9.51,1.87-17.51,3.13-19.94,7.67-14.77,24.44-17.75,26.69-18.09,17.2-2.6,35.86,7.25,43.51,23.38,5.83,12.3,3.63,25.92-.98,34.94-1.42,2.77-3.59,6.91-8.14,10.16-3.61,2.58-6.46,2.98-19.67,5.3-15.39,2.69-15.85,2.91-17.56,2.35-4.31-1.41-5.36-4.08-15.59-19.09Z"/>
      <path class="cls-3" d="m432.02,1190.94c-.88-.9-2.54-1.31-3.39-.68-1.05.78.13,2.44-.57,5.4-.68,2.86-2.36,3.68-1.83,5.27.32.96,1.3,1.8,2.21,1.78,1.81-.04,2.9-3.42,3.45-5.09.71-2.2,1.66-5.12.13-6.68Z"/>
      <path class="cls-3" d="m451.7,1197.93c1.24-.22,2.83.42,3.15,1.43.4,1.25-1.54,1.9-2.69,4.72-1.12,2.72-.24,4.37-1.59,5.35-.82.59-2.1.7-2.84.15-1.45-1.09-.36-4.47.18-6.14.71-2.2,1.65-5.12,3.8-5.5Z"/>
      <path class="cls-5" d="m424.53,1215.46c-.88,2-.61,4.16.65,5.42,1.86,1.85,4.91.79,5.11.72,4-1.46,5.38-7.29,5.66-7.17.25.11-2.23,4.15-1,7.94.52,1.6,2.05,4.22,4.33,4.16,1.55-.04,3.03-1.32,3.82-3.18"/>
      <path class="cls-6" d="m452.8,1182.89c-.69-3.85,8.66-9.19,15.64-11.71,10.32-3.72,25.79-4.98,30.64,2.08.94,1.36,2.02,3.82,1.1,5.16-1.37,2.01-7.23,1.57-10.23-1.47-1.86-1.88-1.27-3.38-2.98-4.65-1.39-1.03-3.29-1.15-9.64.55-7.99,2.13-11.99,3.2-14.69,5.38-4.15,3.36-5.66,7.35-7.91,6.81-.94-.23-1.77-1.19-1.94-2.16Z"/>
      <path class="cls-6" d="m448.19,1180.28c3.75-1.12,4.3-11.88,3.4-19.24-1.33-10.88-7.18-25.27-15.67-26.41-1.64-.22-4.32-.08-5.11,1.34-1.18,2.13,1.86,7.16,5.92,8.47,2.52.81,3.59-.39,5.49.56,1.54.78,2.5,2.42,3.86,8.85,1.7,8.09,2.55,12.14,1.82,15.53-1.13,5.22-4.01,8.37-2.51,10.14.63.74,1.86,1.04,2.8.76Z"/>
      <path class="cls-19" d="m433.72,1199.49c-.4-.32-1.22-.19-1.57.24-.36.43.02.81-.28,1.57-.33.84-1.02.93-1,1.49.02.38.35.77.71.86.79.19,1.74-1.06,2.12-2.07.13-.35.62-1.62.03-2.1Z"/>
      <path class="cls-19" d="m445.2,1203.48c.43.02.89.65.9,1.21,0,.56-.43.6-.63,1.37-.22.85.18,1.37-.13,1.78-.21.28-.63.36-.91.19-.61-.37-.58-1.93-.3-2.95.1-.35.45-1.63,1.07-1.6Z"/>
      <path class="cls-8" d="m391.61,1236.97c-1.32.02-5.26.09-8.35,2.89-3.05,2.78-3.86,6.96-3.66,9.64.52,7.06,8.53,10.84,16.47,16.35,23.31,16.16,25.15,32.62,36.25,31.26,5.12-.63,10.28-4.81,11.4-9.55,1.73-7.32-7.41-10.7-28.24-33.14-8.77-9.45-15.27-17.59-23.86-17.45Z"/>
    </g>
    <g>
      <path class="cls-8" d="m1496.55,197.2c.78.19,3.11.74,4.58,2.81,1.45,2.05,1.38,4.63.91,6.2-1.23,4.12-6.48,5.32-11.92,7.54-15.95,6.53-19.2,16.06-25.61,13.8-2.96-1.04-5.47-4.2-5.51-7.16-.07-4.57,5.8-5.38,21.1-15.97,6.44-4.46,11.37-8.44,16.45-7.23Z"/>
      <path class="cls-14" d="m1562.06,189.49c.91-1.13,2.76-.02,5.78-.34,6.18-.66,9.74-6.54,10.38-5.99.46.4-1.28,3.56-3.81,6.39-1.7,1.9-6.69,7.47-10.09,6.04-2.22-.94-3.39-4.71-2.27-6.1Z"/>
      <path class="cls-6" d="m1487.88,228.02c.19.15.38.3.57.44,3.79,2.85,7.86,4.62,11.98,5.6,5.8,1.38,11.71,1.21,17.14.29,7.79-1.31,14.59-4.15,18.63-6.11,1.82-.89,3.09-1.59,3.63-1.9,1.64-.94,8.01-4.59,14.04-10.84,5.76-5.98,11.21-14.34,11.91-25,.14-2.14.99-15.11-7.39-24.39-.43-.48-.89-.95-1.38-1.41-3.42-3.24-7.2-4.99-11.41-6.09-2.63-.69-5.44-1.13-8.43-1.52-.99-.13-2-.26-3.03-.38-3.34-.41-6.49-.54-9.42-.46-2.57.07-4.97.29-7.15.59-5.69.79-9.96,2.18-12.24,3.01-.22.08-.42.15-.6.22-3.85,1.45-9.67,3.71-15.67,8.85-3.3,2.83-12.83,11-14.89,24.4-1.37,8.87.84,18.1,5.54,25.57,2.21,3.51,4.97,6.63,8.17,9.15Z"/>
      <path class="cls-21" d="m1487.88,228.02c.19.15.38.3.57.44,1.2-.14,2.51-.33,3.88-.62,18.17-3.71,28.23-17.6,29.67-19.66,2.95-4.2,9.43-13.45,8.44-25.55-.52-6.33-2.9-11.18-4.94-15.32-2.44-4.97-4.34-8.83-7.94-10.5-5.69.79-9.96,2.18-12.24,3.01.09.13.19.25.29.37,1.34,1.63,2.48,1.69,4.32,2.93,7.96,5.38,7.92,18.66,7.91,21.31-.02,7.95-2.87,14.09-4.8,17.45-2.73,3.31-6.88,7.45-12.79,10.85-7.2,4.14-14.47,5.71-20.55,6.12,2.21,3.51,4.97,6.63,8.17,9.15Z"/>
      <path class="cls-21" d="m1500.44,234.06c5.8,1.38,11.71,1.21,17.14.29,17.22-12.97,27.97-28.41,29.73-42.42.71-5.69,2.13-16.98-4.4-27.75-1.8-2.96-3.84-5.3-5.73-7.1-.99-.13-2-.26-3.03-.38-3.34-.41-6.49-.54-9.42-.46,1.42,1.25,3.27,2.75,5.13,4.71,3.5,3.71,5.54,7.49,6.72,10.12,1,3.97,1.84,9.44,1.26,15.86-1.31,14.39-8.96,24.21-12.37,28.1-3.86,3.98-8.71,8.37-14.69,12.6-3.51,2.49-6.98,4.62-10.33,6.44Z"/>
      <path class="cls-21" d="m1536.21,228.24c1.82-.89,3.09-1.59,3.63-1.9,1.64-.94,8.01-4.59,14.04-10.84,1.23-2.22,2.45-4.45,3.68-6.67,1.82-4.02,3.67-9.34,4.45-15.75,1.33-10.92-.99-20.31-3.61-26.97-.43-.48-.89-.95-1.38-1.41-3.42-3.24-7.2-4.99-11.41-6.09,2.3,2.21,4.73,5.17,6.57,9.03,3.87,8.1,2.96,15.6,2.11,22.72-.65,5.36-2.39,14.09-7.78,23.9-1.69,3.17-4.03,6.89-7.27,10.7-1,1.18-2.01,2.28-3.02,3.3Z"/>
      <path class="cls-9" d="m1499.32,145.33c-3.13-3.78-5.04-3.52-7.28-7.62-1.81-3.29-1.28-4.74-3.19-7.02-3.19-3.82-8.37-4.2-8.92-4.23-6.51-.38-12.98,4.4-14.47,10.35-1.15,4.61,1.04,8.52,3.69,13.21,3.7,6.58,8.67,10.26,10.88,11.73,2.95,1.97,13.49,9.01,20.28,4.74,2.26-1.42,3.23-3.55,3.53-4.22,3.23-7.36-4.03-16.34-4.52-16.93Z"/>
      <path class="cls-11" d="m1502.89,169.36c-.8-.38-1.46-.9-4.62-5.73-3.37-5.15-5.05-7.72-6.23-10.73-.55-1.4-1.84-4.68-2.2-8.38-.08-.84-1.29-15.76,9.44-21.94,4.73-2.72,12.33-4.07,18.32-.01,3.92,2.66,6.62,7.27,6.87,11.98.34,6.63-4.51,7.49-7.32,17.41-2.36,8.31-.12,11.85-3.75,15.26-2.71,2.54-7.28,3.68-10.51,2.15Z"/>
      <path class="cls-21" d="m1481.9,203.42c.73.55,1.66,1.02,2.62,1.31.34.1.67.18,1.01.23,5.08.75,9.36-4.72,11.26-7.14,2.5-3.18,3.5-6.03,4.98-10.24,1.36-3.88,3.01-8.73,2.64-14.98-.27-4.53-1.42-6.69-2.27-7.93-.69-1-2.57-3.72-5.54-3.9-.1,0-.19,0-.29,0-1.25,0-2.78.39-3.4,1.19-.11.14-.19.29-.24.45-.2.67.25,1.25.94,2.05.65.75,1.5,1.7,2.24,3.13,1.26,2.44,1.37,4.7,1.43,5.66.12,1.85-.26,2.93-1,4.7-.51,1.2-1.18,2.73-1.99,5.03-.49,1.39-.82,2.51-1.07,3.44-.73,2.73-.64,3.77-1.06,4.93,0,0-.35.86-.91,1.67-1.08,1.58-3.71,2.91-6.12,4.18-2.44,1.29-4.64,2.52-4.76,3.86-.07.78.56,1.65,1.52,2.37Z"/>
      <path class="cls-21" d="m1467.7,203.83c.47.58,1.91,2.24,4.48,3.34,1.55.66,3.66,1.56,5.67.79.68-.26,1.14-.63,1.62-1.21.47-.56.97-1.32,1.72-2.36,3.53-4.92,5.48-6.26,5.1-6.79-.87-1.19-9.71,6.72-16.51,3.82-1.86-.79-3.46-2.34-3.96-1.88-.22.21-.14.73.12,1.37.36.9,1.06,2.04,1.77,2.91Z"/>
      <path class="cls-8" d="m1492.32,192.11c6.16-9.03,7.11-9.82,7.7-12.84,1.27-6.43-1.26-11.84-2.11-13.48-5.18-9.99-16.52-12-18.05-12.23-11.63-1.76-24.25,4.9-29.42,15.8-3.94,8.31-2.46,17.53.66,23.62.96,1.88,2.43,4.67,5.5,6.87,2.44,1.75,4.37,2.02,13.3,3.58,10.41,1.82,10.72,1.97,11.87,1.59,2.92-.95,3.62-2.76,10.54-12.91Z"/>
      <path class="cls-1" d="m1475.49,169.32c.59-.61,1.72-.89,2.29-.46.71.53-.09,1.65.39,3.65.46,1.94,1.6,2.49,1.24,3.56-.21.65-.88,1.21-1.5,1.2-1.22-.03-1.96-2.31-2.33-3.44-.48-1.49-1.12-3.46-.09-4.52Z"/>
      <path class="cls-1" d="m1462.19,174.04c-.84-.15-1.91.28-2.13.97-.27.85,1.04,1.29,1.82,3.19.76,1.84.16,2.95,1.08,3.62.55.4,1.42.47,1.92.1.98-.74.24-3.02-.12-4.15-.48-1.49-1.11-3.46-2.57-3.72Z"/>
      <path class="cls-4" d="m1480.56,185.89c.59,1.35.41,2.81-.44,3.66-1.26,1.25-3.32.54-3.45.49-2.71-.99-3.63-4.93-3.83-4.85-.17.07,1.51,2.8.67,5.37-.35,1.08-1.39,2.85-2.93,2.81-1.05-.03-2.05-.89-2.58-2.15"/>
      <path class="cls-6" d="m1461.44,163.87c.46-2.6-5.86-6.22-10.58-7.92-6.97-2.51-17.44-3.37-20.72,1.4-.63.92-1.36,2.58-.75,3.49.92,1.36,4.89,1.06,6.92-.99,1.26-1.27.86-2.29,2.02-3.14.94-.7,2.22-.77,6.51.37,5.4,1.44,8.1,2.16,9.93,3.64,2.81,2.27,3.83,4.97,5.35,4.6.64-.15,1.2-.8,1.31-1.46Z"/>
      <path class="cls-6" d="m1464.56,162.11c-2.53-.76-2.91-8.03-2.3-13.01.9-7.36,4.86-17.08,10.6-17.86,1.11-.15,2.92-.05,3.45.91.8,1.44-1.26,4.84-4,5.73-1.7.55-2.43-.26-3.71.38-1.04.53-1.69,1.63-2.61,5.98-1.15,5.47-1.72,8.21-1.23,10.5.76,3.53,2.71,5.66,1.7,6.85-.42.5-1.26.7-1.9.51Z"/>
      <path class="cls-19" d="m1474.34,175.09c.27-.22.82-.13,1.06.16.24.29-.01.55.19,1.06.23.57.69.63.68,1.01-.01.26-.23.52-.48.58-.53.13-1.18-.72-1.43-1.4-.09-.23-.42-1.1-.02-1.42Z"/>
      <path class="cls-19" d="m1466.58,177.8c-.29.01-.6.44-.61.82,0,.38.29.41.43.93.15.58-.12.93.09,1.2.14.19.42.24.62.13.41-.25.39-1.31.2-1.99-.06-.24-.3-1.1-.73-1.08Z"/>
      <path class="cls-8" d="m1502.81,200.43c.89.01,3.56.06,5.65,1.96,2.06,1.88,2.61,4.7,2.47,6.52-.35,4.77-5.77,7.33-11.14,11.05-15.76,10.93-17,22.06-24.51,21.14-3.46-.42-6.95-3.25-7.7-6.45-1.17-4.95,5.01-7.23,19.1-22.41,5.93-6.39,10.32-11.9,16.14-11.8Z"/>
    </g>
    <g>
      <path class="cls-14" d="m1579.7,1279.66c1.52-.2,2.13,2,4.68,3.96,5.23,4,12.24,2.09,12.33,2.98.06.65-3.57,1.8-7.58,2.12-2.69.22-10.58.85-12.14-2.73-1.02-2.34.83-6.09,2.71-6.34Z"/>
      <path class="cls-8" d="m1506.28,1235.14c-1.93-1.44-4.65-.62-7,.13-9.1,2.88-14.05,10.42-15.04,11.99-.65,1.04-6.99,11.25-3.78,14.65,1.38,1.46,4.42,1.56,6.1.3,1.92-1.44,1.01-3.87,2.28-8.14.49-1.65,1.92-6.39,5.42-8.65,4.99-3.22,10.37,1.05,13-1.92,1.85-2.09,1.34-6.63-.99-8.36Z"/>
      <path class="cls-6" d="m1494.69,1255.1c.04.25.08.51.12.76.83,4.95,2.66,9.28,5.11,13.04,3.44,5.29,8.1,9.47,12.94,12.73,6.93,4.68,14.21,7.46,18.75,8.9,2.05.65,3.53,1.03,4.17,1.19,1.94.48,9.49,2.32,18.68,1.92,8.78-.38,19.06-2.82,27.37-10.49,1.67-1.54,11.78-10.87,12.12-24.1.02-.69.01-1.38-.03-2.09-.26-4.98-1.89-9.08-4.31-13-1.52-2.45-3.35-4.83-5.36-7.32-.66-.82-1.35-1.65-2.04-2.5-2.26-2.75-4.59-5.15-6.89-7.22-2.02-1.82-4.02-3.4-5.92-4.76-4.94-3.54-9.23-5.59-11.58-6.62-.23-.1-.44-.19-.63-.27-4.01-1.69-10.12-4.21-18.47-4.64-4.59-.24-17.86-.92-29.22,7.85-7.52,5.81-12.56,14.49-14.4,23.65-.87,4.3-1.03,8.71-.41,12.97Z"/>
      <path class="cls-21" d="m1494.69,1255.1c.04.25.08.51.12.76,1.02.77,2.17,1.57,3.43,2.36,16.65,10.41,34.49,7.09,37.1,6.57,5.33-1.07,17.04-3.43,25.11-13.44,4.22-5.24,5.93-10.69,7.39-15.36,1.75-5.59,3.11-9.94,1.57-13.84-4.94-3.54-9.23-5.59-11.58-6.62-.02.16-.04.33-.05.49-.16,2.23.67,3.1,1.18,5.4,2.18,9.93-7.54,20.09-9.48,22.12-5.82,6.08-12.48,8.71-16.41,9.88-4.51.55-10.71.7-17.73-1.01-8.55-2.08-15.26-6.17-20.23-10.29-.87,4.3-1.03,8.71-.41,12.97Z"/>
      <path class="cls-21" d="m1499.92,1268.89c3.44,5.29,8.1,9.47,12.94,12.73,22.66,2.61,42.18-1.38,53.75-10.86,4.7-3.84,14.02-11.47,16.87-24.5.78-3.58.92-6.87.79-9.62-.66-.82-1.35-1.65-2.04-2.5-2.26-2.75-4.59-5.15-6.89-7.22.18,2,.51,4.49.5,7.35-.02,5.4-1.22,9.79-2.23,12.66-2.13,3.77-5.47,8.58-10.6,13.08-11.5,10.08-24.53,12.04-29.99,12.53-5.86.24-12.79.07-20.46-1.05-4.51-.65-8.73-1.55-12.62-2.6Z"/>
      <path class="cls-21" d="m1531.6,1290.52c2.05.65,3.53,1.03,4.17,1.19,1.94.48,9.49,2.32,18.68,1.92,2.56-.81,5.13-1.62,7.69-2.44,4.33-1.75,9.62-4.49,14.9-8.84,8.99-7.41,14.05-16.3,16.91-23.32.02-.69.01-1.38-.03-2.09-.26-4.98-1.89-9.08-4.31-13,.15,3.37-.14,7.42-1.54,11.72-2.94,9.03-9.11,14.13-14.95,18.96-4.4,3.64-12.11,9.07-23.4,12.65-3.61,1.2-8.12,2.34-13.38,2.9-1.63.17-3.21.28-4.73.33Z"/>
      <path class="cls-9" d="m1563.77,1200.02c.35-5.19-1.29-6.38-.03-11.16,1.02-3.84,2.47-4.57,2.67-7.71.33-5.26-3.36-9.32-3.76-9.75-4.71-5.04-13.17-6.09-18.64-2.62-4.25,2.7-5.41,7.29-6.81,12.82-1.96,7.75-.83,14.2-.21,16.93.83,3.66,3.78,16.75,12.1,18.43,2.77.56,5.07-.37,5.79-.67,7.84-3.29,8.83-15.47,8.89-16.28Z"/>
      <path class="cls-11" d="m1548.98,1221.05c-.34-.88-.47-1.75.63-7.77,1.17-6.41,1.76-9.61,3.04-12.78.6-1.48,2-4.93,4.43-8.03.55-.7,10.5-13.03,23.25-9.94,5.61,1.36,12.43,5.87,14.06,13.36,1.07,4.9-.22,10.41-3.47,14.2-4.58,5.34-8.92,2.46-18.31,8.02-7.87,4.66-8.74,9-14.01,8.96-3.94-.03-8.27-2.49-9.63-6.02Z"/>
      <path class="cls-21" d="m1508.04,1231.87c.16.96.53,2,1.05,2.91.18.32.39.63.61.91,3.35,4.28,10.63,3.2,13.85,2.74,4.24-.62,7.09-2.07,11.29-4.22,3.87-1.98,8.68-4.5,12.95-9.57,3.1-3.67,3.8-6.17,4.05-7.74.2-1.27.74-4.73-1.4-7.03-.07-.07-.14-.15-.22-.22-.95-.91-2.41-1.73-3.48-1.57-.18.03-.36.08-.51.17-.65.37-.72,1.14-.77,2.26-.05,1.05-.09,2.4-.56,4.04-.81,2.79-2.38,4.6-3.03,5.38-1.26,1.51-2.34,2.06-4.2,2.87-1.27.55-2.89,1.23-5.19,2.41-1.38.71-2.46,1.32-3.33,1.86-2.55,1.57-3.24,2.42-4.41,3,0,0-.9.41-1.91.62-1.98.42-4.97-.48-7.74-1.25-2.81-.79-5.4-1.46-6.47-.51-.62.55-.77,1.67-.56,2.93Z"/>
      <path class="cls-16" d="m1465.06,1254.35l-9.82,17.37,32.92,18.62,9.82-17.37-10.98-6.21c.09-.11.17-.24.24-.37l.81-1.44c.91-1.61.34-3.64-1.26-4.55l-4.94-2.79c-1.61-.91-3.64-.34-4.55,1.26l-.81,1.44c-.07.13-.14.26-.19.4l-11.24-6.35Zm13.11,7.41c.03-.08.07-.17.12-.25l.51-.91c.57-1.01,1.9-1.34,2.96-.74l3.27,1.85c1.06.6,1.46,1.91.89,2.92l-.51.91c-.05.08-.1.16-.15.23l-7.09-4.01Z"/>
      <path class="cls-21" d="m1496.85,1221.82c-.06.79-.17,3.12,1,5.83.71,1.64,1.67,3.86,3.77,4.74.71.3,1.33.35,2.13.26.77-.09,1.7-.3,3.04-.56,6.3-1.2,8.77-.8,8.86-1.49.2-1.54-12.35-1.93-15.46-9.11-.85-1.96-.94-4.32-1.67-4.33-.32,0-.64.45-.91,1.14-.38.95-.67,2.34-.77,3.52Z"/>
      <path class="cls-8" d="m1524.28,1230.79c11.31-2.44,12.62-2.35,15.28-4.23,5.66-4.01,7.67-10,8.21-11.88,3.31-11.44-3.92-21.26-4.92-22.55-7.64-9.83-22.17-13.93-34.09-9.34-9.09,3.5-14.67,11.65-16.72,18.6-.63,2.14-1.54,5.35-.79,9.28.6,3.12,1.88,4.73,7.59,12.45,6.65,8.99,6.79,9.33,7.95,9.88,2.93,1.4,4.79.53,17.5-2.21Z"/>
      <path class="cls-8" d="m1490.93,1270.64c2.83,3.72,13.94-.87,15.07-1.34.54-.23,1.72-.74,3.22-1.61.81-.46,1.7-1.03,2.64-1.7,2.89-2.07,6.18-5.17,8.42-9.57,1.12-2.2,2.37-4.75,1.27-6.89-1.33-2.58-5.73-3.83-8.09-2.34-3.36,2.12-.02,8.12-4.01,12.52-.6.67-1.3,1.22-2.05,1.67-.91.56-1.89.98-2.84,1.3-1.88.63-3.65.86-4.54.97-4.41.57-6.66-.73-8.4.93-1.52,1.45-1.92,4.47-.7,6.07Z"/>
      <path class="cls-3" d="m1528,1201.03c.9-.03,1.96.57,2.09,1.32.16.93-1.27,1.2-2.37,3.08-1.06,1.82-.59,3.07-1.65,3.64-.64.34-1.56.29-2.03-.17-.92-.91.18-3.2.72-4.34.72-1.49,1.66-3.47,3.23-3.53Z"/>
      <path class="cls-3" d="m1514.35,1194.95c-.54-.72-1.67-1.18-2.34-.81-.82.45-.14,1.75-.93,3.77-.76,1.97-2.03,2.38-1.81,3.56.13.71.75,1.4,1.4,1.47,1.29.15,2.39-2.14,2.94-3.27.72-1.49,1.67-3.47.74-4.73Z"/>
      <path class="cls-5" d="m1519.8,1217.44c-.53,1.47-1.74,2.46-3.01,2.49-1.88.05-2.94-2.01-3-2.15-1.36-2.73.81-6.43.6-6.51-.18-.07-.89,3.25-3.4,4.61-1.06.57-3.15,1.18-4.3.02-.78-.79-.92-2.18-.41-3.54"/>
      <path class="cls-6" d="m1521.2,1186.61c2.25-1.66.04-9.04-2.34-13.79-3.52-7.02-10.92-15.3-16.92-14.04-1.16.24-2.93.99-3.12,2.13-.28,1.72,2.97,4.38,6.03,4.28,1.89-.06,2.33-1.13,3.84-.94,1.23.15,2.27,1.03,4.73,5.04,3.09,5.05,4.64,7.57,4.96,10.03.5,3.79-.69,6.61.75,7.44.6.35,1.5.25,2.07-.16Z"/>
      <path class="cls-6" d="m1524.87,1187.53c-1.39-2.43,3.63-8.28,7.73-11.65,6.06-4.99,16.19-9.56,21.15-5.97.96.69,2.28,2.09,1.99,3.22-.44,1.68-4.49,2.79-7.25,1.47-1.71-.82-1.67-1.98-3.13-2.42-1.18-.36-2.49.02-6.36,2.69-4.87,3.36-7.31,5.04-8.6,7.16-1.99,3.26-2.05,6.32-3.7,6.49-.69.07-1.48-.38-1.83-.99Z"/>
      <path class="cls-19" d="m1522.91,1204.63c.37.03.72.5.7.9-.03.4-.41.41-.63.95-.24.6.07.99-.22,1.27-.19.19-.56.23-.79.1-.5-.29-.38-1.41-.08-2.12.1-.24.48-1.15,1.02-1.1Z"/>
      <path class="cls-19" d="m1514.98,1201.04c-.23-.2-.78-.1-1.06.18-.28.28-.07.53-.35,1.02-.31.55-.77.62-.81.99-.03.25.15.5.38.55.5.11,1.25-.72,1.61-1.38.12-.23.57-1.06.23-1.36Z"/>
    </g>
    <g>
      <path class="cls-8" d="m494.02,295.58c-.54.36-2.15,1.45-2.67,3.44-.51,1.97.28,3.91,1.08,4.96,2.12,2.77,6.44,2.18,11.2,2.31,13.98.39,19.16,6.7,23.38,3.14,1.95-1.64,2.95-4.75,2.13-7.01-1.26-3.49-5.94-2.42-20.58-6.08-6.16-1.54-11.04-3.15-14.55-.78Z"/>
      <path class="cls-14" d="m442.1,308.48c-1.01-.6-2.1.78-4.48,1.4-4.88,1.27-9.26-2.18-9.59-1.57-.24.44,1.99,2.34,4.72,3.76,1.84.96,7.21,3.76,9.38,1.69,1.41-1.35,1.23-4.54-.02-5.28Z"/>
      <path class="cls-6" d="m509.42,316.48c-.1.17-.2.33-.31.5-2.06,3.25-4.64,5.75-7.49,7.68-4,2.71-8.54,4.27-12.92,5.13-6.28,1.23-12.26,1.03-15.89.7-1.64-.15-2.8-.33-3.3-.41-1.51-.24-7.39-1.19-13.76-4.21-6.08-2.89-12.61-7.68-16.19-15.56-.72-1.59-5.08-11.18-1.37-20.63.19-.49.4-.98.64-1.47,1.67-3.44,4.04-5.84,6.92-7.89,1.8-1.28,3.8-2.41,5.96-3.57.71-.38,1.44-.77,2.19-1.16,2.41-1.27,4.77-2.26,7.02-3.04,1.97-.69,3.85-1.2,5.6-1.6,4.54-1.02,8.18-1.2,10.15-1.22.19,0,.36,0,.52,0,3.34,0,8.4.05,14.42,2.23,3.31,1.2,12.88,4.68,18.28,14.25,3.57,6.34,4.54,13.97,3.12,20.99-.67,3.3-1.87,6.45-3.58,9.28Z"/>
      <path class="cls-21" d="m509.42,316.48c-.1.17-.2.33-.31.5-.95.24-2,.46-3.12.64-14.85,2.38-26.46-5.28-28.14-6.42-3.44-2.35-11.01-7.5-13.71-16.97-1.42-4.95-1-9.31-.64-13.04.43-4.47.77-7.94,3.02-10.24,4.54-1.02,8.18-1.2,10.15-1.22-.03.12-.07.24-.11.36-.55,1.62-1.4,1.99-2.44,3.46-4.5,6.36-.67,16.43.09,18.44,2.29,6.03,6.21,9.87,8.64,11.86,3.02,1.73,7.35,3.69,12.81,4.57,6.65,1.08,12.61.19,17.35-1.23-.67,3.3-1.87,6.45-3.58,9.28Z"/>
      <path class="cls-21" d="m501.62,324.66c-4,2.71-8.54,4.27-12.92,5.13-16.77-4.91-29.35-13.55-34.7-23.69-2.17-4.11-6.48-12.28-4.6-22.32.52-2.76,1.4-5.12,2.31-7.03.71-.38,1.44-.77,2.19-1.16,2.41-1.27,4.77-2.26,7.02-3.04-.72,1.35-1.7,3.02-2.54,5.04-1.6,3.82-2.06,7.27-2.2,9.6.38,3.29,1.3,7.69,3.58,12.39,5.11,10.54,13.73,15.81,17.43,17.78,4.07,1.92,9,3.86,14.75,5.36,3.38.88,6.62,1.51,9.68,1.93Z"/>
      <path class="cls-21" d="m472.81,330.48c-1.64-.15-2.8-.33-3.3-.41-1.51-.24-7.39-1.19-13.76-4.21-1.57-1.34-3.13-2.67-4.7-4.01-2.53-2.53-5.45-6.04-7.88-10.68-4.13-7.91-5.06-15.69-4.98-21.5.19-.49.4-.98.64-1.47,1.67-3.44,4.04-5.84,6.92-7.89-1.11,2.33-2.11,5.28-2.4,8.73-.62,7.25,2.22,12.69,4.9,17.84,2.02,3.88,5.84,10.01,12.75,15.91,2.19,1.92,5.03,4.07,8.58,6.04,1.1.61,2.18,1.15,3.24,1.64Z"/>
      <path class="cls-9" d="m477.08,257.01c1.3-3.77,2.81-4.12,3.35-7.87.43-3.01-.39-3.96.41-6.24,1.33-3.81,5.15-5.58,5.56-5.76,4.83-2.15,11.11-.37,13.94,3.71,2.2,3.17,1.65,6.76.98,11.08-.93,6.05-3.65,10.27-4.9,12.01-1.67,2.34-7.66,10.7-14.03,9.4-2.12-.43-3.47-1.77-3.88-2.2-4.56-4.66-1.62-13.55-1.42-14.14Z"/>
      <path class="cls-11" d="m481.25,276.27c.5-.52.85-1.1,1.87-5.67,1.08-4.87,1.62-7.31,1.66-9.93.02-1.22.06-4.08-.73-6.99-.18-.66-3.53-12.33-13.45-13.95-4.37-.71-10.52.44-13.91,5.23-2.21,3.14-2.95,7.41-1.78,11.06,1.64,5.13,5.56,4.39,10.54,11.12,4.17,5.64,3.49,8.96,7.21,10.5,2.79,1.15,6.58.71,8.59-1.38Z"/>
      <path class="cls-21" d="m506.92,296.11c-.4.63-.97,1.25-1.61,1.74-.23.17-.46.33-.7.46-3.64,2.02-8.46-.91-10.59-2.19-2.81-1.7-4.39-3.57-6.71-6.35-2.14-2.55-4.78-5.76-6.29-10.61-1.09-3.51-.84-5.48-.55-6.67.24-.96.88-3.56,3.09-4.54.07-.03.14-.06.22-.09.94-.36,2.22-.5,2.92-.07.12.07.23.16.31.27.35.45.17,1.02-.13,1.83-.28.75-.65,1.72-.81,3.02-.26,2.21.31,3.96.54,4.7.44,1.44,1.04,2.15,2.11,3.28.73.77,1.68,1.73,2.95,3.25.77.91,1.34,1.67,1.8,2.3,1.33,1.87,1.56,2.68,2.22,3.43,0,0,.52.55,1.16,1.01,1.27.89,3.65,1.15,5.84,1.43,2.22.28,4.24.58,4.72,1.56.28.57.05,1.41-.48,2.24Z"/>
      <path class="cls-21" d="m517.81,292.35c-.19.57-.81,2.25-2.45,3.82-.99.95-2.33,2.23-4.08,2.22-.59,0-1.04-.15-1.58-.45-.52-.29-1.11-.72-1.98-1.3-4.09-2.73-5.95-3.18-5.81-3.69.32-1.15,9.29,2.32,13.62-1.82,1.18-1.13,1.95-2.77,2.47-2.56.23.09.31.51.3,1.07-.02.79-.22,1.86-.51,2.72Z"/>
      <path class="cls-8" d="m495.78,290.51c-7.26-5.09-8.2-5.42-9.52-7.54-2.8-4.52-2.43-9.35-2.25-10.83,1.08-9.06,9.1-13.84,10.19-14.45,8.32-4.66,19.8-3.22,26.85,3.57,5.37,5.18,6.88,12.6,6.26,18.11-.19,1.7-.51,4.24-2.21,6.79-1.35,2.02-2.74,2.78-9.07,6.52-7.37,4.36-7.57,4.56-8.56,4.6-2.49.11-3.54-1.06-11.69-6.78Z"/>
      <path class="cls-2" d="m502.03,268.39c-.63-.29-1.56-.18-1.87.31-.39.61.54,1.23.75,2.88.2,1.6-.5,2.35.08,3.06.35.43,1.01.67,1.48.48.92-.37.83-2.32.78-3.28-.06-1.27-.14-2.95-1.23-3.45Z"/>
      <path class="cls-2" d="m513.47,268.17c.59-.35,1.53-.33,1.89.12.45.57-.42,1.27-.47,2.94-.05,1.61.72,2.29.22,3.05-.3.46-.94.77-1.43.62-.95-.28-1.05-2.22-1.1-3.19-.06-1.27-.15-2.95.89-3.56Z"/>
      <path class="cls-4" d="m502.92,282.42c-.06,1.2.49,2.25,1.38,2.65,1.31.59,2.67-.54,2.76-.62,1.77-1.52,1.35-4.78,1.52-4.77.15,0-.34,2.56,1.02,4.26.58.72,1.87,1.77,3.03,1.29.79-.32,1.3-1.26,1.35-2.37"/>
      <path class="cls-6" d="m511.13,260.24c-1.1-1.84,2.67-6.39,5.76-9.03,4.57-3.9,12.27-7.55,16.12-4.86.74.52,1.77,1.57,1.56,2.44-.31,1.29-3.4,2.2-5.53,1.23-1.32-.6-1.31-1.49-2.43-1.81-.91-.26-1.91.05-4.84,2.15-3.69,2.64-5.53,3.96-6.49,5.6-1.48,2.53-1.48,4.87-2.74,5.03-.53.07-1.14-.27-1.41-.73Z"/>
      <path class="cls-6" d="m508.26,259.8c1.7-1.3-.09-6.92-1.98-10.53-2.79-5.33-8.57-11.57-13.15-10.52-.88.2-2.23.8-2.36,1.68-.19,1.32,2.34,3.31,4.68,3.2,1.45-.07,1.77-.9,2.93-.77.94.1,1.75.76,3.69,3.79,2.44,3.82,3.66,5.74,3.94,7.62.43,2.9-.44,5.07.67,5.69.46.26,1.16.17,1.59-.15Z"/>
      <path class="cls-19" d="m504.55,272.45c-.27-.09-.66.14-.76.43-.1.29.17.41.16.86,0,.5-.35.68-.22.96.08.19.33.33.53.3.44-.06.69-.88.69-1.47,0-.2,0-.95-.39-1.08Z"/>
      <path class="cls-19" d="m511.21,272.28c.23-.07.58.16.7.45.11.28-.11.39-.06.82.05.48.36.67.28.94-.05.18-.25.31-.43.27-.38-.07-.67-.88-.73-1.45-.02-.2-.09-.92.24-1.03Z"/>
      <path class="cls-8" d="m490.19,299.83c-.67.27-2.68,1.06-3.72,3.1-1.03,2.01-.63,4.32-.01,5.65,1.63,3.52,6.47,3.91,11.61,5.2,15.09,3.78,19.21,11.87,24.65,9.02,2.51-1.31,4.34-4.46,4-7.1-.53-4.09-5.87-4.06-20.9-11.54-6.33-3.15-11.24-6.07-15.62-4.34Z"/>
    </g>
  </g>
  <g id="Layer_2-3" data-name="Layer 2">
    <path class="cls-12" d="m1145.9,850.3c-49.27,86.96-159.36,183.9-268.03,168.5-45.96-6.52-84.01-32.06-114.28-54.58-15.26,13.42-37.69,23.64-59.73,22.98-6.58-.2-13.86-1.38-20.95-3.53-.11.38-.24.77-.37,1.15-21.58,63.34-134.06,97.14-225.27,83.53-30.02-4.48-62.09-14.75-90.35-28.87-34.33,26.31-80.04,37.99-118.58,35.97-72.92-3.83-145.72-58.11-155.16-128.11-.8-5.95-1.11-11.72-1.01-17.25-24.33,2.99-41.85,3.64-48.37,3.76-95.49,1.68-169.61-70.96-185.34-86.38-171.16-167.73-98.92-557.12,58.45-624.41,6.88-2.93,83.5-35.69,144-2.82,11.02,5.99,20.21,13.45,28.24,21.54,12.03-17.32,28.3-27.3,31.07-28.95,35.7-21.22,79.09-13.96,108.18,5.69,1.96,1.32,37.84,26.36,45.48,63.66,54.28,2.65,109.99,32.47,122.06,71.15,10.65,34.08-13.92,70.62-1.42,77.88,6.88,4,17.49-5.21,28.51-11.33,43.44-24.09,115.42-12.51,143.27,18.25,42.02-18.68,103-33.48,155.3-13.95,51.09,19.09,63.47,59.59,65.07,65.21,5.57,19.72,1.52,38.08-6.56,54.08,13.21,6.11,25.12,13.99,35,23.67,8.2,8.03,14.48,16.78,19.52,25.72,6.31-1.96,12.43-3.23,17.25-4.23,8.07-1.67,52.9-9.84,85.41,21.35,2.62,2.52,12.6,12.1,19.56,26.01,75.44-25.84,190.63,3.53,220.4,68.48,22.92,50.02-10.43,108.9-31.37,145.84Z"/>
    <path class="cls-12" d="m767.92,903.41c49.27,86.96,159.36,183.9,268.03,168.5,45.96-6.52,84.01-32.06,114.28-54.58,15.26,13.42,37.69,23.64,59.73,22.98,6.58-.2,13.86-1.38,20.95-3.53.11.38.24.77.37,1.15,21.58,63.34,134.06,97.14,225.27,83.53,30.02-4.48,62.09-14.75,90.35-28.87,34.33,26.31,80.04,37.99,118.58,35.97,72.92-3.83,145.72-58.11,155.16-128.11.8-5.95,1.11-11.72,1.01-17.25,24.33,2.99,41.85,3.64,48.37,3.76,95.49,1.68,169.61-70.96,185.34-86.38,171.16-167.73,98.92-557.12-58.45-624.41-6.88-2.93-83.5-35.69-144-2.82-11.02,5.99-20.21,13.45-28.24,21.54-12.03-17.32-28.3-27.3-31.07-28.95-35.7-21.22-79.09-13.96-108.18,5.69-1.96,1.32-37.84,26.36-45.48,63.66-54.28,2.65-109.99,32.47-122.06,71.15-10.65,34.08,13.92,70.62,1.42,77.88-6.88,4-17.49-5.21-28.51-11.33-43.44-24.09-115.42-12.51-143.27,18.25-42.02-18.68-103-33.48-155.3-13.95-51.09,19.09-63.47,59.59-65.07,65.21-5.57,19.72-1.52,38.08,6.56,54.08-13.21,6.11-25.12,13.99-35,23.67-8.2,8.03-14.48,16.78-19.52,25.72-6.31-1.96-12.43-3.23-17.25-4.23-8.07-1.67-52.9-9.84-85.41,21.35-2.62,2.52-12.6,12.1-19.56,26.01-75.44-25.84-190.63,3.53-220.4,68.48-22.92,50.02,10.43,108.9,31.37,145.84Z"/>
    <path class="cls-12" d="m1042.69,4218.28c-49.27-86.96-159.36-183.9-268.03-168.5-45.96,6.52-84.01,32.06-114.28,54.58-15.26-13.42-37.69-23.64-59.73-22.98-6.58.2-13.86,1.38-20.95,3.53-.11-.38-.24-.77-.37-1.15-21.58-63.34-134.06-97.14-225.27-83.53-30.02,4.48-62.09,14.75-90.35,28.87-34.33-26.31-80.04-37.99-118.58-35.97-72.92,3.83-145.72,58.11-155.16,128.11-.8,5.95-1.11,11.72-1.01,17.25-24.33-2.99-41.85-3.64-48.37-3.76-95.49-1.68-169.61,70.96-185.34,86.38-171.16,167.73-98.92,557.12,58.45,624.41,6.88,2.93,83.5,35.69,144,2.82,11.02-5.99,20.21-13.45,28.24-21.54,12.03,17.32,28.3,27.3,31.07,28.95,35.7,21.22,79.09,13.96,108.18-5.69,1.96-1.32,37.84-26.36,45.48-63.66,54.28-2.65,109.99-32.47,122.06-71.15,10.65-34.08-13.92-70.62-1.42-77.88,6.88-4,17.49,5.21,28.51,11.33,43.44,24.09,115.42,12.51,143.27-18.25,42.02,18.68,103,33.48,155.3,13.95,51.09-19.09,63.47-59.59,65.07-65.21,5.57-19.72,1.52-38.08-6.56-54.08,13.21-6.11,25.12-13.99,35-23.67,8.2-8.03,14.48-16.78,19.52-25.72,6.31,1.96,12.43,3.23,17.25,4.23,8.07,1.67,52.9,9.84,85.41-21.35,2.62-2.52,12.6-12.1,19.56-26.01,75.44,25.84,190.63-3.53,220.4-68.48,22.92-50.02-10.43-108.9-31.37-145.84Z"/>
    <path class="cls-12" d="m664.71,4165.18c49.27-86.96,159.36-183.9,268.03-168.5,45.96,6.52,84.01,32.06,114.28,54.58,15.26-13.42,37.69-23.64,59.73-22.98,6.58.2,13.86,1.38,20.95,3.53.11-.38.24-.77.37-1.15,21.58-63.34,134.06-97.14,225.27-83.53,30.02,4.48,62.09,14.75,90.35,28.87,34.33-26.31,80.04-37.99,118.58-35.97,72.92,3.83,145.72,58.11,155.16,128.11.8,5.95,1.11,11.72,1.01,17.25,24.33-2.99,41.85-3.64,48.37-3.76,95.49-1.68,169.61,70.96,185.34,86.38,171.16,167.73,98.92,557.12-58.45,624.41-6.88,2.93-83.5,35.69-144,2.82-11.02-5.99-20.21-13.45-28.24-21.54-12.03,17.32-28.3,27.3-31.07,28.95-35.7,21.22-79.09,13.96-108.18-5.69-1.96-1.32-37.84-26.36-45.48-63.66-54.28-2.65-109.99-32.47-122.06-71.15-10.65-34.08,13.92-70.62,1.42-77.88-6.88-4-17.49,5.21-28.51,11.33-43.44,24.09-115.42,12.51-143.27-18.25-42.02,18.68-103,33.48-155.3,13.95-51.09-19.09-63.47-59.59-65.07-65.21-5.57-19.72-1.52-38.08,6.56-54.08-13.21-6.11-25.12-13.99-35-23.67-8.2-8.03-14.48-16.78-19.52-25.72-6.31,1.96-12.43,3.23-17.25,4.23-8.07,1.67-52.9,9.84-85.41-21.35-2.62-2.52-12.6-12.1-19.56-26.01-75.44,25.84-190.63-3.53-220.4-68.48-22.92-50.02,10.43-108.9,31.37-145.84Z"/>
  </g>
</svg>