<?xml version="1.0" encoding="UTF-8"?>
<svg id="Oliver" xmlns="http://www.w3.org/2000/svg" viewBox="0 0 6780.92 8205.21">
  <defs>
    <style>
      .cls-1 {
        fill: #999;
      }

      .cls-1, .cls-2, .cls-3, .cls-4, .cls-5, .cls-6, .cls-7, .cls-8, .cls-9, .cls-10, .cls-11, .cls-12, .cls-13, .cls-14, .cls-15, .cls-16, .cls-17, .cls-18, .cls-19, .cls-20 {
        stroke-width: 0px;
      }

      .cls-2 {
        fill: #666;
      }

      .cls-3 {
        fill: #c1272d;
      }

      .cls-4 {
        fill: #f2a744;
      }

      .cls-5 {
        fill: #fcee21;
      }

      .cls-6 {
        fill: #e6e6e6;
      }

      .cls-21 {
        fill: blue;
        stroke: #4d4d4d;
      }

      .cls-21, .cls-22, .cls-23, .cls-24, .cls-25, .cls-26 {
        stroke-miterlimit: 10;
      }

      .cls-21, .cls-24 {
        stroke-width: 7px;
      }

      .cls-8 {
        fill: gray;
      }

      .cls-9 {
        fill: #f7931e;
      }

      .cls-10 {
        fill: #b3b3b3;
      }

      .cls-11 {
        fill: #333;
      }

      .cls-12 {
        fill: #ccc;
      }

      .cls-13 {
        fill: #fff;
      }

      .cls-22 {
        stroke-width: 30px;
      }

      .cls-22, .cls-25 {
        fill: #1a1a1a;
        stroke: #000;
      }

      .cls-14 {
        fill: #f15a24;
      }

      .cls-15 {
        fill: #42210b;
      }

      .cls-23 {
        stroke: #603813;
        stroke-width: 9px;
      }

      .cls-23, .cls-24, .cls-26 {
        fill: none;
      }

      .cls-24, .cls-26 {
        stroke: #b3b3b3;
      }

      .cls-16 {
        fill: #78ccda;
      }

      .cls-17 {
        fill: #603813;
      }

      .cls-18 {
        fill: #faaf40;
      }

      .cls-26 {
        stroke-width: 13px;
      }

      .cls-19 {
        fill: #7fd0e6;
      }

      .cls-20 {
        fill: #f2f2f2;
      }
    </style>
  </defs>
  <path class="cls-16" d="M738.75,1456c-14.93-137.58,27.64-171.02-11.09-296.92-31.12-101.14-70.68-118.86-79.34-202.2-14.49-139.46,79.49-251.62,89.56-263.3,120-139.15,343.81-175.99,493.21-89.36,115.94,67.23,151.71,188.31,194.69,333.81,60.28,204.06,37.11,376.78,23.61,450.21-18.08,98.33-82.68,449.74-302.33,503.17-73.19,17.8-135.18-4.39-154.62-11.64-212.15-79.1-251.37-402.31-253.7-423.78Z"/>
  <g>
    <path class="cls-12" d="M1085.74,1312.37l-671.65,1517.45c-30.14,67.12-59.52,146.45-82.1,237.23-51.03,205.13-46.57,385.16-31.78,512.09,317.47-736.11,634.94-1472.22,952.41-2208.33l-166.89-58.44Z"/>
    <path class="cls-10" d="M1097.96,1385.57c-93.57,190.01-184.06,381.43-271.47,574.25-133.14,293.7-259.12,590.63-377.95,890.79"/>
    <path class="cls-24" d="M1173.13,1354.95c-25.55,56.64-63.68,141.3-109.73,244.06-449.24,1002.44-351.94,826.05-553.66,1283.08-16.41,37.18-58.34,131.89-102.19,262.71-38.43,114.66-62.23,209.02-75.28,264.86"/>
    <path class="cls-7" d="M1113.04,1302.91c-23.58-48.29,26.91-106.48,80.2-193.36,168.87-275.32,145.87-480.01,245.21-490.2,33.05-3.39,67.34,16.01,83.2,40.79,39.89,62.34-45.96,144.51-118.69,321.5-89.23,217.16-59.61,335.93-143.35,367.82-52.96,20.17-125.84-4.08-146.58-46.55Z"/>
    <path class="cls-20" d="M1006.41,1351.19c15.96,28.26,74.91-7.33,151.8,21.12,71.61,26.5,88,82.35,129.57,73.52,25.67-5.45,49.92-33.23,49.86-59.23-.17-76.72-212.1-178.67-297.88-114.02-26.39,19.89-44.72,58.47-33.35,78.6Z"/>
    <g>
      <path class="cls-26" d="M1418.84,671.48c4.84,13.97,12.17,30.6,23.49,47.88,4.98,7.59,10.09,14.33,15.06,20.26"/>
      <path class="cls-26" d="M1463.4,680.91c-10.45,10.46-24.3,22.23-42.03,32.84-7.79,4.66-15.33,8.5-22.4,11.66"/>
    </g>
    <g>
      <path class="cls-26" d="M1379.34,781.47c4.84,13.97,12.17,30.6,23.49,47.88,4.98,7.59,10.09,14.33,15.06,20.26"/>
      <path class="cls-26" d="M1423.9,790.91c-10.45,10.46-24.3,22.23-42.03,32.84-7.79,4.66-15.33,8.5-22.4,11.66"/>
    </g>
    <g>
      <path class="cls-26" d="M1331.9,900.94c4.84,13.97,12.17,30.6,23.49,47.88,4.98,7.59,10.09,14.33,15.06,20.26"/>
      <path class="cls-26" d="M1376.46,910.37c-10.45,10.46-24.3,22.23-42.03,32.84-7.79,4.66-15.33,8.5-22.4,11.66"/>
    </g>
    <g>
      <path class="cls-26" d="M1283.96,1020.55c4.84,13.97,12.17,30.6,23.49,47.88,4.98,7.59,10.09,14.33,15.06,20.26"/>
      <path class="cls-26" d="M1328.52,1029.99c-10.45,10.46-24.3,22.23-42.03,32.84-7.79,4.66-15.33,8.5-22.4,11.66"/>
    </g>
    <g>
      <path class="cls-26" d="M1230.6,1151.46c4.84,13.97,12.17,30.6,23.49,47.88,4.98,7.59,10.09,14.33,15.06,20.26"/>
      <path class="cls-26" d="M1275.15,1160.89c-10.45,10.46-24.3,22.23-42.03,32.84-7.79,4.66-15.33,8.5-22.4,11.66"/>
    </g>
  </g>
  <path class="cls-20" d="M1296.92,3934.21c-29.53,69.66,76.14,168,103,193,140.34,130.6,343.63,143.88,352,121,4.41-12.06-49.87-21.67-103-82-95.26-108.17-45.4-218.8-120-273-69.06-50.17-204.88-22.97-232,41Z"/>
  <path class="cls-7" d="M2103.34,3253.27c-67.49,367.69-333.79,740.62-630.42,766.94-288.66,25.61-520.03-286.75-584-365-126.72-155-189.99-327.03-214.83-495.63-1.42-9.64-2.72-19.26-3.89-28.87-6.59-53.98-9.37-107.48-9.16-159.83.03-8.43.15-16.84.34-25.21,7.45-337.17,134.99-621.28,156.54-667.46,61.15-131.06,181.34-388.65,451-494,136.28-53.24,256.17-46.28,304-43,165.85,11.39,433.81,86.72,503,271,34.95,93.08-3.65,153.14-32.29,284.94-14.08-4.14-29.86-10.25-48.73-18.62-3.59-1.59-7.29-3.26-11.11-5.02-8.68-3.99-17.99-8.42-28.04-13.3-1.69,2.49-2.84,4.49-3.53,5.76-21.24,38.93-10.26,97.19,18.74,137.06,10.54,14.48,23.44,26.54,38.05,34.37.97.52,1.96,1.02,2.95,1.51,2.07,1.01,5.94,2.9,11.14,4.9-.02.26-.04.51-.05.77-6.6,118.48,13.93,211.21,37.76,301.15,2.84,10.71,5.72,21.39,8.61,32.06,22.28,82.26,44.93,164.48,49.5,264.42,3.13,68.44-2.48,139.65-15.58,211.06Z"/>
  <path class="cls-15" d="M2103.34,3253.27c-109.08,27.1-267.79,81.69-492.58,99.72-129.48,10.39-389.69,31.27-677.38-69.08-130.94-45.68-206.66-95.23-259.29-124.33-1.42-9.64-2.72-19.26-3.89-28.87-6.59-53.98-9.37-107.48-9.16-159.83.03-8.43.15-16.84.34-25.21,89.32,42.01,211.45,107.36,397.46,150.7,241.22,56.19,433.86,39,615.08,22.83,170.45-15.2,318.95-46.34,445-76.99,3.13,68.44-2.48,139.65-15.58,211.06Z"/>
  <path class="cls-23" d="M1308.37,3157.76c28.26,3.73,60.38,6.33,95.72,6.45,30.71.1,58.93-1.7,84.21-4.47"/>
  <path class="cls-23" d="M1585.31,3153.02c40.13-2.92,81.5-6.68,124.03-11.44,30.84-3.45,60.95-7.27,90.33-11.4"/>
  <path class="cls-23" d="M1886.69,3115.36c35.69-3.19,76.48-9.22,120.82-20.07,32.87-8.05,62.61-17.51,89.01-27.29"/>
  <path class="cls-23" d="M1751.83,3301.34c35.69-3.19,76.48-9.22,120.82-20.07,32.87-8.05,62.61-17.51,89.01-27.29"/>
  <g>
    <polygon class="cls-1" points="3464.33 2926.4 3463.87 2926.63 2505.75 3403.69 2505.3 3403.9 1390.29 3097.63 1389.74 3097.49 2478.46 2717.03 3464.33 2926.4"/>
    <polygon class="cls-2" points="2505.75 3518.63 1389.75 3216.61 1389.75 3097.66 2505.75 3399.69 2505.75 3518.63"/>
    <polygon class="cls-2" points="3463.87 2926.97 3464.75 3045.92 2505.75 3518.63 2505.75 3399.69 3463.87 2926.97"/>
  </g>
  <path class="cls-4" d="M2524.48,2945.62c-94.17,56.02-196.67-119.17-463.67-199.89-23.83-89.94-44.36-182.67-37.76-301.15,55.82,11.84,109.65,26.11,155.84,38.36,201.4,53.42,346.33,91.86,392.5,217.68,30.27,82.47,19.27,205.64-46.91,245Z"/>
  <path class="cls-19" d="M1241.52,2002.88c8.04-23.67,10.53-47.18-25.11-205.92-37.98-169.2-56.97-253.81-94.56-336.7-17.56-38.72-58.5-129.02-126.31-208.94-15.34-18.08-293.23-335.49-629.11-239.85-147.92,42.12-324.41,169.28-359.96,370.24-23.25,131.43,16.92,276.65,107.42,374.03,127.43,137.12,239.94,55.93,495.72,193.86,214.36,115.6,242.1,230.2,382.14,223.59,104.7-4.94,217.43-75.06,249.77-170.31Z"/>
  <path class="cls-23" d="M673.92,2977.21c7.82,4.05,15.69,8.1,23.63,12.14,11.72,5.97,23.38,11.82,34.96,17.55"/>
  <path class="cls-23" d="M809.78,3039.1c14.01,8.17,29.58,16.35,46.71,24.07,34.96,15.75,67.7,25.67,95.9,32.04"/>
  <path class="cls-23" d="M1033.36,3117.66c23.92,7.27,50.26,14.13,78.85,19.93,36.94,7.49,71.27,11.91,102.16,14.37"/>
  <path class="cls-23" d="M683.92,3138.21c12.99,6.68,26.08,13.35,39.27,20,19.48,9.83,38.85,19.47,58.1,28.93"/>
  <path class="cls-23" d="M856.54,3217.48c18.37,7.31,37.29,14.52,56.75,21.58,32.89,11.93,64.91,22.56,95.9,32.04"/>
  <path class="cls-23" d="M1122.77,3303.98c31.42,7.08,64.66,13.67,99.62,19.5,32.28,5.38,63.38,9.65,93.13,13.02"/>
  <path class="cls-23" d="M1447.9,3330.93c29.03,4.32,66.78,7.04,110.38,2.67,31.68-3.18,59.24-9.37,81.85-16.05"/>
  <path class="cls-6" d="M1864.89,2384.3c-2.27,1.42-4.59,2.73-6.97,3.91-12.64,6.29-23.76,7.61-27.5,7.96-48.05,4.53-103.78-41.97-352-140.46-67.75-26.88-164.47-66.27-237.94-161.23-6.29-8.13-11.38-15.95-16.06-23.77-44.03-73.58-90.57-213.23-21-303,7.09-9.15,38.41-49.57,81.67-58.36-.82,5.29-.68,10.77,1.6,16.35,1.56,3.8,10.02,22.11,57.51,30.31,9.7,1.68,19.62,2.69,29.63,3.15,41.84,128.92,105.4,200.56,151.59,240.55,42.64,36.92,172.55,103.96,315.5,161.5,13.52,5.45,35.49,14.1,52.83,31.99,5.27,5.43,10.12,11.71,14.17,19.01,29.28,52.76,7.18,140.58-43.03,172.09Z"/>
  <path class="cls-6" d="M2126.15,2415.28c-6.76,9.98-16.4,20.05-30.06,27.1-28.32,14.63-56.99,7.55-72.99,1.43-5.2-2-9.07-3.89-11.14-4.9-.99-.49-1.98-.99-2.95-1.51-14.61-7.83-27.51-19.89-38.05-34.37-29-39.87-39.98-98.13-18.74-137.06.69-1.27,1.84-3.27,3.53-5.76,10.05,4.88,19.36,9.31,28.04,13.3,3.82,1.76,7.52,3.43,11.11,5.02,18.87,8.37,34.65,14.48,48.73,18.62-1.96,9.01-3.87,18.35-5.71,28.06-6.03,31.87-10.19,61.95-12.77,90.53,10.81-11.46,23.35-19.29,37.77-21.53,21.22-3.29,45.41,5.71,63.23,21.07Z"/>
  <path class="cls-6" d="M2140.92,2381.21c-.82,3.7-4.41,18.77-14.77,34.07-17.82-15.36-42.01-24.36-63.23-21.07-14.42,2.24-26.96,10.07-37.77,21.53,2.58-28.58,6.74-58.66,12.77-90.53,1.84-9.71,3.75-19.05,5.71-28.06,28.45,8.36,49.96,8.71,76.03,3.58,14.79-2.9,23.47-6.09,53.56-28.97,3.01,8.08,5.16,17.25,5.7,27.45,2.63,49.26-34.49,79.26-38,82Z"/>
  <path class="cls-18" d="M2604.88,1881.55c-31.95,67.8-70.55,97.13-245.99,239.97-90.72,73.85-142.17,116.29-173.94,141.17-4.25,3.33-8.14,6.34-11.73,9.07-30.09,22.88-38.77,26.07-53.56,28.97-38.97,7.67-67.76,3.09-124.76-22.2-3.59-1.59-7.29-3.26-11.11-5.02-8.68-3.99-17.99-8.42-28.04-13.3-11.4-5.55-23.76-11.69-37.23-18.46-46.39-23.3-106.01-54.05-185.58-93.74-244.12-121.76-274.39-127.29-324.21-185.87-105.95-124.6-116.72-273.27-118.15-319.32-8.72-280.64,213.62-462.57,244.03-486.17,231.8-179.88,587.7-188.61,833.12-14.1,187.08,133.04,266.95,351.8,273.32,522.45,1.96,52.51,4.02,131.29-36.17,216.55Z"/>
  <path class="cls-14" d="M1970.96,2403.03c-16.71,3.37-42.07-2.59-77.04-10.82-10.79-2.54-20.53-5.27-29.03-7.91,41.66-26.15,63.97-91.06,53.63-142.55,13.47,6.77,25.83,12.91,37.23,18.46-1.69,2.49-2.84,4.49-3.53,5.76-21.24,38.93-10.26,97.19,18.74,137.06Z"/>
  <path class="cls-9" d="M1997.92,1691.21c14.13,43.85,28.52,77.99,39,101,18.58,40.76,31.07,60.11,22,76-11.8,20.66-50.31,18.34-56,18-33.16-2-55.14-22.16-62-29"/>
  <path class="cls-17" d="M1922.43,1388.04c-29.95-36.48-88.31-60.91-119.32-44.42-38.54,20.5,1.25,85-27.99,182.51-28.33,94.45-89.12,112.16-72.68,170.23,9.88,34.89,43.57,69.93,76.11,74.96,64.29,9.94,108.02-99.71,129.64-153.89,28.48-71.4,66.23-166.05,14.25-229.39Z"/>
  <path class="cls-13" d="M1667.69,1842.67c9.7-9.83,56.29,50.53,155.85,94.79,214.71,95.47,442.89,12.53,452.06,49.83,3,12.23-22.26,18.17-60.7,63.53-53.11,62.67-45.3,99.01-75.83,120.06-60.9,41.99-184.64-38.67-234.06-70.89-150.9-98.36-251.99-242.43-237.31-257.31Z"/>
  <path class="cls-18" d="M2386.7,2798.44v236.59c-49.53,29.22-118.6,35.54-193.16,30.08-19.06-1.39-38.49-3.55-58.04-6.3-86.7-12.18-175.83-35.82-246.91-54.67-201.41-53.42-346.33-91.86-392.51-217.67-30.27-82.48-19.26-205.65,46.91-245.01,100.6-59.84,210.71,144.17,520.69,215,2.63.6,5.27,1.19,7.93,1.77,1.58.35,3.16.69,4.75,1.03,134.02,28.53,242.41,18.81,310.34,39.18Z"/>
  <path class="cls-18" d="M2429.18,2997.8c-11.64,15.23-25.98,27.51-42.48,37.23v-236.59c29.27,8.77,51.02,23.14,64.08,48.55,23.76,46.23,9.2,110.53-21.6,150.81Z"/>
  <path class="cls-22" d="M1337.85,2637.76c-5.43,54.04,10.76,95.67,21.61,122.65,67.43,167.7,261.49,286.4,316.89,245.62,19.1-14.06,7.72-36.78,11.49-112.99,9.66-194.99,94.64-257.41,53.17-359.91-3.92-9.7-25.29-60.08-77.93-90.2-71.98-41.2-150.13-14.59-165.35-9.4-90.16,30.7-151.18,117.66-159.87,204.24Z"/>
  <path class="cls-14" d="M1431.26,2508.42l90.95,18.44c-39.56,42.18-48.91,83.98-51.68,101.66-14.42,92.04,50.16,163.48,69.14,184.47,30.68,33.94,63.49,53.2,84.02,63.4-7.84,32.33-15.67,64.65-23.51,96.98-154.95-83.86-244.25-223.05-224.66-347.21,4.28-27.12,16.44-70.54,55.74-117.75Z"/>
  <path class="cls-17" d="M2266.58,1447.46c-37.93-28.09-100.48-37.58-126.54-14.02-32.39,29.27,21.91,82.14,17.29,183.83-4.48,98.5-59.13,130.49-29.04,182.8,18.08,31.44,59.28,57.22,92.07,54.17,64.77-6.01,80.49-123.01,88.26-180.83,10.24-76.18,23.81-177.18-42.04-225.95Z"/>
  <g>
    <path class="cls-7" d="M2099.93,935.93c-9.8-25.1-23.61-49.33-41.8-69.66-81.93-91.59-246.58-97.13-353.29-72.36-422.65,98.09-561.94,816.8-513.99,838.54,9.86,4.48,41.41-14.33,46.47-6.86,4.05,5.97-15.33,19.25-11.21,28.95,5.84,13.76,49.87-1.08,63.07,16.34,7.91,10.43-1.8,23.77-4.09,38.47-.82,5.29-.68,10.77,1.6,16.35,1.56,3.8,10.02,22.11,57.51,30.31,9.7,1.68,19.62,2.69,29.63,3.15,85.33,3.94,176.97-32.04,189.6-37.11,126.63-50.91,200.03-80.42,282.91-152.93,70.49-61.67,160.81-140.69,170.23-240.91,11.51-122.53,11.23-131.72,11.23-131.72-1.24-40.22-6.71-74.57,14.13-88.85,5.65-3.87,11.39-5,17.12-5.01-2.26-.9-4.37-2.13-6.27-3.82-23.16-20.61-2.97-99.15,47.15-162.88ZM1427.55,1048.03c-87.21,100.03-73.54,225.5-75.24,225.34-1.85-.17-18.43-146.06,78.42-242.67,37.57-37.47,85.66-61.01,87.02-59.33,1.44,1.78-49.84,30.37-90.2,76.66ZM1833.89,1544.81c-44.64,29.97-96.56,44.26-97.53,42.34-1.02-2.01,55.09-20.69,104.34-58.83,106.43-82.41,119.97-208.55,121.61-208.08,1.75.51-13.33,147.31-128.42,224.57ZM2037.85,911.34c-1.7,1.64-38.71-40.3-93.13-69-117.57-62.01-249.19-26.73-249.24-28.33-.06-1.72,152.89-43.37,268.08,28.12,44.68,27.72,75.91,67.65,74.29,69.21Z"/>
    <path class="cls-7" d="M1517.75,971.37c1.44,1.78-49.84,30.37-90.2,76.66-87.21,100.03-73.54,225.5-75.24,225.34-1.85-.17-18.43-146.06,78.42-242.67,37.57-37.47,85.66-61.01,87.02-59.33Z"/>
    <path class="cls-7" d="M1962.31,1320.24c1.75.51-13.33,147.31-128.42,224.57-44.64,29.97-96.56,44.26-97.53,42.34-1.02-2.01,55.09-20.69,104.34-58.83,106.43-82.41,119.97-208.55,121.61-208.08Z"/>
    <path class="cls-7" d="M2037.85,911.34c-1.7,1.64-38.71-40.3-93.13-69-117.57-62.01-249.19-26.73-249.24-28.33-.06-1.72,152.89-43.37,268.08,28.12,44.68,27.72,75.91,67.65,74.29,69.21Z"/>
    <path class="cls-7" d="M2094.84,1102.11c-11.09,5.73-23.4.49-35.79.52-2.26-.9-4.37-2.13-6.27-3.82-23.16-20.61-2.97-99.15,47.15-162.88,28.21,72.11,23.43,151.43-5.09,166.18Z"/>
    <path class="cls-7" d="M2762.87,1808.47c-10.91,2.16-35.59-22.89-42.78-16.79-5.75,4.89,8.89,21.95,1.93,30.42-9.87,12.01-47.83-11.93-65.94,2-14.76,11.36.34,35.05-14.45,53.5-2.67,3.33-16.47,19.16-64.86,16.71-94.12-4.76-189.42-72.12-201.31-80.68-106.64-76.82-168.47-121.35-226.23-209.49-49.12-74.96-112.07-171.01-90.35-269.85,26.55-120.87,29.64-129.68,29.64-129.68,13.56-38.58,29.41-70.56,13.67-88.9-11.53-13.43-29.88-7.75-43.14-13.08-2.26-.9-4.37-2.13-6.27-3.82-23.16-20.61-2.97-99.15,47.15-162.88,17-21.61,37.44-41.52,60.81-56.89,107.29-70.56,268.02-39.96,363.47,7.27,378.06,187.04,291.65,911.62,238.66,922.16Z"/>
    <path class="cls-7" d="M2037.85,911.34c-1.7,1.64-38.71-40.3-93.13-69-117.57-62.01-249.19-26.73-249.24-28.33-.06-1.72,152.89-43.37,268.08,28.12,44.68,27.72,75.91,67.65,74.29,69.21Z"/>
    <path class="cls-7" d="M2759.54,1788.01c1.49,3.64,12.55-14.86,20.27-52.73,17.93-87.91,4.53-214.81,3.93-214.98-.28-.08,2.54,26.71,1.8,70.45-2.08,121.43-28.56,191-26,197.26Z"/>
    <path class="cls-7" d="M1427.55,1048.03c-87.21,100.03-73.54,225.5-75.24,225.34-1.85-.17-18.43-146.06,78.42-242.67,37.57-37.47,85.66-61.01,87.02-59.33,1.44,1.78-49.84,30.37-90.2,76.66Z"/>
    <path class="cls-7" d="M2616.59,977.87c4.22.15-9.12-16.39-42.91-37.58-78.45-49.21-208.75-86.95-209.19-86.51-.2.2,27.31,8.18,69.89,25.73,118.21,48.74,174.95,98.11,182.21,98.36Z"/>
    <path class="cls-7" d="M1833.89,1544.81c-44.64,29.97-96.56,44.26-97.53,42.34-1.02-2.01,55.09-20.69,104.34-58.83,106.43-82.41,119.97-208.55,121.61-208.08,1.75.51-13.33,147.31-128.42,224.57Z"/>
    <path class="cls-7" d="M2288.37,1636.87c-1.78.21,3.07,34.71,22.44,67.96,49.92,85.72,173.87,124.57,174.55,123.61.64-.9-105.78-34.65-161.36-116.12-25.72-37.71-33.75-75.66-35.63-75.44Z"/>
  </g>
  <path class="cls-11" d="M2188.24,1029.7c-33.56-56.79,82.67-196.38,178.15-277.32,141.11-119.62,378.23-230.91,496.57-147.93,22.83,16.01,54.42,48.5,47.89,75.12-9.76,39.81-104.96,67.39-170.33,37.15-40.47-18.72-40.06-45.99-74.54-55.88-28.05-8.05-58.7,1.27-149.06,65.51-113.72,80.84-170.58,121.26-200.35,171.71-45.78,77.58-46.15,149.65-84.91,154.33-16.22,1.96-34.96-8.38-43.42-22.7Z"/>
  <path class="cls-11" d="M1944.87,979.54c45.9-47.38-34.51-210.26-108.43-311.26-109.26-149.28-313.82-312.89-448.27-259.85-25.94,10.23-64.25,34.44-64.12,61.86.19,40.99,86.31,90.05,156.94,75.91,43.73-8.75,49.7-35.35,85.53-36.92,29.15-1.27,56.78,14.95,129.63,98.52,91.68,105.17,137.53,157.75,154.69,213.77,26.39,86.12,9.91,156.29,46.5,169.9,15.31,5.69,35.95.02,47.53-11.93Z"/>
  <path class="cls-13" d="M1854.6,1674.33c-3.52-9.42-13.6-18.36-20.99-17.17-9.18,1.48-5.6,17.22-18.21,34.86-12.21,17.09-25.69,16.47-26.37,29.31-.41,7.71,3.97,17.09,10.18,20.35,12.27,6.43,28.64-12.66,36.72-22.09,10.66-12.43,24.78-28.91,18.67-45.25Z"/>
  <path class="cls-13" d="M2263.45,1761.47c-4.78-8.84-16-16.31-23.15-14.12-8.89,2.73-3.18,17.82-13.24,37.03-9.75,18.6-23.18,19.84-22.09,32.65.65,7.7,6.28,16.39,12.88,18.76,13.04,4.68,26.63-16.47,33.34-26.93,8.85-13.78,20.57-32.04,12.27-47.39Z"/>
  <path class="cls-6" d="M2386.7,3035.03v209.26l-415.74-126.63,164.54-58.85c19.55,2.75,38.98,4.91,58.04,6.3,74.56,5.46,143.63-.86,193.16-30.08Z"/>
  <polygon class="cls-6" points="3035.87 2403.99 3035.87 2956.47 2386.7 3244.29 2386.7 2670.28 3035.87 2403.99"/>
  <path class="cls-8" d="M2386.7,3035.03v181.77l-343.91-101.44,150.75-50.25c74.56,5.46,143.63-.86,193.16-30.08Z"/>
  <polygon class="cls-6" points="2389.92 2670.28 2358.92 2666.21 2358.92 3235.75 2389.92 3244.21 2389.92 2670.28"/>
  <polygon class="cls-6" points="3035.87 2403.99 2985.25 2403.99 2358.92 2666.21 2386.7 2670.28 3035.87 2403.99"/>
  <polygon class="cls-6" points="1970.96 3117.66 1971.33 3153.92 2386.7 3283.56 2386.7 3244.29 1970.96 3117.66"/>
  <polygon class="cls-6" points="3035.87 2956.47 2386.7 3244.29 2386.7 3283.56 3035.87 2983.49 3035.87 2956.47"/>
  <path class="cls-7" d="M1946.61,1948.08c16.06-1.99,28.63-23.69,22.91-30.08-4.64-5.18-17.94,3.46-34.36-2.73-12.02-4.54-11.35-11.61-22.91-19.14-16.04-10.45-25.4-2.1-49.09-9.57-29.23-9.21-28.5-26.2-57.27-31.45-14.03-2.56-16,1.15-29.45-2.73-20.39-5.88-27.37-17.72-37.63-15.04-6.22,1.62-10.96,7.88-9.82,12.31,1.42,5.5,11.23,5.42,22.91,10.94,18.95,8.96,16.21,20.11,32.72,30.08,15.85,9.57,21.71,1.33,42.54,9.57,28.89,11.43,27.6,31.25,52.36,35.55,13.13,2.28,15.06-3.02,31.09,0,20.35,3.83,24.45,13.73,36,12.31Z"/>
  <path class="cls-7" d="M2258.29,1955.68c14.32-7.54,18.4-32.29,10.79-36.24-6.17-3.2-15.56,9.59-33.11,9.59-12.84,0-14.72-6.85-28.2-9.81-18.7-4.11-24.51,7.01-49.3,8.4-30.6,1.72-35.92-14.43-64.69-9.17-14.03,2.56-14.56,6.73-28.52,7.86-21.15,1.71-31.87-6.9-40.52-.76-5.24,3.72-7.46,11.25-4.83,14.98,3.27,4.65,12.42,1.1,25.3,2.13,20.89,1.68,22.27,13.08,41.25,16.57,18.21,3.35,20.78-6.44,43.18-6.09,31.07.48,36.87,19.47,61.55,14.74,13.09-2.51,13.02-8.15,29.08-10.99,20.39-3.61,27.73,4.2,38.02-1.22Z"/>
  <path class="cls-7" d="M2083.92,2207.21c-3.06-1.03-4.79,2.6-10,2-5.42-.63-7.63-5.03-10-4-2.1.92-2.69,5.39-2,9,1.62,8.43,9.66,8.78,13,18,2.39,6.59.04,11.27,2,12,2.53.95,8.56-6.08,11-14,2.94-9.54.96-21.32-4-23Z"/>
  <path class="cls-3" d="M2744.14,2678.16c-14.04-2.84-45.85,57.94-52.59,124.39-5.5,54.17,2.18,146.35,44.64,157.63,30.64,8.14,77.28-26.41,82.85-63.34,5.48-36.31-32.73-48.47-55.84-114.91-20.82-59.89-7.67-101.47-19.06-103.78Z"/>
  <path class="cls-14" d="M2740.92,2705.21c-11.82-2.25-37.97,49.11-43,105-4.1,45.56,3.23,122.92,39,132,25.82,6.55,64.67-22.92,69-54,4.25-30.55-27.96-40.41-48-96-18.06-50.11-7.41-85.17-17-87Z"/>
  <path class="cls-5" d="M2735.72,2740.72c-9.74-1.25-28.48,41.86-29.82,87.62-1.09,37.3,8.71,99.93,38.29,105.55,21.35,4.06,51.53-21.86,53.51-47.38,1.95-25.09-24.77-31.52-43.83-75.79-17.19-39.91-10.25-68.99-18.15-70Z"/>
  <path class="cls-25" d="M2124.92,2541.21c-47.34,91.95-49.49,171.16-53.31,217.02-2.66-.58-5.3-1.17-7.93-1.77-.97-3.57-1.92-7.15-2.87-10.73-23.83-89.94-44.36-182.67-37.76-301.15.01-.26.03-.51.05-.77,16,6.12,44.67,13.2,72.99-1.43,13.66-7.05,23.3-17.12,30.06-27.1,10.33,8.89,18.53,19.93,22.77,31.93,11.52,32.63-8.92,64.71-24,94Z"/>
  <g>
    <rect class="cls-2" x="800.58" y="2935.11" width="264.59" height="454.2" rx="27.39" ry="27.39" transform="translate(693.9 -126.06) rotate(12.28)"/>
    <rect class="cls-2" x="1058.29" y="2762.66" width="39.62" height="216.49" transform="translate(635.26 -163.61) rotate(12.28)"/>
    <rect class="cls-1" x="1042.67" y="2925.41" width="45.28" height="8.49" rx="2" ry="2" transform="translate(647.47 -159.55) rotate(12.28)"/>
    <rect class="cls-1" x="1046.58" y="2907.44" width="45.28" height="8.49" rx="2" ry="2" transform="translate(643.74 -160.79) rotate(12.28)"/>
    <rect class="cls-1" x="1081.79" y="2734.36" width="45.28" height="31.13" transform="translate(610.14 -171.98) rotate(12.28)"/>
    <rect class="cls-11" x="900.31" y="2896.21" width="32.79" height="29.71" transform="translate(640.12 -128.37) rotate(12.28)"/>
    <rect class="cls-11" x="945.7" y="2906.09" width="32.79" height="29.71" transform="translate(643.26 -137.79) rotate(12.28)"/>
    <rect class="cls-21" x="839.87" y="2974.15" width="223.56" height="223.56" transform="translate(678.11 -131.8) rotate(12.28)"/>
    <rect class="cls-11" x="793.81" y="3216.33" width="227.8" height="142.91" transform="translate(720.03 -117.84) rotate(12.28)"/>
    <rect class="cls-8" x="839.18" y="3324.7" width="114.61" height="22.64" transform="translate(730.03 -114.34) rotate(12.28)"/>
    <rect class="cls-8" x="812.29" y="3228.59" width="196.68" height="84.9" transform="translate(716.54 -118.84) rotate(12.28)"/>
  </g>
  <g>
    <path class="cls-3" d="M1212.49,3497.55l89.64-541.95h.02s1.75-10.57,1.75-10.57c1.82-11.03,12.34-18.56,23.37-16.74l79.94,13.22c11.03,1.82,18.56,12.34,16.74,23.37l-15.27,92.3c-.1.63-.24,1.25-.4,1.86l-75.81,458.36-119.99-19.85Z"/>
    <polygon class="cls-1" points="1104.1 3569.96 1122.41 3459.3 1453.9 3514.13 1442.46 3583.29 1411.47 3589.6 1326.91 3606.81 1104.1 3569.96"/>
    <path class="cls-12" d="M1230.26,3601.99l1.8-10.87,44.96,7.44-1.8,10.87c-.54,3.26-3.65,5.49-6.91,4.95l-33.1-5.47c-3.26-.54-5.49-3.65-4.95-6.91Z"/>
  </g>
  <polygon class="cls-5" points="2070.74 1985.47 2062.92 2040.21 2143.92 2040.21 2152.14 1982.7 2070.74 1985.47"/>
</svg>