<?xml version="1.0" encoding="UTF-8"?>
<svg id="Peter" xmlns="http://www.w3.org/2000/svg" viewBox="0 0 6780.92 8205.21">
  <defs>
    <style>
      .cls-1 {
        fill: #999;
      }

      .cls-1, .cls-2, .cls-3, .cls-4, .cls-5, .cls-6, .cls-7, .cls-8, .cls-9, .cls-10, .cls-11, .cls-12, .cls-13, .cls-14, .cls-15, .cls-16, .cls-17, .cls-18, .cls-19, .cls-20, .cls-21, .cls-22, .cls-23, .cls-24, .cls-25, .cls-26, .cls-27, .cls-28, .cls-29 {
        stroke-width: 0px;
      }

      .cls-2 {
        fill: #4d4d4d;
      }

      .cls-3 {
        fill: #666;
      }

      .cls-4 {
        fill: #c1272d;
      }

      .cls-5 {
        fill: #ed1c24;
      }

      .cls-30 {
        fill: #e29c40;
        stroke: #603813;
        stroke-width: 60px;
      }

      .cls-30, .cls-31, .cls-32 {
        stroke-miterlimit: 10;
      }

      .cls-6 {
        fill: #e6e7e8;
      }

      .cls-33 {
        font-size: 101.2px;
      }

      .cls-33, .cls-34 {
        font-family: Montserrat-Bold, Montserrat;
        font-weight: 700;
      }

      .cls-34 {
        font-size: 106.98px;
      }

      .cls-8 {
        fill: #1b1464;
      }

      .cls-9 {
        fill: #ff0;
      }

      .cls-35 {
        letter-spacing: -.05em;
      }

      .cls-31 {
        fill: #78ccda;
        opacity: .3;
      }

      .cls-31, .cls-32 {
        stroke: #000;
        stroke-width: 26px;
      }

      .cls-10 {
        fill: gray;
      }

      .cls-11 {
        fill: #f7931e;
      }

      .cls-12 {
        fill: #b3b3b3;
      }

      .cls-13 {
        fill: #333;
      }

      .cls-14 {
        fill: #29abe2;
        opacity: .5;
      }

      .cls-15 {
        fill: #fff;
      }

      .cls-16 {
        fill: #dfd0b3;
      }

      .cls-36 {
        letter-spacing: -.05em;
      }

      .cls-17 {
        fill: #a6a8ab;
      }

      .cls-18 {
        fill: #42210b;
      }

      .cls-37 {
        letter-spacing: 0em;
      }

      .cls-19 {
        fill: #603813;
      }

      .cls-20 {
        fill: #faaf40;
      }

      .cls-21 {
        fill: #03021e;
      }

      .cls-22 {
        fill: #39b54a;
      }

      .cls-23 {
        fill: #808184;
      }

      .cls-24 {
        fill: blue;
      }

      .cls-25 {
        fill: #fbb03b;
      }

      .cls-26 {
        fill: #ed1e79;
      }

      .cls-27 {
        fill: #5a4a42;
      }

      .cls-28 {
        fill: aqua;
      }

      .cls-29 {
        fill: #f2f2f2;
      }

      .cls-38 {
        letter-spacing: 0em;
      }
    </style>
  </defs>
  <g>
    <g>
      <path class="cls-29" d="M3415.19,7827.77c-34.5,81.37,88.94,196.25,120.32,225.46,163.94,152.57,401.42,168.08,411.19,141.35,5.15-14.09-58.26-25.32-120.32-95.79-111.28-126.36-53.04-255.6-140.18-318.91-80.68-58.61-239.33-26.84-271.01,47.89Z"/>
      <polygon class="cls-7" points="2878.17 5564.15 2893.94 5551.37 2700.5 5880.32 2878.17 5564.15"/>
      <polygon class="cls-28" points="2921.07 5517.73 2907.59 5528.16 2893.94 5551.37 2878.17 5564.15 2700.5 5880.32 2512.49 6200.04 2548.5 6962.78 2059.02 6922.27 2234.82 5116.55 2821.78 5181.61 2921.07 5517.73"/>
      <polygon class="cls-28" points="2700.5 5880.32 2523.96 6194.49 2558.66 6963.62 2548.5 6962.78 2512.49 6200.04 2700.5 5880.32"/>
      <polygon class="cls-28" points="2923.85 5527.14 2893.94 5551.37 2907.59 5528.16 2921.07 5517.73 2923.85 5527.14"/>
      <path class="cls-22" d="M2150.68,5886.84c24.43-5.65,33.19,33.04,86.17,47.13,62.93,16.74,86.08-28.4,172.91-26.6,65.72,1.36,69.54,27.57,123.18,22.55,84.03-7.86,131.15-77.5,141.97-67.95,11.24,9.92-46.82,78.83-86.45,168.57-8.66,19.61-30.28,71.55-51.18,238.55-32.33,258.35-48.49,387.52-12.43,510.05,26.21,89.06,63.5,146.27,33.83,184.48-25.85,33.29-83.54,27.67-161.34,19.08-264.06-29.13-345.53,7.08-374.16-45.4-12.04-22.08-6.6-41.4,2.02-90.21,17.5-99.07,15.91-200.66,28.91-300.42,10.26-78.72,28.23-216.63,41.06-370.11,14.28-170.83,15.47-280.47,55.52-289.72Z"/>
      <path class="cls-18" d="M3045.58,5530.8c-102.95,525.32-205.9,1050.64-308.85,1575.97-57.32,4.14-114.64,8.28-171.96,12.42-8.08-25.77-18.11-59.65-28.42-100.5-4.55-18.02-9.15-37.4-13.66-58.04-50.63-231.55-90.07-621.89,84.26-1034.77,85.42-202.31,199.15-355.52,297.65-463.9,11.69-12.86,23.16-25.08,34.34-36.69,2.99-3.1,5.96-6.16,8.91-9.17,32.58,38.23,65.15,76.46,97.73,114.69Z"/>
      <path class="cls-20" d="M4620.65,6202.64c8.1,4.63,71.8,42.45,82.06,117.32,8.99,65.58-26.73,132.59-89.98,166.65-53.48,17.76-134.81,39.54-232.85,29.63-22.83-2.31-46.08-5.55-69.45-9.51-103.65-17.52-209.84-48.88-294.52-73.89-239.95-70.87-412.6-121.86-463.81-274.41-33.57-100.01-16.23-247.47,64.51-292.5,122.75-68.45,248.07,180.1,617.75,275.5,3.14.81,6.29,1.6,9.46,2.39,1.88.47,3.77.93,5.67,1.4,159.9,38.73,290.32,30.7,371.17,57.42Z"/>
      <path class="cls-24" d="M4009.3,6726.76c-52.22,19.61-111.67,40.07-179.55,59.91-115.67,33.79-379.08,108.8-689.61,104.09-345.92-5.24-451.27-104.88-551.29-53.09-29.79-213.39-54.85-688.88,214.88-1106.71,84.22-130.47,153.57-187.76,194.72-213.9,12.71-8.07,22.73-13.17,29.66-16.54,327.76-159.3,857.08,107.99,935.1,432.27,29.43,122.34-31.02,146.21-48,336.28-17.72,198.31,33.7,333.35,94.1,457.7Z"/>
      <path class="cls-20" d="M4526.13,5649.79c-35.82,76.02-79.1,108.9-275.81,269.06-101.72,82.8-159.4,130.39-195.03,158.28-4.77,3.73-9.13,7.11-13.15,10.17-33.74,25.65-43.47,29.23-60.05,32.48-43.69,8.6-75.97,3.46-139.88-24.89-4.03-1.78-8.17-3.66-12.46-5.63-9.73-4.47-20.17-9.44-31.44-14.91-12.78-6.22-26.64-13.11-41.74-20.7-52.01-26.12-118.86-60.6-208.08-105.1-273.71-136.52-307.65-142.72-363.51-208.4-118.79-139.7-130.87-306.4-132.47-358.03-9.78-314.66,239.52-518.65,273.61-545.11,259.9-201.69,658.94-211.47,934.12-15.81,209.76,149.17,299.31,394.45,306.45,585.78,2.2,58.88,4.51,147.21-40.55,242.8Z"/>
      <path class="cls-11" d="M3845.59,5436.37c15.84,49.17,31.97,87.45,43.73,113.24,20.83,45.7,34.84,67.4,24.67,85.21-13.23,23.17-56.41,20.57-62.79,20.18-37.18-2.24-61.82-24.84-69.52-32.52"/>
      <path class="cls-15" d="M3475.33,5606.19c10.88-11.02,63.11,56.65,174.74,106.28,240.74,107.04,496.58,14.04,506.86,55.87,3.37,13.71-24.95,20.37-68.06,71.23-59.55,70.26-50.79,111.01-85.03,134.61-68.28,47.08-207.02-43.36-262.44-79.48-169.19-110.28-282.54-271.82-266.07-288.51Z"/>
      <path class="cls-19" d="M4125.93,5211.89c-30.71-22.74-81.35-30.42-102.45-11.35-26.22,23.7,17.74,66.5,14,148.83-3.62,79.75-47.87,105.65-23.51,148,14.64,25.45,48,46.32,74.54,43.86,52.44-4.87,65.17-99.59,71.46-146.41,8.29-61.68,19.27-143.45-34.04-182.94Z"/>
      <path class="cls-15" d="M4123.4,5466.13c-3.87-7.16-12.95-13.21-18.74-11.43-7.2,2.21-2.57,14.43-10.72,29.98-7.89,15.06-18.77,16.07-17.89,26.44.53,6.23,5.08,13.27,10.43,15.19,10.56,3.79,21.56-13.34,26.99-21.8,7.16-11.15,16.66-25.94,9.93-38.37Z"/>
      <path class="cls-7" d="M3788.06,5724.37c18.01-2.23,32.1-26.57,25.68-33.73-5.2-5.81-20.12,3.89-38.53-3.07-13.47-5.09-12.73-13.02-25.68-21.46-17.98-11.72-28.48-2.36-55.04-10.73-32.77-10.33-31.95-29.37-64.21-35.26-15.73-2.87-17.93,1.29-33.02-3.07-22.86-6.6-30.69-19.87-42.2-16.86-6.97,1.82-12.29,8.84-11.01,13.8,1.59,6.17,12.59,6.08,25.68,12.26,21.24,10.04,18.18,22.54,36.69,33.73,17.77,10.73,24.34,1.49,47.7,10.73,32.39,12.82,30.95,35.04,58.71,39.86,14.72,2.56,16.89-3.39,34.86,0,22.81,4.3,27.42,15.4,40.36,13.8Z"/>
      <path class="cls-7" d="M4137.53,5732.9c16.06-8.45,20.63-36.2,12.1-40.63-6.92-3.59-17.45,10.75-37.12,10.76-14.4,0-16.51-7.68-31.61-10.99-20.97-4.61-27.48,7.86-55.28,9.42-34.31,1.92-40.28-16.18-72.53-10.28-15.73,2.88-16.32,7.55-31.97,8.81-23.72,1.91-35.74-7.73-45.43-.85-5.88,4.17-8.37,12.61-5.42,16.8,3.67,5.21,13.93,1.23,28.36,2.39,23.42,1.88,24.97,14.66,46.25,18.57,20.42,3.76,23.3-7.22,48.41-6.83,34.83.54,41.34,21.83,69.01,16.53,14.67-2.81,14.6-9.14,32.61-12.33,22.86-4.05,31.09,4.71,42.63-1.37Z"/>
      <path class="cls-7" d="M3977.33,6013.28c-6.84-1.71-10.72,4.29-22.39,3.3-12.14-1.03-17.09-8.3-22.39-6.6-4.69,1.51-6.03,8.9-4.48,14.84,3.63,13.9,21.62,14.47,29.11,29.68,5.35,10.86.1,18.58,4.48,19.79,5.66,1.57,19.17-10.02,24.63-23.08,6.58-15.73,2.15-35.16-8.96-37.92Z"/>
      <path class="cls-30" d="M3416.28,5382.98c62.82-16.05,135.8-29.73,217.5-36.31,38.57-3.1,75.21-4.31,109.62-4.15"/>
      <path class="cls-7" d="M4817.19,5122.05c-10.48,56.26-81.76,62.34-90.22,132.14-4.66,38.52,15.83,46.77,13.3,94.55-2.97,56.15-32.23,63.1-48.58,118.84-28.91,98.6,36.67,165.52-4.33,209.06-16.19,17.19-26.15,6.48-61.59,28.62-56.76,35.48-53.39,76.85-87.89,94.55-63.41,32.52-197.29-44.29-200.39-116.52-2.21-51.84,64.54-64.14,65.94-125.5,1.46-64.76-72.19-83.23-70.27-149.48,1.53-52.7,48.59-56.81,59.27-116.82,13.24-74.34-41.82-164.41-109.87-186.79-34.87-11.46-39.84,5.79-87.9-2.31-77.51-13.07-80.6-60.62-165.1-90.22-70.63-24.73-98.48-2.03-134.17-35.28-39.05-36.37-31.81-87.86-52.91-90.21-23.65-2.63-28.48,62.44-83.57,107.85-56.11,46.25-94.64,14.62-149.77,54.93-63.52,46.44-29.41,100.85-94.55,178.41-67.41,80.24-136.81,61.14-158.46,125.49-20.53,61.02,35.78,96.46,8.68,160.48-16.96,40.08-58.08,71.2-98.89,76.91-35.4,4.96-45.56-12.69-94.55-21.97-84.23-15.97-106.34,26.33-158.45,8.96-18.96-6.32-35.91-18.54-50.4-34.58-12.33-13.64-22.88-30.04-31.36-47.93-17.41-36.71-26.15-79.67-23.77-117.87,3.31-53.09,25.32-52.11,34.98-116.52,14.93-99.56-33.77-127.79-13.01-198.06,17.7-59.9,55.41-47.26,105.55-127.52,57.96-92.81,25.12-137.85,79.22-189.39,47.52-45.27,77.89-15.31,158.45-63.9,92.74-55.94,82.89-113.97,147.47-127.52,72.26-15.16,112.59,51.62,178.11,24.28,41.97-17.51,41.74-51.72,77.21-55.23,47.87-4.74,60.78,56.37,120.86,63.91,55.29,6.94,79.16-40.47,123.17-24.29,35.47,13.04,29.81,47.45,61.59,59.56,48.14,18.38,87.2-50.68,162.78-65.92,60.05-12.1,81.59,22.16,196.04,65.92,184.46,70.55,247.57,27.07,301.29,94.55,46.03,57.81.84,91.13,48.58,198.07,53.54,119.97,139.38,142.96,127.52,206.74Z"/>
      <g>
        <g>
          <path class="cls-17" d="M2515.43,5620.34c-8.03-.19-16.01-.63-23.92-1.08-19.96-1.16-44.14-2.56-70.41-9.14-22.45-5.64-46.44-15.06-70.65-31.34-26.22-17.63-43.98-37.48-54.87-51.55l27.03-154.65,12.75-78.88,2.45-15.16c1.94,2.33,4.33,4.35,6.24,5.9,28.26,22.9,68.23,34.91,81.92,38.93,35.54,10.42,53.31,15.63,57.17,16.43,1.15.24,2.3.47,3.44.69-.9,2.44-1.61,4.58-2.09,6.03-2.76,8.3-3.91,14.52-4.62,20.8-.8,7.09-1.05,14.24-2.43,24.54-3.18,23.93-11.28,55.89-12.77,61.74-2.62,10.32-5.79,21.82.07,27.63,2.77,2.76,7.67,4.32,10.75,2.63,3.97-2.19,2.61-8.51,5.46-23.78,1.16-6.25,2.64-14.24,4.58-14.28,2.24-.04,4.12,10.5,4.53,12.95,2.9,17.25-.45,29.84-5.7,56.59-1.85,9.42-6.37,33.39.51,44.13.71,1.12,2.79,4.35,5.26,4.19,2.94-.2,4.92-5.08,6.16-8.79,5.96-17.97,7.53-48.91,9.83-68.23,1.25-10.47,3.08-20.49,7.98-31.65,2.8-6.4,9.26-21.1,17.07-20.62,4.93.3,8.19,6.5,8.59,7.28,3.62,6.89,1.37,14.35-.17,20.06-3.09,11.46-3.77,23.46-6.61,34.98-1.24,5-3.03,18.54-6.7,45.59-6.83,50.23-4.47,43.09-6.51,51.23-3.52,13.92-7.04,21.38-4.33,26.86Z"/>
          <path class="cls-17" d="M2558.17,5617.66c-5.39.97-10.77,1.62-16.15,2.05.2-.99.31-2.06.42-3.19,1.36-12.91,3.84-29.33,9.72-41.79,3.87-8.21,6.2-8.33,6.84-8.28,3.42.22,5.46,8.11,5.98,10.11,4.7,18.15-5.59,32.55-6.8,41.1Z"/>
          <path class="cls-17" d="M2609.05,5575.27c-2.44,11.9-4.43,20.17-5.69,25.97-1.34.78-2.68,1.54-4.02,2.26.24-1.79.16-3.23.13-4-1.19-25.24,8.65-31.84,11.34-70.28,0,0,2-28.48,9.32-45.14.57-1.28,2.02-4.54,2.88-4.34,1.31.32.46,8.51-.49,16.33-2.63,21.32-5.89,37.99-6.62,41.74-5.01,25.73-3.33,20.43-6.84,37.46Z"/>
          <path class="cls-17" d="M2631.8,5579.19c-2.07,2.07-4.56,4.43-7.46,6.95,0-.29,0-.59,0-.89-.03-7.85,1.17-13.26,2.36-19.3,3.32-16.81,5.37-33.85,8.55-50.68,7.65-40.54,4.85-36.71,11.08-67.63,6.97-34.64,10.46-51.96,12.79-59.61,3.5-11.52,7.48-22.49,7.14-32.89-.14-4.5-1.1-8.9-3.25-13.18-.69-1.36-1.68-3.1-3.22-5.07,5.51-1.09,13.06-3.51,17.72-10.01.34-.47.65-.95.94-1.43-1.58,8.62-3.17,17.24-4.76,25.86-13.96,75.96-27.92,151.93-41.86,227.89Z"/>
          <path class="cls-17" d="M2678.42,5325.45c-.29.48-.6.96-.94,1.43-4.66,6.5-12.21,8.92-17.72,10.01-1.29-1.66-2.97-3.47-5.16-5.36,6.91-1.77,11.39-4.27,12.19-7.88.34-1.52-.01-3.07-.92-4.68-1.88-3.34-6.16-6.96-11.6-11.17-1.3-1.01-2.66-2.05-4.08-3.12-14.45-11-29.72-17.79-60.17-27.25-14.83-4.6-25.43-7.9-41.26-11.59-37.02-8.64-66.46-10.99-78.26-11.76-32.9-2.14-56.07-.2-70.18,1.53-24.37,2.97-45.75,5.58-47.43,14.19l-.04.24c-.09.62-.08,1.26.02,1.9,1.78,10.65,29.81,23.91,44.2,30.72,25.41,12.03,46.64,16.88,69.09,21.86,5.73,1.27,14.31,3.07,25.22,4.91-1.89,3.51-3.55,7.6-4.83,11.09-1.13-.22-2.28-.45-3.44-.69-3.87-.8-21.64-6.01-57.17-16.43-13.69-4.02-53.66-16.03-81.92-38.93-1.91-1.55-4.3-3.58-6.24-5.9-.22-.26-.43-.53-.64-.8-1.95-2.54-3.26-5.39-2.83-8.33,1.12-7.67,13.51-11.82,20.86-14,63.32-18.81,116.74-13.89,116.74-13.89,17.93,1.65,43.85,7.43,95.71,18.99,41.44,9.24,64.74,15.69,89.26,33.29,11.1,7.97,19.29,15.94,24.62,21.65-.09.93-.24,2.02-.49,3.21-.45,2.07-1.24,4.44-2.63,6.78Z"/>
          <path class="cls-25" d="M2685.68,5614.74c-1.29-1.34-3.13-2.87-14.35-7.36-10.29-4.11-17.44-6.97-28.59-9.81-8.79-2.23-17.76-3.94-26.04-5.23-2.79,2.1-5.84,4.23-9.15,6.34-1.4.89-2.79,1.74-4.19,2.56-1.34.78-2.68,1.54-4.02,2.26-13.66,7.39-27.43,11.74-41.16,14.16-5.39.97-10.77,1.62-16.15,2.05-8.9.73-17.78.83-26.59.63-8.03-.19-16.01-.63-23.92-1.08-19.96-1.16-44.14-2.56-70.41-9.14-5.32,1.93-10.56,5.08-14.08,10.29-.37.56-6.32,9.67-3.74,19.86,4.18,16.55,27.64,23.34,52.36,30.51,23.73,6.88,18.74.85,51.95,8.31,1.98.45,16.61,3.75,32.33-.61,4.48-1.24,9-3.1,9.53-6.18.78-4.58-7.89-8.73-6.79-11.58.95-2.45,8.24-1.75,9.4-1.64,19.17,1.97,33.25,6.32,43.2,8.1,11.87,2.13,7.34-1.3,35.86-.32,17.62.6,24.59,2.07,35.72-1.33,6.61-2.03,14.07-4.31,19.52-11.28,8.93-11.43,8.32-30.18-.68-39.51Z"/>
          <path class="cls-25" d="M2624.33,5586.14c-2.29,1.99-4.83,4.08-7.64,6.2-2.79,2.1-5.84,4.23-9.15,6.34-1.4.89-2.79,1.74-4.19,2.56,1.26-5.8,3.25-14.08,5.69-25.97,3.51-17.03,1.83-11.74,6.84-37.46.74-3.74,4-20.42,6.62-41.74.96-7.81,1.81-16.01.49-16.33-.86-.2-2.31,3.06-2.88,4.34-7.32,16.66-9.32,45.14-9.32,45.14-2.69,38.44-12.54,45.04-11.34,70.28.04.78.11,2.21-.13,4-13.66,7.39-27.43,11.74-41.16,14.16,1.21-8.55,11.5-22.95,6.8-41.1-.51-2-2.56-9.9-5.98-10.11-.63-.04-2.97.07-6.84,8.28-5.88,12.45-8.36,28.88-9.72,41.79-.11,1.14-.22,2.2-.42,3.19-8.9.73-17.78.83-26.59.63-2.71-5.47.81-12.94,4.33-26.86,2.04-8.14-.31-.99,6.51-51.23,3.67-27.05,5.47-40.59,6.7-45.59,2.84-11.52,3.52-23.52,6.61-34.98,1.54-5.71,3.79-13.17.17-20.06-.4-.78-3.66-6.98-8.59-7.28-7.82-.48-14.28,14.22-17.07,20.62-4.9,11.16-6.72,21.18-7.98,31.65-2.3,19.32-3.87,50.27-9.83,68.23-1.23,3.71-3.22,8.59-6.16,8.79-2.47.16-4.55-3.07-5.26-4.19-6.88-10.74-2.36-34.71-.51-44.13,5.26-26.75,8.6-39.33,5.7-56.59-.42-2.45-2.3-12.98-4.53-12.95-1.94.04-3.42,8.03-4.58,14.28-2.84,15.27-1.49,21.6-5.46,23.78-3.07,1.69-7.97.13-10.75-2.63-5.86-5.81-2.68-17.31-.07-27.63,1.48-5.85,9.58-37.81,12.77-61.74,1.38-10.29,1.62-17.45,2.43-24.54.71-6.28,1.86-12.5,4.62-20.8.48-1.45,1.19-3.59,2.09-6.03,1.28-3.49,2.94-7.59,4.83-11.09-10.9-1.84-19.49-3.64-25.22-4.91-22.46-4.99-43.68-9.84-69.09-21.86-14.39-6.81-42.43-20.08-44.2-30.72-.1-.64-.12-1.27-.02-1.9l.04-.24c1.68-8.61,23.06-11.22,47.43-14.19,14.11-1.73,37.28-3.67,70.18-1.53,11.79.77,41.23,3.13,78.26,11.76,15.82,3.69,26.43,6.99,41.26,11.59,30.44,9.46,45.71,16.25,60.17,27.25,1.42,1.08,2.78,2.12,4.08,3.12,5.44,4.22,9.71,7.83,11.6,11.17.91,1.61,1.26,3.16.92,4.68-.81,3.61-5.28,6.11-12.19,7.88,2.19,1.89,3.87,3.71,5.16,5.36,1.54,1.97,2.54,3.71,3.22,5.07,2.15,4.29,3.11,8.68,3.25,13.18.34,10.4-3.64,21.37-7.14,32.89-2.33,7.65-5.82,24.97-12.79,59.61-6.23,30.92-3.42,27.09-11.08,67.63-3.18,16.83-5.22,33.87-8.55,50.68-1.19,6.03-2.39,11.45-2.36,19.3,0,.31,0,.6,0,.89Z"/>
        </g>
        <path class="cls-23" d="M2484.49,5346.54c-2.76,8.3-3.91,14.52-4.62,20.8-25.34-7.92-47.39-18.06-65.13-26.23-30.63-14.1-56.99-30.59-79.37-47.4l2.45-15.16c1.94,2.33,4.33,4.35,6.24,5.9,28.26,22.9,68.23,34.91,81.92,38.93,35.54,10.42,53.31,15.63,57.17,16.43,1.15.24,2.3.47,3.44.69-.9,2.44-1.61,4.58-2.09,6.03Z"/>
        <path class="cls-23" d="M2673.66,5351.3c-2.35,1.33-4.84,2.61-7.42,3.84-.14-4.5-1.1-8.9-3.25-13.18-.69-1.36-1.68-3.1-3.22-5.07,5.51-1.09,13.06-3.51,17.72-10.01.34-.47.65-.95.94-1.43-1.58,8.62-3.17,17.24-4.76,25.86Z"/>
      </g>
      <text class="cls-34" transform="translate(2248.52 5817.6) rotate(7.47)"><tspan class="cls-35" x="0" y="0">P</tspan><tspan class="cls-37" x="73.5" y="0">AINT</tspan></text>
      <circle class="cls-7" cx="2139.4" cy="6856.93" r="54.65"/>
      <circle class="cls-7" cx="2277.61" cy="6868.78" r="54.65"/>
      <circle class="cls-10" cx="2139.29" cy="6858.94" r="40.6"/>
      <circle class="cls-10" cx="2278.6" cy="6869.06" r="40.6"/>
      <path class="cls-7" d="M2938.94,5425.28c-11.18,11.6-22.65,23.83-34.34,36.69l-82.82-280.36-586.97-65.06-175.8,1805.72,463.67,38.37c4.51,20.64,9.11,40.02,13.66,58.04l-542.48-42.9,196.1-1924.71,654.73,69.35,94.24,304.87Z"/>
      <path class="cls-10" d="M2962.51,5543.15c-40.81,33.26-95.62,89.95-158.79,187.8-344.66,533.94-207.98,1162-195.17,1217.02,7.55,32.43,16.84,72.34,29.2,117.43-10.41.77-20.8,1.54-31.21,2.31-7.4-24.21-16.57-56.05-26.01-94.44-4.16-16.94-8.37-35.15-12.5-54.55-46.34-217.6-82.43-584.41,77.11-972.4,78.18-190.12,182.26-334.09,272.42-435.95,4.57-5.17,9.11-10.22,13.59-15.16,8.49,17.89,19.03,34.29,31.36,47.93Z"/>
      <path class="cls-13" d="M4022.12,4805.68c-31.22-52.83,76.91-182.69,165.73-257.98,131.27-111.28,351.86-214.81,461.95-137.62,21.24,14.9,50.63,45.12,44.55,69.89-9.08,37.03-97.64,62.69-158.46,34.56-37.65-17.42-37.27-42.78-69.34-51.98-26.09-7.49-54.61,1.18-138.66,60.94-105.79,75.2-158.68,112.8-186.38,159.74-42.59,72.17-42.93,139.22-78.99,143.57-15.08,1.82-32.52-7.8-40.4-21.12Z"/>
      <path class="cls-13" d="M3795.71,4759.01c42.7-44.08-32.1-195.61-100.87-289.56-101.64-138.87-291.94-291.08-417.02-241.73-24.13,9.52-59.77,32.04-59.65,57.54.18,38.13,80.29,83.77,146,70.62,40.68-8.14,46.23-32.89,79.57-34.35,27.12-1.18,52.82,13.91,120.59,91.65,85.29,97.84,127.94,146.76,143.9,198.87,24.55,80.12,9.22,145.39,43.26,158.05,14.24,5.3,33.45.02,44.21-11.1Z"/>
      <path class="cls-8" d="M4161.84,7207.34c-.16,14.64-.75,29.43-1.79,44.32-19.37,278.35-191.01,594.87-456.22,676.23-258.13,79.19-509.13-93.79-605.47-160.19-132.26-91.15-228.18-203.35-298.61-317.43-84.33-136.58-132.12-275.84-162-384.88-12.36-45.08-21.65-85-29.2-117.42-2.78-11.96-11.43-51.02-19.71-110.31,82.72-42.83,169.09,17.91,392.17,43.17,46.65,5.29,99.29,9.02,159.12,9.92,192.91,2.92,367.64-24.92,500.06-54.53,80.74-18.05,145.74-36.76,189.55-49.57,67.89-19.84,127.33-40.3,179.55-59.91,71.12,146.41,154.69,277.99,152.54,480.58Z"/>
      <path class="cls-21" d="M2965.78,7015.67c-24.16,117.04-86.16,320.67-166.03,434.61-84.33-136.58-132.12-275.84-162-384.88-12.36-45.08-21.65-85-29.2-117.42-2.78-11.96-11.43-51.02-19.71-110.31,82.72-42.83,169.09,17.91,392.17,43.17.81,32.11-2.97,75.41-15.24,134.83Z"/>
      <path class="cls-21" d="M4161.84,7207.34c-.16,14.64-.75,29.43-1.79,44.32-132.92-.01-320.48-128.23-423.98-251.61-39.91-47.57-87.87-104.73-95.87-163.82,80.74-18.05,145.74-36.76,189.55-49.57,67.89-19.84,127.33-40.3,179.55-59.91,71.12,146.41,154.69,277.99,152.54,480.58Z"/>
    </g>
    <path class="cls-7" d="M4102.99,6313.04c-6.11,16.97,8.99,35.51,18.22,46.84,39.98,49.11,109.15,58.5,111.9,52.05,1.71-4.01-24.52-8.85-44.24-36.43-26.49-37.06-10.17-71.71-31.23-83.27-16.95-9.31-47.87,1.98-54.65,20.82Z"/>
    <g>
      <polygon class="cls-7" points="3619.69 6466.29 3669.07 6663.9 3768.5 6637.59 3783.07 7094.17 4148.96 6986.3 4051.8 6525.06 4013.74 6342.34 3619.69 6466.29"/>
      <polygon class="cls-28" points="4921.43 5927.03 4909.35 5883.95 4913.6 5865.56 5400.39 5726.58 5433.4 5772.03 4921.43 5927.03"/>
      <polygon class="cls-2" points="5313.02 5870.05 5272.03 5758.91 5325.39 5742.67 5365.25 5851.39 5313.02 5870.05"/>
      <polygon class="cls-2" points="5180.74 5907.82 5140.42 5796.44 5193.88 5780.52 5233.08 5889.48 5180.74 5907.82"/>
      <polygon class="cls-2" points="5023.26 5954.11 4981.28 5843.34 5034.5 5826.62 5075.32 5934.99 5023.26 5954.11"/>
      <polygon class="cls-2" points="4339.88 5876.92 4324.54 5827.25 4429.85 5796.58 4444.17 5853.57 4339.88 5876.92"/>
      <polygon class="cls-7" points="3990.08 5973.31 4781.72 5745.06 4821.91 5890.56 4026.38 6116.99 3990.08 5973.31"/>
      <polygon class="cls-2" points="4114.59 6127.26 4064.74 5935.98 4189.9 5899.56 4238.1 6086.72 4114.59 6127.26"/>
      <polygon class="cls-2" points="4652.87 5971.1 4603.02 5779.82 4728.18 5743.4 4776.38 5930.56 4652.87 5971.1"/>
      <circle class="cls-3" cx="4410.21" cy="5933.78" r="50.89"/>
      <polygon class="cls-10" points="3973.37 6228.94 3952.22 6159.69 4909.35 5883.95 4928.7 5948.85 3973.37 6228.94"/>
      <polygon class="cls-7" points="4357.28 6232.09 4404.95 6422.28 4481.37 6376.06 4436.9 6205.05 4357.28 6232.09"/>
      <path class="cls-1" d="M3990.9,6327.34l52.42,210.28,22.23,79.63,344.4-137.15-61.62-248.9-357.43,96.14ZM4338.26,6442.35l-231.07,92.02-14.91-53.43c-10.31-44.69-20.61-89.38-30.92-134.07,78.52-23.84,157.04-47.68,235.56-71.52l41.34,167Z"/>
      <path class="cls-2" d="M4509.03,6243.53l3.37,11.97,9.77,34.69,2.09,7.43,9.77,34.67,2.53,9,9.76,34.68,1.69,5.98,9.59,34.06,2.51,8.93,191.85-56.61,48.65-15.32,20.34-7.78c5.45-4.26,12.64-8.22,21.73-9.6,2.96-.45,5.83-.58,8.56-.49,2.51,1.09,4.31,2.99,5.44,4.42,4.94,6.26,7.96,17.69,7.87,29.17l170.66-94.85,12.94-7.19,76.59-42.57-43.85-149.12-571.88,168.54ZM4830.49,6377.15l-69.38,21.96-191.85,58.31,2.15,7.65,8.72,30.99,7.49,26.6,103.72-57.65c1.27-.51,2.49-1.05,3.67-1.6,0-.15,0-.3.01-.45l161.73-89.89c-1.97.67-4.04,1.29-6.2,1.82-7.18,1.78-13.97,2.35-20.07,2.26Z"/>
      <path class="cls-2" d="M4445.56,6199.25l58.02,195.82,10.16,34.29,2.53,8.54,9.68,32.69,2.15,7.26,9.25,31.21,27.72,93.57,610.29-367.4-73.53-235.58-656.27,199.6ZM5124.76,6224.11l-76.59,42.57-12.94,7.19-170.66,94.85c0,.4,0,.81-.02,1.21-2.42,1.13-5.02,2.19-7.79,3.13l-161.73,89.89c0,.15,0,.3-.01.45-1.18.55-2.41,1.09-3.67,1.6l-103.72,57.65-7.49-26.6-8.72-30.99-2.15-7.65-9.14-32.47-2.51-8.93-9.59-34.06-1.69-5.98-9.76-34.68-2.53-9-9.77-34.67-2.09-7.43-9.77-34.69-3.37-11.97,571.88-168.54,43.85,149.12Z"/>
      <path class="cls-2" d="M4864.55,6369.94c-4.15,1.94-8.81,3.67-13.99,4.95-7.18,1.78-13.97,2.35-20.07,2.26l-69.38,21.96-191.85,58.31-9.14-32.47,191.85-56.61,48.65-15.32,20.34-7.78c5.45-4.26,12.64-8.22,21.73-9.6,2.96-.45,5.83-.58,8.56-.49,2.51,1.09,4.31,2.99,5.44,4.42,5.11,6.48,8.17,18.5,7.85,30.38Z"/>
      <polygon class="cls-6" points="5126.93 5864.88 5167.78 6005.18 5484.22 5906.87 5441.62 5761.32 5348.82 5796.27 5126.93 5864.88"/>
      <path class="cls-27" d="M5441.62,5761.32c24.9-19.26,57.74-37.13,99.15-43.2,13.51-1.98,26.58-2.51,39.01-2.03,11.38,5.03,19.57,13.71,24.68,20.24,23.14,29.63,36.78,84.43,35.01,138.5-18.92,8.71-40.18,16.49-63.81,22.22-32.72,7.93-63.65,10.37-91.44,9.83-14.2-48.52-28.4-97.04-42.6-145.56Z"/>
      <polygon class="cls-16" points="5167.78 6005.18 5109.02 6022.7 4451.36 6218.83 4441.27 6221.84 4360.73 6245.85 4349.69 6249.15 4294.9 6265.48 4070.12 6332.51 4015.11 6348.92 4014.71 6349.04 3619.82 6466.8 3531.23 6493.22 2935.15 6670.98 2889.69 6512.25 3497.79 6336.29 3964.88 6201.13 4920.73 5924.54 4921.4 5924.35 5003.03 5900.73 5056.58 5885.24 5122.19 5866.25 5126.93 5864.88 5167.78 6005.18"/>
      <polygon class="cls-1" points="5080.91 6074.99 5124.76 6224.11 5048.17 6266.68 5035.23 6273.87 4864.57 6368.73 4856.75 6373.07 4695.03 6462.96 4691.34 6465.01 4587.63 6522.65 4580.14 6496.06 4571.41 6465.07 4569.26 6457.42 4560.12 6424.96 4557.6 6416.02 4548.01 6381.96 4546.33 6375.98 4536.56 6341.3 4534.03 6332.29 4524.26 6297.62 4522.17 6290.19 4512.4 6255.5 4509.03 6243.53 5080.91 6074.99"/>
      <path class="cls-5" d="M5669.97,5673.56c-22.02-15.58-47.26-15.94-60.05-16.13-9.59-.14-42.96-.21-72.15,20.58-21.25,15.14-17.65,25.21-39.13,36.44-22.16,11.59-41.57,9.02-44.34,19.02-1.35,4.88,2.85,7.03,9.81,21.03,4.54,9.12,11.24,22.59,10.49,33.81-.93,14.05-13.6,25.24-27.92,34.77-55.73,37.11-148.99,57.56-191.58,75.47-6.06,2.55-15.31,6.82-15.49,12.5-.17,5.66,8.72,11.51,17.11,12.45,13.38,1.51,25.05-9.53,29.17-13.19,14.51-12.87,45-21.49,105.99-38.73,60.87-17.21,76.34-24.84,99.62-20.49,10.28,1.92,18.48,4.95,23.71,7.19,44.23,18.89,41.7,58.59,70.61,64.98,15.39,3.4,15.95-7.61,59.76-18.22,37.11-8.99,42.5-2.5,57.72-11.93,24.05-14.9,34.54-45.96,34.32-69.92-.13-13.97-3.84-18.51-20.06-55.5-30.84-70.34-29.4-81.26-47.59-94.13Z"/>
      <text class="cls-33" transform="translate(4108.69 6273.71) rotate(-16.13)"><tspan class="cls-36" x="0" y="0">P</tspan><tspan x="69.52" y="0">AIN</tspan><tspan class="cls-38" x="262.01" y="0">T</tspan><tspan x="323.54" y="0">GUN 3000</tspan></text>
      <g>
        <polygon class="cls-6" points="4976.49 6118.56 4985.62 6149.33 5055.01 6127.37 5045.48 6095.45 5025.14 6103.24 4976.49 6118.56"/>
        <path class="cls-27" d="M5045.48,6095.45c5.45-4.26,12.64-8.22,21.73-9.6,2.96-.45,5.83-.58,8.56-.49,2.51,1.09,4.31,2.99,5.44,4.42,5.12,6.48,8.18,18.5,7.85,30.38-4.14,1.93-8.81,3.67-13.99,4.95-7.18,1.78-13.97,2.35-20.07,2.26-3.17-10.64-6.35-21.28-9.52-31.92Z"/>
        <polygon class="cls-5" points="4976.49 6118.56 4985.62 6149.33 4522.17 6290.19 4512.4 6255.5 4976.49 6118.56"/>
      </g>
      <g>
        <polygon class="cls-6" points="4986.52 6161.22 4995.65 6191.98 5065.03 6170.03 5055.51 6138.11 5035.17 6145.9 4986.52 6161.22"/>
        <path class="cls-27" d="M5055.51,6138.11c5.45-4.26,12.64-8.22,21.73-9.6,2.96-.45,5.83-.58,8.56-.49,2.51,1.09,4.31,2.99,5.44,4.42,5.12,6.48,8.18,18.5,7.85,30.38-4.14,1.93-8.81,3.67-13.99,4.95-7.18,1.78-13.97,2.35-20.07,2.26-3.17-10.64-6.35-21.28-9.52-31.92Z"/>
        <polygon class="cls-24" points="4986.52 6161.22 4995.65 6191.98 4534.03 6332.29 4524.26 6297.62 4986.52 6161.22"/>
      </g>
      <g>
        <polygon class="cls-6" points="4999.31 6204.75 5008.44 6235.52 5077.83 6213.56 5068.3 6181.65 5047.96 6189.43 4999.31 6204.75"/>
        <path class="cls-27" d="M5068.3,6181.65c5.45-4.26,12.64-8.22,21.73-9.6,2.96-.45,5.83-.58,8.56-.49,2.51,1.09,4.31,2.99,5.44,4.42,5.12,6.48,8.18,18.5,7.85,30.38-4.14,1.93-8.81,3.67-13.99,4.95-7.18,1.78-13.97,2.35-20.07,2.26-3.17-10.64-6.35-21.28-9.52-31.92Z"/>
        <polygon class="cls-9" points="4999.31 6204.75 5008.44 6235.52 4546.33 6375.98 4536.56 6341.3 4999.31 6204.75"/>
      </g>
      <g>
        <polygon class="cls-6" points="4935.58 6267.6 4944.71 6298.37 5014.1 6276.41 5004.57 6244.49 4984.23 6252.28 4935.58 6267.6"/>
        <path class="cls-27" d="M5004.57,6244.49c5.45-4.26,12.64-8.22,21.73-9.6,2.96-.45,5.83-.58,8.56-.49,2.51,1.09,4.31,2.99,5.44,4.42,5.12,6.48,8.18,18.5,7.85,30.38-4.14,1.93-8.81,3.67-13.99,4.95-7.18,1.78-13.97,2.35-20.07,2.26-3.17-10.64-6.35-21.28-9.52-31.92Z"/>
        <polygon class="cls-22" points="4935.58 6267.6 4944.71 6298.37 4557.6 6416.02 4548.01 6381.96 4935.58 6267.6"/>
      </g>
      <g>
        <polygon class="cls-6" points="4820.97 6345.24 4830.49 6377.15 4761.11 6399.11 4751.97 6368.34 4800.63 6353.02 4820.97 6345.24"/>
        <path class="cls-27" d="M4864.55,6369.94c-4.15,1.94-8.81,3.67-13.99,4.95-7.18,1.78-13.97,2.35-20.07,2.26l-9.52-31.92c5.45-4.26,12.64-8.22,21.73-9.6,2.96-.45,5.83-.58,8.56-.49,2.51,1.09,4.31,2.99,5.44,4.42,5.11,6.48,8.17,18.5,7.85,30.38Z"/>
        <polygon class="cls-11" points="4751.97 6368.34 4761.11 6399.11 4569.26 6457.42 4560.12 6424.96 4751.97 6368.34"/>
      </g>
      <g>
        <polygon class="cls-6" points="4651.43 6438.7 4660.96 6470.62 4591.58 6492.58 4582.44 6461.81 4631.09 6446.49 4651.43 6438.7"/>
        <path class="cls-27" d="M4695.03,6462.96c0,.15,0,.3-.01.45-1.18.55-2.41,1.09-3.67,1.6-3.17,1.29-6.61,2.43-10.31,3.35-7.18,1.78-13.97,2.35-20.07,2.26l-9.52-31.92c5.45-4.26,12.64-8.22,21.73-9.6,2.96-.45,5.83-.58,8.56-.49,2.51,1.09,4.31,2.99,5.44,4.42,5.05,6.4,8.1,18.2,7.86,29.93Z"/>
        <polygon class="cls-26" points="4582.44 6461.81 4591.58 6492.58 4580.14 6496.06 4571.41 6465.07 4582.44 6461.81"/>
      </g>
      <polygon class="cls-14" points="5080.79 6075.01 5124.64 6224.13 5048.05 6266.7 5035.11 6273.89 4864.45 6368.74 4856.63 6373.09 4694.91 6462.98 4691.22 6465.02 4587.51 6522.67 4580.02 6496.07 4571.29 6465.09 4569.14 6457.44 4560 6424.97 4557.48 6416.04 4547.89 6381.98 4546.21 6375.99 4536.44 6341.32 4533.91 6332.31 4524.14 6297.64 4522.05 6290.21 4512.28 6255.52 4508.91 6243.55 5080.79 6075.01"/>
      <polygon class="cls-7" points="3556.17 6347.73 3574.37 6429.1 4052.72 6290.18 4033.87 6214.56 3556.17 6347.73"/>
      <polygon class="cls-7" points="4947.03 5960.95 4962.55 6019.32 5114.02 5975.4 5096.89 5917.69 4947.03 5960.95"/>
      <polygon class="cls-1" points="3582.36 6350.7 3592 6410.99 4015.91 6289.81 4005.27 6233.86 3582.36 6350.7"/>
      <polygon class="cls-1" points="4961.28 5966.94 4971.35 6008.87 5097.78 5969.85 5086.35 5928.49 4961.28 5966.94"/>
      <path class="cls-7" d="M3549.32,6578.14c-227.1,231.71-454.19,463.42-681.29,695.14-56.05-92.39-120.86-220.86-166.44-382.66-8.32-29.52-15.48-58.34-21.64-86.33-6.16-27.97-11.31-55.13-15.62-81.34-1.32-8.03-2.56-15.97-3.72-23.82-3.77-25.43-6.75-49.89-9.08-73.28-1.75-17.5-3.13-34.4-4.22-50.64,283.26-80.74,566.52-161.48,849.79-242.21l.71,3.31-608.1,175.96,45.46,158.72,596.08-177.76,18.09,84.92Z"/>
      <polygon class="cls-7" points="3531.23 6493.22 2935.15 6670.98 2889.69 6512.25 3497.79 6336.29 3531.23 6493.22"/>
    </g>
    <path class="cls-4" d="M2125.23,6846.52c-9.87-3.05-15.5-40.76,0-59.85,17.44-21.49,47.03-1.37,83.27-15.61,59.76-23.49,50.94-106.35,93.68-114.5,41.3-7.88,68.02,65.97,117.1,57.25,29.98-5.33,34.98-35.53,70.26-41.64,31.34-5.42,38.92,22.93,70.26,20.82,42.56-2.86,65.35-52.65,80.67-44.24,6.6,3.62,7.46,15.66,5.2,23.42-3.06,10.52-14.85,11.84-41.64,23.42-32.21,13.92-28.47,16.96-39.03,18.22-28.07,3.34-36.47-20.24-62.46-18.22-23.11,1.8-22.61,20.93-52.05,31.23-22.98,8.04-55.12,7.52-79.52-7.23-26.77-16.19-30.64-41.34-53.2-42.22-11.61-.45-20.58,5.82-23.42,7.81-17.34,12.12-15.73,30.46-26.02,54.65-3.89,9.14-19.67,46.21-49.44,57.25-32.75,12.15-65.13-13.61-75.47,0-7.37,9.71,6.02,26.88-5.2,41.64-2.71,3.56-8.53,9.19-13.01,7.81Z"/>
    <path class="cls-22" d="M2263.15,6864.73c3.86-10.6,17.2-14.91,26.02-15.61,22.73-1.81,28.15,19.35,49.44,23.42,33.32,6.37,49.29-39.84,83.27-36.43,32.19,3.23,42.09,47.13,62.46,44.24,15.92-2.26,5.55-39.15,33.83-72.86,4.93-5.88,21.04-25.09,46.84-31.23,20.42-4.86,25.91,3.47,44.24-2.6,26.46-8.77,33.59-32.28,44.24-28.63,7.42,2.55,11.69,16.61,7.81,26.02-1.33,3.23-5.59,10.69-41.64,18.22-30.12,6.29-33.53,2.41-49.44,7.81-5.94,2.01-29.89,10.13-44.24,31.23-19.06,28.02-3.86,53.48-20.82,65.06-13.02,8.89-34.61,2.49-46.84-5.2-20.27-12.75-17.27-30.59-31.23-33.83-14.58-3.39-23.41,14.78-56.09,30.07-17.48,8.18-25.93,12.86-34.99,11.57-21.18-3.02-28.03-25.63-44.24-23.42-12.14,1.65-16.62,15.47-23.42,13.01-5.46-1.98-8.1-12.87-5.2-20.82Z"/>
    <path class="cls-12" d="M2660.61,6699.12l-33.07,2.5-1.21-72.18,25.2-3.6c2.33,23.38,5.31,47.85,9.08,73.28Z"/>
    <path class="cls-12" d="M2679.95,6804.28l-39.13,3.26-1.99-80.76,25.5-3.84c4.31,26.21,9.47,53.36,15.62,81.34Z"/>
    <path class="cls-20" d="M4808.2,6458.74c65.41,32.55,137.82-10.5,163.95-26.02,18.71-11.12,105.01-62.42,98.89-135.32-4.24-50.57-50.48-82.09-59.85-88.48-74.94-51.09-218.28-49.83-265.44,41.64-35.78,69.4-7.29,173.48,62.46,208.19Z"/>
    <path class="cls-20" d="M4096.51,6631.81c6.04,7.11,53.05,64.37,37.19,138.25-13.89,64.72-70.29,115.56-141.37,126.03-56.33-1.51-140.22-8.75-229.02-51.45-20.68-9.95-41.43-20.91-62.06-32.59-91.49-51.78-180.64-117.43-251.74-169.79-201.46-148.36-346.42-255.11-342.61-415.98,2.5-105.46,69.04-238.2,160.28-253.03,138.72-22.55,171.89,253.83,486.97,469.44,2.67,1.83,5.36,3.65,8.08,5.47,1.61,1.09,3.23,2.16,4.85,3.24,137.15,90.88,262.5,127.75,329.42,180.42Z"/>
    <path class="cls-8" d="M3071.68,6097.18c-29.85,57.97-30.11,111.61-29.87,146.52,1.48,217.02,165.99,435.07,245.83,413.9,27.53-7.3,24.82-37.68,62.59-121.15,96.65-213.56,219.06-245.87,217.86-378.63-.11-12.56-1.8-78.25-47.34-135.08-62.27-77.71-161.28-82.4-180.56-83.31-114.23-5.41-220.68,64.86-268.52,157.75Z"/>
  </g>
  <g>
    <path class="cls-32" d="M3791.96,5186.13l-365.87-20.45c-44.75-2.5-83.31,36.23-86.12,86.5l-7.91,141.44c-2.81,50.27,31.19,93.06,75.94,95.56l365.87,20.45c44.75,2.5,83.31-36.23,86.12-86.5l7.91-141.44c2.81-50.27-31.19-93.06-75.94-95.56ZM3843.23,5400.06c-2.81,50.27-41.37,89-86.12,86.5l-325.87-18.22c-44.75-2.5-78.75-45.29-75.94-95.56l5.44-97.33c2.81-50.27,41.37-89,86.12-86.5l325.87,18.22c44.75,2.5,78.75,45.29,75.94,95.56l-5.44,97.33Z"/>
    <path class="cls-31" d="M3848.67,5302.73l-5.44,97.33c-2.81,50.27-41.37,89-86.12,86.5l-325.87-18.22c-44.75-2.5-78.75-45.29-75.94-95.56l5.44-97.33c2.81-50.27,41.37-89,86.12-86.5l325.87,18.22c44.75,2.5,78.75,45.29,75.94,95.56Z"/>
  </g>
  <g>
    <path class="cls-32" d="M4348.57,5217.36l-365.87-20.45c-44.75-2.5-83.31,36.23-86.12,86.5l-7.91,141.44c-2.81,50.27,31.19,93.06,75.94,95.56l365.87,20.45c44.75,2.5,83.31-36.23,86.12-86.5l7.91-141.44c2.81-50.27-31.19-93.06-75.94-95.56ZM4399.84,5431.3c-2.81,50.27-41.37,89-86.12,86.5l-325.87-18.22c-44.75-2.5-78.75-45.29-75.94-95.56l5.44-97.33c2.81-50.27,41.37-89,86.12-86.5l325.87,18.22c44.75,2.5,78.75,45.29,75.94,95.56l-5.44,97.33Z"/>
    <path class="cls-31" d="M4405.28,5333.97l-5.44,97.33c-2.81,50.27-41.37,89-86.12,86.5l-325.87-18.22c-44.75-2.5-78.75-45.29-75.94-95.56l5.44-97.33c2.81-50.27,41.37-89,86.12-86.5l325.87,18.22c44.75,2.5,78.75,45.29,75.94,95.56Z"/>
  </g>
  <rect class="cls-7" x="3848.42" y="5308.29" width="63" height="72" transform="translate(304.34 -208.23) rotate(3.2)"/>
</svg>