<?xml version="1.0" encoding="UTF-8"?>
<svg id="Sebie" xmlns="http://www.w3.org/2000/svg" viewBox="0 0 6780.92 8205.21">
  <defs>
    <style>
      .cls-1 {
        fill: #c1272d;
      }

      .cls-1, .cls-2, .cls-3, .cls-4, .cls-5, .cls-6, .cls-7, .cls-8, .cls-9, .cls-10, .cls-11, .cls-12, .cls-13, .cls-14, .cls-15, .cls-16, .cls-17, .cls-18, .cls-19, .cls-20, .cls-21, .cls-22, .cls-23, .cls-24, .cls-25, .cls-26, .cls-27, .cls-28, .cls-29, .cls-30, .cls-31, .cls-32 {
        stroke-width: 0px;
      }

      .cls-2 {
        fill: #b2ad97;
      }

      .cls-3 {
        fill: #be56c1;
      }

      .cls-4 {
        fill: #ed1c24;
      }

      .cls-5, .cls-8, .cls-9 {
        opacity: .4;
      }

      .cls-6 {
        fill: #470013;
      }

      .cls-7 {
        fill: #c6c0a7;
      }

      .cls-8 {
        fill: lime;
      }

      .cls-9 {
        fill: #ea4e4e;
      }

      .cls-10 {
        fill: #fcee21;
      }

      .cls-11 {
        fill: #e6e6e6;
      }

      .cls-13 {
        fill: #bcb7a2;
      }

      .cls-33 {
        fill: blue;
        stroke: #000;
      }

      .cls-33, .cls-34, .cls-35, .cls-36, .cls-37 {
        stroke-miterlimit: 10;
      }

      .cls-38 {
        font-size: 8.38px;
      }

      .cls-38, .cls-39, .cls-40 {
        font-family: Montserrat-Black, Montserrat;
        font-weight: 800;
      }

      .cls-14 {
        fill: #a54baa;
      }

      .cls-15 {
        fill: #662d91;
      }

      .cls-39 {
        font-size: 10.29px;
      }

      .cls-34 {
        fill: #39b54a;
        stroke: lime;
        stroke-width: 23px;
      }

      .cls-34, .cls-35 {
        opacity: .61;
      }

      .cls-16 {
        fill: #f7931e;
      }

      .cls-17 {
        fill: #b3b3b3;
      }

      .cls-18 {
        fill: #009245;
      }

      .cls-19 {
        fill: #333;
      }

      .cls-20 {
        fill: #ccc;
      }

      .cls-21 {
        fill: #954499;
      }

      .cls-22 {
        fill: #fff;
      }

      .cls-35 {
        fill: #29abe2;
        stroke: aqua;
        stroke-width: 27px;
      }

      .cls-23 {
        fill: aqua;
        opacity: .3;
      }

      .cls-24 {
        fill: #833dc1;
      }

      .cls-25 {
        fill: #b7b19a;
      }

      .cls-26 {
        fill: #42210b;
      }

      .cls-27 {
        fill: #78ccda;
      }

      .cls-28 {
        fill: #d4cdb0;
      }

      .cls-29 {
        fill: #faaf40;
      }

      .cls-30 {
        fill: #6d0f16;
      }

      .cls-36 {
        fill: none;
        stroke: #a39d81;
      }

      .cls-40 {
        font-size: 6.77px;
      }

      .cls-31 {
        fill: #7fd0e6;
      }

      .cls-32 {
        fill: #f2f2f2;
      }

      .cls-37 {
        fill: #a39d81;
        stroke: #969077;
      }
    </style>
  </defs>
  <path class="cls-32" d="M5472.3,3870.75c-33.71,108.1,86.92,260.71,117.58,299.51,160.21,202.68,392.28,223.28,401.84,187.77,5.03-18.71-56.93-33.63-117.58-127.25-108.75-167.86-51.83-339.55-136.99-423.66-78.84-77.86-233.88-35.65-264.85,63.63Z"/>
  <path class="cls-27" d="M4707,1531.65c-25.92-115.96,7.2-148.57-37.91-252.27-36.24-83.31-71.69-94.64-87.06-164.92-25.72-117.6,43.72-222.3,51.19-233.23,89.05-130.22,276.48-183.09,412.25-123.49,105.37,46.25,147.48,146.13,198.09,266.16,70.98,168.33,67.76,317.92,63.28,381.87-6,85.62-27.45,391.64-209.74,458.27-60.74,22.2-115.76,9.2-133.04,4.88-188.59-47.17-253.01-319.18-257.06-337.27Z"/>
  <path class="cls-31" d="M5188.37,1950.09c4.59-20.97,4.46-41.26-41.15-173.29-48.62-140.73-72.93-211.09-112.93-278.22-18.69-31.36-62.27-104.48-127.79-166.17-14.82-13.96-282.33-258.16-559.75-144.37-122.17,50.11-260.57,175.51-271.65,350.38-7.25,114.36,40.94,234.42,127.48,308.83,121.86,104.78,210.08,24.73,441.53,117.92,193.97,78.09,228.62,173.22,347.47,154.16,88.86-14.25,178.32-84.87,196.79-169.24Z"/>
  <path class="cls-11" d="M6280.47,2360.22c-2.22,193.26-37.87,291.85-77.6,473.45-18.35,83.89-27.08,158.15-29.56,224.77-88.28-14.42-212.27-12.02-394.26-8.5-221.24,4.28-272.98,31.64-404.87-4.81-135.11-37.34-184.88-94.8-254.15-101.33,19.93-332.56-276.74-624.98-148.01-965.88,69.07-182.9,220.76-274.4,269.81-300.79,265.95-143.13,625.36-50.54,796.8,133.25,56.61,60.69,95.89,125.87,117.91,164.53,48.25,84.71,125.81,220.87,123.93,385.32Z"/>
  <path class="cls-29" d="M6591.36,1617.14c-1.71,53.96-5.17,134.85-52.39,219.4-33.27,59.58-69.75,87.82-209.77,186.71-18,12.71-37.71,26.59-59.34,41.85-98.21,69.28-153.95,109.14-188.28,132.39-4.59,3.11-8.79,5.92-12.66,8.47-5.58,3.66-10.47,6.78-14.82,9.43-.25.15-.5.3-.74.45-.34.21-.67.41-1.01.61-.26.16-.52.31-.78.46-1.17.7-2.3,1.36-3.38,1.99-.25.14-.49.28-.73.42-.56.32-1.12.64-1.66.94-.26.14-.52.29-.77.43-.04.02-.08.05-.12.07-.47.26-.93.51-1.39.76-.25.14-.49.27-.73.4-.72.38-1.42.75-2.1,1.1-.24.13-.48.25-.72.37-.2.11-.41.21-.6.31-.29.14-.58.29-.86.43-.57.28-1.13.55-1.68.81-.27.13-.55.26-.82.38-1.05.48-2.07.93-3.05,1.34-.3.13-.6.25-.9.37-.1.04-.2.08-.29.12-.2.08-.41.16-.61.24-1.04.41-2.06.77-3.05,1.1-.2.07-.41.14-.61.2-.39.13-.77.25-1.16.36-.25.08-.5.15-.74.22-.14.04-.28.08-.41.12-.27.08-.55.15-.82.23-.27.08-.54.14-.82.21-.25.07-.51.13-.76.19-.29.07-.57.14-.86.2-.23.05-.47.11-.7.16-.85.19-1.7.35-2.55.51-.26.05-.53.09-.79.14-.19.03-.38.07-.57.1-.16.03-.32.05-.49.08-.2.03-.39.06-.59.09-.25.04-.51.08-.76.12-.02,0-.05,0-.07,0-.28.04-.56.08-.84.12-.28.04-.57.08-.85.12-.57.08-1.15.15-1.74.23-1.73.22-3.43.41-5.12.59-15.66,1.61-29.81,1.3-44.85-1.65,2.7-8.68,5-17.54,6.74-26.51,5.69-29.31,5.56-59.79-5.01-88.92-42-115.79-233.47-168.13-446.98-226.5-48.4-13.23-87.4-21.52-124.83-56.55-76.65-71.73-45.66-161.04-114.6-217.17-19.8-16.13-42.6-25.24-65.15-30.03-4.45-38.59-4.11-69.26-3.47-86.26,10.92-288.27,251.68-459.02,284.52-481.06,250.32-167.98,615.73-151.75,854.94,44.48,182.34,149.6,248.73,379.47,243.19,554.84Z"/>
  <path class="cls-15" d="M6178.2,3735.75c-125.8,196.27-406.85,280.94-635.58,248.15-4.6-.66-11.56-1.66-20.49-3.16-49.75-8.38-253.75-43.7-394.91-229.35-11.62-15.28-130.78-176.93-118.44-393.62,46.05-11.05,93.41-32.05,105.5-37.41,42.12-18.68,141.78-64.57,197.02-172.35,8.77-17.12,33.61-65.59,36.84-110.62,8.31,2.66,16.98,5.25,26.02,7.75,131.89,36.45,183.63,9.1,404.87,4.81,86.38-1.67,159.69-3.09,222.32-2.58,52.18.43,96.94,2.2,135.66,6.27,12.73,1.34,24.8,2.93,36.28,4.81-.13,3.47-.24,6.91-.34,10.33-3.97,142.09,20.33,249.02,38.82,340.71,24.2,119.98,38.46,213.87-33.59,326.27Z"/>
  <path class="cls-24" d="M5348.16,3037.38c-3.23,45.03-28.07,93.5-36.84,110.62-55.23,107.79-154.9,153.68-197.02,172.35-12.09,5.36-59.45,26.36-105.5,37.41.42-7.39.99-14.85,1.73-22.37,10.39-105.97,47.49-166.89,71.89-226.8,22.9-56.23,34.4-111.04,37.61-164.8,64.63,6.09,112.29,56.53,228.13,93.58Z"/>
  <path class="cls-3" d="M6389.35,2252.24c-5.74,41.79-12.73,92.7-48.68,120.61-1.47,1.14-2.99,2.25-4.56,3.31-29.47,19.95-46.18,4.9-104.68,26.77-54.6,20.41-56.17,39.56-87.23,41.21-30.07,1.59-58.91-14.75-81.73-36.27-14.5-13.68-26.57-29.45-34.98-44.04-.51-.89-1.02-1.78-1.51-2.67-6.92-12.56-11.59-25.04-14.64-38.48-5.6-24.68-5.77-52.6-4.51-90.22,1.69-.17,3.39-.37,5.12-.59.59-.08,1.17-.15,1.74-.23.29-.04.57-.08.85-.12.28-.04.56-.08.84-.12.02,0,.05,0,.07,0,.26-.04.51-.08.76-.12.2-.03.39-.06.59-.09.16-.02.32-.05.49-.08.19-.03.38-.06.57-.1.26-.05.53-.09.79-.14.85-.15,1.71-.32,2.55-.51.23-.05.47-.1.7-.16.29-.06.57-.13.86-.2.25-.06.51-.12.76-.19.27-.07.54-.14.82-.21.27-.07.54-.15.82-.23.14-.04.27-.08.41-.12.25-.07.49-.14.74-.22.38-.11.77-.23,1.16-.36.2-.07.41-.13.61-.2.99-.33,2.01-.7,3.05-1.1.2-.08.41-.16.61-.24.1-.04.2-.08.29-.12.3-.12.6-.24.9-.37.99-.41,2-.85,3.05-1.34.27-.12.54-.25.82-.38.55-.26,1.11-.53,1.68-.81.29-.14.57-.28.86-.43.2-.1.4-.2.6-.31.24-.12.48-.24.72-.37.68-.35,1.38-.72,2.1-1.1.24-.13.49-.26.73-.4.46-.24.92-.5,1.39-.76.04-.02.08-.04.12-.07.26-.14.51-.28.77-.43.54-.3,1.1-.62,1.66-.94.24-.14.48-.28.73-.42,1.09-.63,2.22-1.29,3.38-1.99.26-.15.51-.31.78-.46.33-.2.67-.4,1.01-.61.25-.15.49-.3.74-.45,4.35-2.65,9.24-5.77,14.82-9.43,3.87-2.54,8.07-5.35,12.66-8.47,33.03-22.38,85.89-60.13,177.36-124.69,3.58-2.53,7.22-5.1,10.92-7.71,21.63-15.26,41.34-29.14,59.34-41.85,15.96,20.87,26.8,41.42,33.39,53.92,39.5,74.92,30.77,145.93,26.77,175.06Z"/>
  <path class="cls-14" d="M5846.09,2782.17c-6.6,4.92-13.42,9.47-20.42,13.6-24.24,14.32-46.18,21.02-69.21,22.18-88.91,4.48-194.04-73.6-510.42-114.82-95.49-12.44-167.26-15.93-228-73.69-20.93-19.91-37.11-42.98-49.82-67.26-28.33-54.1-39.45-114.15-47.64-158.34-7.37-39.79-13.11-70.82-15.5-96.34.87.54,1.71,1.06,2.53,1.56,3.46,2.12,6.52,3.93,9.06,5.44,136.7,81.75,224.02-8.78,410.28,32.49,191.5,42.42,216.96,164.21,357.64,144.98,30.7-4.2,58.42-13.95,82.85-26.34,48.11-24.4,83.44-59.06,103.55-81.69,55.76,43.77,74.26,80.76,82.81,112.55,26.62,98.94-23.02,222.62-107.71,285.68Z"/>
  <path class="cls-3" d="M5968.74,2204.3c-1.74,8.97-4.03,17.83-6.74,26.51-10.76,34.53-28.08,66.18-43.63,90.38-3.67,5.7-7.23,10.99-10.6,15.81-9.22,13.21-16.88,22.86-20.74,27.73-3.13,3.94-8.52,10.73-16.04,19.2-20.1,22.63-55.44,57.29-103.55,81.69-24.43,12.4-52.15,22.15-82.85,26.34-140.69,19.23-166.14-102.56-357.64-144.98-186.26-41.26-273.58,49.27-410.28-32.49-2.54-1.52-5.59-3.33-9.06-5.44-.82-.5-1.67-1.02-2.53-1.56-26.68-16.56-73.78-49.99-99.7-109.1-38.25-87.21-18.57-178.33,9.99-254.43.5-1.34,1.01-2.68,1.52-4.01,10.73-28.1,22.57-54.07,33.01-76.95,44.6-97.84,111.61-244.8,251.46-275.23,2.43-.53,6.3-1.37,11.34-2.3,20.29-3.74,59.49-8.85,99.48-.35,22.55,4.79,45.35,13.9,65.15,30.03,68.94,56.14,37.95,145.44,114.6,217.17,37.43,35.02,76.43,43.32,124.83,56.55,213.51,58.37,404.98,110.71,446.98,226.5,10.57,29.14,10.7,59.62,5.01,88.92Z"/>
  <path class="cls-21" d="M5849.43,3128.15c-.63.44-1.26.88-1.89,1.31-70.61,48.37-158.65,38.87-333.19,20.04-52.43-5.65-161.48-20.04-301.7-64.07-161.43-50.69-242.15-76.03-273.12-132.95-33.7-61.94-17.65-148.17,14.44-320.65,5.75-30.9,10.02-53.62,14.25-69.66,12.71,24.27,28.89,47.35,49.82,67.26,60.75,57.77,132.51,61.25,228,73.69,316.38,41.22,421.51,119.31,510.42,114.82l1.17-.06c.69-.04,1.37-.08,2.06-.14.36-.03.72-.05,1.08-.08.25-.02.5-.04.75-.06.46-.04.93-.08,1.39-.13.36-.03.72-.07,1.07-.11.3-.03.6-.06.89-.1.87-.1,1.73-.2,2.6-.32.26-.03.52-.07.78-.11.71-.1,1.42-.2,2.13-.31.98-.15,1.96-.31,2.94-.48.52-.09,1.03-.19,1.55-.28.26-.05.52-.1.79-.15.25-.05.5-.1.75-.15.29-.06.57-.12.85-.17.21-.05.42-.09.63-.13.34-.07.67-.14,1-.22.58-.13,1.16-.26,1.74-.4.84-.2,1.68-.4,2.52-.62.27-.07.55-.14.82-.21.28-.08.57-.15.85-.23.32-.08.63-.17.95-.26.39-.11.79-.22,1.18-.33,1.57-.45,3.15-.93,4.73-1.45.39-.13.79-.26,1.19-.39,3.56-1.19,7.13-2.54,10.73-4.07.4-.17.8-.34,1.2-.51,1.38-.6,2.77-1.22,4.16-1.87.36-.17.73-.34,1.09-.51.36-.17.73-.35,1.1-.52,2.6-1.25,5.22-2.6,7.86-4.03.32-.17.64-.35.96-.52.39-.22.78-.43,1.17-.65.33-.19.67-.37,1.01-.56.56-.32,1.12-.64,1.69-.97.23-.14.46-.27.69-.4.38-.22.75-.44,1.13-.66,7.01-4.14,13.82-8.69,20.42-13.6,53.89,19.23,88.16,41.26,105.31,82.49,35.08,84.33-19.53,205.56-101.97,263.49Z"/>
  <path class="cls-14" d="M6343.33,2546.41c-3.34,21.65-7.72,40.14-12.31,56.91-14.59,53.25-31.32,89.2-23.48,154.25,2.91,24.19,7.07,34.56,0,47.53-17.81,32.63-87.29,45.92-154.38,31.56-40.36-8.64-79.85-27.28-106.71-57.73-2.61-2.96-5.02-6.1-7.26-9.46-16.84-25.22-24.37-62.93-37.86-130.41-15.43-77.18-26.82-137.85-4.81-209.05,7.01-22.68,14.45-46.77,29.47-68.85.49.89.99,1.78,1.51,2.67.26.46.53.91.8,1.37.23.4.48.8.72,1.21.35.57.7,1.15,1.05,1.73.25.4.5.81.75,1.21.29.46.58.93.88,1.39.3.46.6.93.9,1.4.55.85,1.12,1.71,1.7,2.56.42.62.84,1.24,1.27,1.86.24.35.49.7.73,1.05.06.08.12.17.18.25.3.44.61.87.93,1.31.53.74,1.07,1.48,1.62,2.22.19.26.38.52.58.79.44.59.88,1.17,1.33,1.76.45.59.9,1.17,1.36,1.76.5.64,1,1.28,1.51,1.91.36.45.72.9,1.08,1.34.07.08.14.17.2.25.66.81,1.34,1.62,2.02,2.43.78.93,1.57,1.85,2.38,2.77.23.27.47.54.71.81.27.3.54.61.81.91.35.39.7.78,1.06,1.17.5.55,1.01,1.1,1.52,1.65.33.35.66.71.99,1.06.42.45.85.89,1.28,1.34.38.39.75.78,1.13,1.17.48.5.97.99,1.47,1.48.44.44.88.88,1.32,1.31.35.35.71.69,1.06,1.03l.63.6c.33.32.66.63,1,.95,22.82,21.52,51.66,37.87,81.73,36.27,31.06-1.65,32.63-20.79,87.23-41.21,58.49-21.87,75.2-6.82,104.68-26.77,1.57-1.06,3.09-2.17,4.56-3.31,22.26,46.32,13.1,105.77,2.66,173.56Z"/>
  <path class="cls-21" d="M6324.38,3037.91c-17,26.25-42.95,65.31-92.64,92.64-16.44,9.04-36.41,17.31-57.85,23.31-53.54,14.99-116.24,15.81-156.02-20.91-8.89-8.21-15.76-17.49-21.04-27.78-7.6-14.82-11.89-31.74-14.13-50.6-3.51-29.51-2.01-63.75-.32-102.1,2.26-51.49,4.61-105.03,37.9-159.12,5.45-8.86,10.45-15.64,18.91-23.89,2.24,3.36,4.65,6.5,7.26,9.46.41.46.82.92,1.23,1.38.04.04.07.08.11.12.27.3.55.6.83.9.2.22.41.44.61.66.68.72,1.36,1.44,2.06,2.16.2.21.41.42.62.63.38.39.77.78,1.16,1.17.4.4.8.79,1.21,1.19.31.3.61.59.92.88.25.25.51.49.76.73.1.1.2.19.3.28.55.51,1.1,1.03,1.66,1.53.08.08.17.16.26.23.19.18.38.35.58.52.31.28.63.56.94.83.66.58,1.32,1.16,1.99,1.73.29.25.59.5.89.75,1.36,1.15,2.74,2.27,4.14,3.37.29.23.58.46.87.68.37.29.74.57,1.11.85.37.28.74.56,1.11.83.3.23.6.45.9.66.82.6,1.64,1.2,2.46,1.79.27.19.54.39.82.57.17.12.34.24.51.35.3.21.6.42.91.63.05.04.11.08.16.11.69.47,1.37.94,2.07,1.4.06.04.12.08.18.12.32.21.63.42.95.63.11.07.22.14.33.22.33.22.66.43,1,.64.39.25.78.5,1.18.75.39.25.79.5,1.18.74.39.25.79.49,1.19.73.4.24.79.48,1.19.72.4.24.8.48,1.2.71.27.16.54.32.82.48.27.16.54.31.8.47.26.16.53.31.8.46.77.45,1.55.88,2.33,1.31.05.03.11.06.16.09.3.17.61.34.91.5.17.1.35.19.53.29.32.17.65.35.97.52.83.45,1.67.88,2.51,1.32.4.21.81.42,1.22.62.86.44,1.73.87,2.6,1.29.38.19.77.38,1.16.56,0,0,.02.01.03.01.41.2.81.39,1.22.58.86.41,1.72.81,2.59,1.2.37.17.74.34,1.11.5,1.42.64,2.85,1.26,4.28,1.87.28.12.57.24.85.36,1.37.57,2.75,1.13,4.13,1.68.43.17.86.34,1.29.51.45.17.89.35,1.34.51.44.17.88.33,1.32.5.39.15.78.29,1.17.43.93.35,1.87.68,2.81,1.01.37.13.74.26,1.11.39.12.04.24.08.36.13.36.12.72.25,1.08.37,1.17.4,2.35.79,3.52,1.16.53.17,1.06.34,1.59.51.36.11.72.23,1.08.34.66.2,1.33.41,1.99.6.32.1.63.19.95.28.41.12.81.24,1.22.36,2.95.86,5.92,1.66,8.9,2.4.39.1.78.19,1.16.29.6.15,1.21.29,1.81.44.49.12.98.23,1.47.35.38.09.75.17,1.13.26.35.08.7.16,1.06.24.58.13,1.16.26,1.75.38,67.09,14.36,136.57,1.08,154.38-31.56,7.07-12.96,2.91-23.33,0-47.53-7.84-65.05,8.89-101,23.48-154.25,41.21,45.69,46.37,163.94,47.81,196.96,2.19,50.2,5.06,145.75-54.44,237.63Z"/>
  <path class="cls-32" d="M6088.43,2812.52c.77.44,1.55.88,2.33,1.31-.78-.43-1.56-.86-2.33-1.31Z"/>
  <path class="cls-19" d="M6034.31,2374.7c-.58-.85-1.15-1.71-1.7-2.56.56.85,1.12,1.71,1.7,2.56Z"/>
  <path class="cls-19" d="M5770.38,2816.54c.98-.15,1.96-.31,2.94-.48-.98.17-1.96.34-2.94.48Z"/>
  <path class="cls-12" d="M6039.19,2769.47c-8.46,8.25-13.46,15.03-18.91,23.89-33.29,54.09-35.64,107.63-37.9,159.12-1.68,38.35-3.19,72.59.32,102.1,0,.03,0,.06.01.09.06.5.12,1,.18,1.51.02.12.03.24.05.36.05.41.11.81.16,1.22.09.7.19,1.39.29,2.08.08.57.17,1.14.25,1.71.09.6.19,1.2.28,1.8.08.53.17,1.05.26,1.58,0,.05.02.1.02.15.07.42.14.84.22,1.25.05.28.1.56.15.83.02.12.04.24.07.36.08.41.15.82.23,1.23.3,1.61.63,3.2.97,4.77.1.47.2.93.31,1.4.01.05.02.11.04.16.08.33.15.66.23.98.08.36.17.71.25,1.06.11.46.22.91.34,1.37.23.91.46,1.81.71,2.7.09.33.18.67.28,1,.04.15.08.31.13.46.08.26.15.52.22.78.08.3.17.59.26.89.04.14.08.27.12.4.14.46.27.91.42,1.37.16.51.32,1.03.49,1.54.16.49.32.99.49,1.48.02.06.04.12.06.18.15.46.31.92.47,1.37,0,.02.01.04.02.06.15.42.3.84.45,1.26.06.15.11.3.17.45.14.37.27.74.41,1.11.03.07.05.14.08.21.18.47.36.94.54,1.4.17.43.34.87.52,1.3.22.54.45,1.09.68,1.62.18.43.37.86.56,1.29.06.14.12.28.19.42.14.32.28.64.43.96.08.19.17.37.26.56.2.43.39.85.6,1.27.12.26.25.52.38.77.3.62.6,1.23.92,1.83-16.94,7.66-34.66,13.76-52.55,18.15-32.9,8.07-66.39,10.38-96.74,6.12.63-.43,1.26-.87,1.89-1.31,82.44-57.94,137.05-179.16,101.97-263.49-17.15-41.22-51.42-63.25-105.31-82.49,84.69-63.06,134.33-186.74,107.71-285.68-8.55-31.78-27.06-68.77-82.81-112.55,7.52-8.47,12.91-15.26,16.04-19.2,5.27-6.64,17.62-22.2,31.34-43.54,15.56-24.2,32.88-55.85,43.63-90.38,15.04,2.94,29.19,3.26,44.85,1.65-1.94,58.1-.5,93.07,19.15,128.7-15.02,22.08-22.46,46.16-29.47,68.85-22,71.2-10.61,131.87,4.81,209.05,13.49,67.48,21.03,105.19,37.86,130.41Z"/>
  <path class="cls-4" d="M6600.81,1708.4c-1.68.37-.05,14.24,2.71,26.17,2.3,9.97,3.87,16.76,6.92,17.15,5.03.64,11.14-16.52,13.54-23.46,20.39-59.08,25.57-104.07,25.57-104.07,3.86-33.53,10.14-98.82,6.62-99.26-2.65-.33-9.32,36.01-12.93,55.65-5.95,32.39-19.25,111.59-19.25,111.59-3.44,20.51-6.6,38.7-11.43,38.8-5.48.12-9.54-23.04-11.73-22.56Z"/>
  <path class="cls-10" d="M5968.74,2204.3c-1.74,8.97-4.03,17.83-6.74,26.51-10.76,34.53-28.08,66.18-43.63,90.38-3.67,5.7-7.23,10.99-10.6,15.81-33.08-23.03-73.44-56.19-134.74-54.39-79.28,2.33-97.54,65.7-154.01,49.33-84.56-24.52-86.02-146.63-172.35-166.34-63.27-14.44-91.8,44.44-151,24.67-68.54-22.9-55.97-110.42-120.02-135.66-82.41-32.47-175.07,84.07-218.68,52.34-41.24-30.01,25.7-145.84-18.65-184.69-26.78-23.46-75.07-2.14-121.44,17.69,10.73-28.1,22.57-54.07,33.01-76.95,44.6-97.84,111.61-244.8,251.46-275.23,2.43-.53,6.3-1.37,11.34-2.3,20.29-3.74,59.49-8.85,99.48-.35,22.55,4.79,45.35,13.9,65.15,30.03,68.94,56.14,37.95,145.44,114.6,217.17,37.43,35.02,76.43,43.32,124.83,56.55,213.51,58.37,404.98,110.71,446.98,226.5,10.57,29.14,10.7,59.62,5.01,88.92Z"/>
  <path class="cls-10" d="M6381.23,2209.22c-2.85,35.42-31.23,75.92-65.87,82.42-47.39,8.89-79.05-51-114.6-37.3-33.03,12.72-24.94,71.79-54.74,79.11-28.52,7-47.44-44.24-87.23-41.81-22.27,1.36-36.21,18.63-47.43,31.04-5.6-24.68-5.77-52.6-4.51-90.22,1.69-.17,3.39-.37,5.12-.59.59-.08,1.17-.15,1.74-.23.29-.04.57-.08.85-.12.28-.04.56-.08.84-.12.02,0,.05,0,.07,0,.26-.04.51-.08.76-.12.2-.03.39-.06.59-.09.16-.02.32-.05.49-.08.19-.03.38-.06.57-.1.26-.05.53-.09.79-.14.85-.15,1.71-.32,2.55-.51.23-.05.47-.1.7-.16.29-.06.57-.13.86-.2.25-.06.51-.12.76-.19.27-.07.54-.14.82-.21.27-.07.54-.15.82-.23.14-.04.27-.08.41-.12.25-.07.49-.14.74-.22.38-.11.77-.23,1.16-.36.2-.07.41-.13.61-.2.99-.33,2.01-.7,3.05-1.1.2-.08.41-.16.61-.24.1-.04.2-.08.29-.12.3-.12.6-.24.9-.37.99-.41,2-.85,3.05-1.34.27-.12.54-.25.82-.38.55-.26,1.11-.53,1.68-.81.29-.14.57-.28.86-.43.2-.1.4-.2.6-.31.24-.12.48-.24.72-.37.68-.35,1.38-.72,2.1-1.1.24-.13.49-.26.73-.4.46-.24.92-.5,1.39-.76.04-.02.08-.04.12-.07.26-.14.51-.28.77-.43.54-.3,1.1-.62,1.66-.94.24-.14.48-.28.73-.42,1.09-.63,2.22-1.29,3.38-1.99.26-.15.51-.31.78-.46.33-.2.67-.4,1.01-.61.25-.15.49-.3.74-.45,4.35-2.65,9.24-5.77,14.82-9.43,3.87-2.54,8.07-5.35,12.66-8.47,33.03-22.38,85.89-60.13,177.36-124.69,66.31,24.19,126.88,79.44,122.3,136.41Z"/>
  <path class="cls-26" d="M5909.34,1205.84c-34.54-41.4-100.45-70.26-134.61-52.86-42.44,21.62,3.93,94.42-25.84,201.82-28.84,104.03-96.22,121.89-76.12,186.86,12.08,39.04,50.74,78.94,87.24,85.5,72.11,12.95,117.7-107.5,140.23-167.03,29.69-78.43,69.05-182.41,9.09-254.28Z"/>
  <path class="cls-22" d="M5834.31,1514.87c-3.76-10.04-14.51-19.58-22.39-18.32-9.79,1.58-5.97,18.37-19.43,37.19-13.03,18.23-27.4,17.57-28.13,31.26-.44,8.23,4.23,18.24,10.86,21.71,13.09,6.86,30.55-13.5,39.18-23.57,11.37-13.26,26.44-30.84,19.91-48.28Z"/>
  <path class="cls-26" d="M6220.02,1236.09c-41.91-27.91-109.07-34.68-135.58-8.2-32.95,32.91,27.72,86.35,28.21,194.95.48,105.19-56.05,142.18-21.2,196.32,20.94,32.53,66.21,57.81,100.99,52.82,68.69-9.86,79.21-135.35,84.41-197.37,6.85-81.72,15.93-190.05-56.83-238.51Z"/>
  <path class="cls-22" d="M6239.88,1549.35c-6.53-8.51-19.59-14.5-26.76-10.99-8.91,4.36-.36,19.31-7.74,41.24-7.15,21.23-21.09,24.8-17.79,38.11,1.98,8,9.37,16.21,16.72,17.6,14.52,2.74,25.28-21.83,30.6-33.97,7.01-16,16.3-37.21,4.97-51.99Z"/>
  <g>
    <path class="cls-6" d="M5277.02,1587.18c23.24,1.8,30.93-71.45,94.45-185.29,60.31-108.09,165.58-243.14,211.76-224.69,27.63,11.03,30.22,75.44,22.56,117.31-17.15,93.74-97.9,141.4-91.14,149.49,6.88,8.24,99.95-29.74,149.79-117.01,32.49-56.89,31.12-107.59,45.72-107.38,14.5.2,32.38,50.4,26.17,98.66-5.24,40.72-23.73,49.77-34.59,83.92-27.33,85.97,40.51,183.76,47.83,181.38,4.46-1.45-16.83-39.07-11.43-100.46,3.51-39.96,14.36-44.82,36.1-126.93,12.56-47.46,15.14-69.28,21.36-69.18,8.21.13,16.87,38.36,16.54,74.3-.5,55.16-22.12,98.37-21.36,98.66,1.42.55,46.84-161,85.73-158.22,21.63,1.55,39.07,53.79,42.71,97.46,11.56,138.78-111.16,252.56-103.77,258.38,4.32,3.41,48.58-33.75,85.73-92.04,72.95-114.49,46.15-245.73,67.38-247.25,7.71-.55,14.7,16.01,18.35,24.67,17.46,41.37,1.44,74.98-1.8,108.89-8.08,84.5,64.18,160.25,69.18,157.92,2.53-1.18-10.19-23.38-19.85-62.56-21.2-86-14.4-200.13,26.47-213.86,19.44-6.53,43.63,10.63,55.95,24.67,42.96,48.94,10.11,137.99,18.05,139.87,10.17,2.41,44.52-148.69,72.49-146.49,14.52,1.14,22.09,43.17,23.16,49.33,26.44,152.56-124.9,301.94-111.89,312.82,6.78,5.68,59.08-25.61,97.16-87.23,72.56-117.43,35.41-251.07,70.69-258.68,13.69-2.95,28.45,15.2,36.4,24.97,27.38,33.66,17.02,69.12,24.67,120.02,11.04,73.47,51.53,125.33,55.95,123.63,4.31-1.66-21.66-55.63-26.47-136.56-2.2-37.07-2.09-115.57,18.35-120.32,15.55-3.61,39.45,36.24,77.3,120.32,102.29,227.23,115.41,353.42,133.25,352.23,28.46-1.9,122.93-331.61-46.02-609.41-126.49-207.99-333.77-276.95-411.79-302.9-89.72-29.85-384.88-111.09-648.81,51.13-40.73,25.03-223.67,137.48-263.49,337.49-24.63,123.73,10.36,256.59,41.21,258.98Z"/>
    <path class="cls-30" d="M5626.54,950.41c-2.6-4.89-134.38,31.51-243.64,143.78-95.95,98.59-133.19,213.2-129.34,215.37,3.34,1.88,37.23-80.94,117.61-170.55,122.23-136.26,258.06-183.55,255.37-188.6Z"/>
    <path class="cls-30" d="M6383.34,1360.09c-.06.81,24.02-2.53,41.51,12.03,14.05,11.7,17.08,29.3,18.35,35.79,7.3,37.27,21.59,38.43,58.65,121.52,42.44,95.16,49.97,152.55,54.14,151.6,7.61-1.73-50.36-184.97-76.1-258.08-4.92-13.98-14.81-40.86-40.31-55.05-26.17-14.56-56.18-8.73-56.25-7.82Z"/>
    <path class="cls-30" d="M5618.12,1191.64c-1.01.24,9.77,24.97,9.63,60.46-.38,93.21-75.7,156.69-70.08,161.53,4.39,3.78,58.04-28.31,76.1-86.93,20.36-66.1-13.93-135.45-15.64-135.06Z"/>
    <path class="cls-30" d="M6117.61,1341.4c-.07.15,7.3,7.11,13.84,21.15,20.44,43.87,8.8,105.55,12.25,107.03,2.61,1.11,13.94-32.08,7.3-66.75-7.31-38.18-33.26-61.7-33.4-61.42Z"/>
    <path class="cls-30" d="M6006.14,921.23c3.84-8.94,79.63,15.07,117.61,28.27,190.49,66.24,349.19,180.64,341.4,194.91-8.5,15.56-216.45-85.21-285.75-120.02-22.41-11.25-178.97-89.89-173.26-103.17Z"/>
    <path class="cls-30" d="M5911.09,1317.07c.1-.04,8.23,15.72,13.84,34.59,5.45,18.35,12.88,54.34,0,109.79-19.61,84.41-68.86,138.91-64.97,141.67,2.24,1.59,19.39-15.93,34.29-37,11.58-16.38,58.55-82.8,47.53-163.93-6.47-47.61-30.84-85.06-30.68-85.12Z"/>
    <path class="cls-30" d="M6240.16,1415.43c.34.01,2.98,21.99-1.2,55.65-16.66,134.07-113.28,225.3-109.19,228.6,2.47,1.99,42.39-27.25,72.49-83.92,50.71-95.48,37.16-200.36,37.9-200.33Z"/>
    <path class="cls-30" d="M5897.56,936.27c-2.74-7.53-72.78,10.66-112.8,23.16-146.43,45.74-260.18,130.73-255.37,139.57,1.74,3.2,33.37-9.65,96.55-35.49,43.85-17.94,276.73-113.18,271.62-127.24Z"/>
    <path class="cls-30" d="M6069.01,1009.96c1.03-2.06,43.72,14.78,83.92,35.49,158.69,81.75,255.79,211.95,253.57,214.16-.85.85-16.22-17.13-75.5-67.68-43.51-37.1-81.62-69.6-131.15-103.47-73.71-50.41-132.05-76.07-130.84-78.51Z"/>
    <path class="cls-30" d="M5936.96,1013.57c-1.88,1.11,18.65,28.09,38.5,79.71,47.59,123.75,29.97,229.78,37,230.11,5.19.24,22.81-57.23,12.63-127.84-15.27-105.99-84.85-183.91-88.13-181.98Z"/>
    <path class="cls-30" d="M6562.01,1267.14c1.34-.7,17.05,23.55,31.28,52.94,25.62,52.91,35.13,99.06,43.92,143.18,5.01,25.13,8.47,48.3,7.82,48.43-.93.18-7.67-47.56-24.06-101.97-25.39-84.24-61.01-141.51-58.96-142.58Z"/>
    <path class="cls-30" d="M5281.23,1573.95c1.92.92,14.75-20.19,24.67-41.81,11.78-25.69,15.47-43.42,19.85-58.35,11.88-40.51,33.09-70.92,75.5-131.75,21.75-31.2,35.69-47.52,34.29-48.73-1.98-1.7-35.12,26.42-63.17,65.87-12.58,17.7-19.52,31.18-70.39,157.92-16.08,40.07-22.36,56.08-20.75,56.85Z"/>
    <path class="cls-30" d="M5810.33,1272.86c-1.02.35.75,5.93,3.61,22.26,6.5,37.11,5.82,56.5,8.12,56.55,2.14.04,5.81-16.6,4.51-33.69-1.91-25.19-14.21-45.81-16.24-45.12Z"/>
    <path class="cls-30" d="M6351.45,1485.22c-2.64.64.17,22.07,2.41,34.89,8.89,51.08,31.37,96.17,35.49,94.75,4.5-1.55-12.03-58.8-17.75-77.6-1.42-4.68-16.12-53.01-20.15-52.04Z"/>
  </g>
  <path class="cls-16" d="M5979.97,1604.03c4.56.59.87,16.83,11.13,46.62,11.93,34.62,28.41,46.06,23.16,54.74-5.97,9.87-36.02,9.49-50.53-5.41-26.8-27.53,6.64-97.2,16.24-95.95Z"/>
  <path class="cls-22" d="M5706.6,1681.38c7.9-8.01,45.84,41.14,126.9,77.19,174.83,77.73,360.63,10.2,368.09,40.57,2.45,9.96-18.12,14.79-49.43,51.73-43.25,51.03-36.89,80.62-61.75,97.76-49.59,34.19-150.35-31.49-190.59-57.72-122.87-80.09-205.19-197.4-193.23-209.52Z"/>
  <path class="cls-10" d="M4932.31,2865.85c-7.33,4.65-.28,28.8,3.61,42.11,0,0,9.57,32.78,34.59,59.86,57.22,61.92,234.5,112.79,238.83,99.86,2.41-7.19-54.55-16.37-134.15-75.8-85.18-63.6-129.24-134.68-142.88-126.03Z"/>
  <path class="cls-10" d="M6209.48,3122.43c12.27-4.87,28-12.46,44.52-24.36,42.59-30.7,68.48-74.28,64.67-77.6-2.99-2.61-27.03,17.09-109.19,101.97Z"/>
  <path class="cls-10" d="M5253.86,3083.03c1.81,13.38,32.5,15.79,148.89,33.09,57.88,8.6,123.66,18.91,256.88,33.99,50.67,5.73,79.7,8.61,117.31-2.11,61.9-17.63,104.97-60.06,101.07-67.08-5.04-9.04-79.29,56.42-166.04,38.5-64.59-13.34-71.23-59.5-130.54-61.36-57.77-1.81-70.01,41.4-123.02,34.29-51.83-6.95-58.45-50.71-110.39-55.05-47.44-3.96-96.55,27.97-94.15,45.72Z"/>
  <path class="cls-10" d="M6003.74,3086.04c-2.16,1.88,5.47,18.05,19.25,32.18,28.17,28.9,66.39,33.23,77,34.29,35.03,3.49,65.81-6.64,65.57-9.63-.14-1.77-11.05.51-26.17-5.41-17.23-6.75-17.68-15.45-29.78-17.45-16.72-2.76-27.07,11.99-34.29,6.92-7.89-5.55,1.98-24.93-6.02-30.68-6.94-4.99-16.82,7.86-33.99,6.32-18.49-1.66-29.26-18.57-31.58-16.54Z"/>
  <path class="cls-10" d="M5427.42,2698.31c-8.51-42.85,58.49-97.84,73.69-89.34,17.08,9.56-24.65,102.91-12.33,108.59,16.41,7.57,101.52-153.11,114-147.09,11.93,5.75-53.9,158.12-40.31,164.83,13.21,6.53,88.21-131.16,106.78-122.72,16.93,7.69-29.51,129.4-10.53,138.36,20.13,9.51,91.42-118.28,112.2-108.59,18.12,8.46-15.52,115.24-8.72,117.31,8,2.43,47.75-147.38,75.2-143.78,14.77,1.94,23.83,48.03,17.45,84.22-.43,2.46-11.55,60.26-61.06,86.03-33.83,17.61-67.09,10.62-119.41-1.8-160.83-38.19-241.36-57.86-246.95-86.03Z"/>
  <path class="cls-10" d="M6257.31,2814.12c15.8-21.13,3.25-59.75-3.15-60.03-7.86-.34-12.75,56.77-20.84,56.49-9.95-.34-12.01-100.5-19.64-100.63-7.29-.13-12.66,91.16-21.02,91.1-8.12-.06-10.9-86.4-22.13-86.85-10.24-.41-17.55,70.98-29.11,70.69-12.26-.31-15.67-80.86-28.3-81.24-11.01-.33-20.92,60.55-24.78,59.89-4.54-.78,13.03-84.35-1.37-89.38-7.75-2.71-23.63,17.73-29.46,37.12-8.51,28.31,5.9,52.61,8.73,57.46,15.72,27.01,42.86,36.39,70.15,45.38,21,6.92,97.02,31.96,120.92,0Z"/>
  <path class="cls-10" d="M4931.11,2337.06c-6.81,2.23,13.38,80.34,17.15,94.75,26.81,102.7,45,134.83,52.94,147.99,23.37,38.73,41.83,69.32,70.08,70.08,43.46,1.17,82.66-68.97,71.59-82.72-10.69-13.28-69.32,24.73-77.91,12.63-11.49-16.2,86.85-93.84,73.09-116.71-10.2-16.96-66.21,22.55-119.72,0-65.63-27.66-79.63-128.52-87.23-126.03Z"/>
  <path class="cls-10" d="M6333.41,2387.59c2.42-.21,6.33,20,8.72,36.4,3.39,23.2,6.66,46.73,3.01,77.3-3.08,25.73-5.51,46.11-20.15,53.84-11.63,6.14-27.61,2.53-28.58-1.8-1.21-5.42,21.16-11.74,20.15-18.65-1.26-8.64-37.24-5.7-39.7-15.64-2.07-8.33,22.28-14.16,38.8-33.99,30.7-36.85,13.55-97.09,17.75-97.46Z"/>
  <g>
    <path class="cls-12" d="M6162.59,623.21c-39.47-43.58,37.02-186.29,105.89-274.05,101.79-129.72,288.91-269.37,407.1-218.1,22.81,9.89,56.21,32.6,55.27,57.02-1.4,36.51-79.58,77.64-142.08,62.94-38.69-9.1-43.22-32.98-75.09-35.44-25.93-2.01-51.03,11.62-118.42,83.9-84.82,90.95-127.23,136.43-144.19,185.82-26.08,75.94-13.49,138.94-46.5,149.97-13.81,4.62-32.03-1.06-41.98-12.04Z"/>
    <path class="cls-12" d="M6031.15,596.98c48.26-33.59,5.81-189.84-41.56-290.84-70.02-149.29-220.95-327.43-347.64-304.05-24.45,4.51-62.1,19.13-66.68,43.13-6.85,35.89,60.08,93.55,124.29,93.27,39.75-.17,49.53-22.42,81.14-17.65,25.72,3.88,47.11,22.8,96.53,108.37,62.2,107.69,93.3,161.54,98.72,213.48,8.34,79.86-18.09,138.41,11.59,156.58,12.42,7.6,31.45,6.17,43.62-2.3Z"/>
    <path class="cls-3" d="M5864.48,560.32c-18.15,36.35,33.9,77.78,12.33,125.8-25.01,55.69-121.54,58.99-174.17,65.31-266.11,31.94-456.13,266.73-479.19,295.23-150.81,186.34-158.73,401.66-161.84,486.33-3.44,93.52-5.98,203.32,62.87,312.38,40.97,64.9,96,104.13,144.99,140.24,105.63,77.86,131.76,58.4,236.44,128.2,142.07,94.74,155.83,171.85,234.63,169.73,84.12-2.26,141.65-92.09,149.5-104.73,10.77-17.33,59.22-100.49,27.67-174.85-19.37-45.64-59.59-66.09-164.84-109.85-256.49-106.64-294.17-100.2-344.13-154.69-71.99-78.5-76.83-182.44-79.72-244.37-1.89-40.65-3.83-191.92,104.68-329.54,116.47-147.7,283.97-174.52,361.58-187.19,210.4-34.35,449.4,28.72,596.21,184.78,70.35,74.78,112.35,163.29,127.24,197.12,17.7,40.21,49.68,114.59,57.46,216.98,5.68,74.8,10.42,137.23-20.15,204.64-41.38,91.25-141.25,177.92-246.97,217.28-33.57,12.5-62.86,18.42-82.12,47.25-31.82,47.64-10.8,119.77,15.04,162.21,6.77,11.12,52.98,87,119.72,87.27,52.21.21,78.07-46,197.03-176.96,55.56-61.16,68.7-71.03,81.94-86.06,146.96-166.86,229.44-686.22-15.76-952.8-129.3-140.57-233.73-207.05-233.73-207.05-62.65-39.88-129.03-71.69-131.76-124.29-2.66-51.39,56.55-68.75,54.75-107.14-4.02-85.6-404.89-171.02-449.71-81.26Z"/>
    <path class="cls-10" d="M5795.05,751.61c-1.13-4.44-54.88-.76-140.77,24.06-55.45,16.03-120.06,35.16-196.12,79.41-104.51,60.81-164.22,130.39-163.33,131.45.65.78,31.39-39.12,76.1-40.31,38.25-1.01,66.73,26.85,74,18.65,7.87-8.88-23.13-44.28-15.64-52.04,7.91-8.2,47.59,26.15,60.16,15.94,12.58-10.22-12.98-56.24-4.21-61.66,9.73-6.02,46.65,47.31,60.76,40.31,13.48-6.69-4.01-63.4,4.21-66.17,8.49-2.86,30.41,56.53,45.12,53.54,14.96-3.04,10.17-68.12,22.26-69.78,11.4-1.57,24.61,55.11,36.1,53.54,12.11-1.65,8.19-66.12,22.26-68.58,13.03-2.28,30.39,50.62,39.1,48.13,6.46-1.84-4.54-30.46,7.22-56.55,17.6-39.05,73.96-45.36,72.79-49.93Z"/>
    <path class="cls-10" d="M6230.11,822.41c2.24-3.99,53.21,13.49,129.72,59.74,49.4,29.86,106.84,65.08,168.82,127.54,85.17,85.82,124.79,168.51,123.66,169.3-.83.58-20.18-45.92-63.05-58.66-36.68-10.9-71.41,8.63-76.3-1.17-5.3-10.62,33.82-36.77,28.6-46.2-5.52-9.97-52.75,12.91-62.23-.2-9.5-13.13,27.12-50.95,20.05-58.46-7.84-8.34-57.32,33.6-69.13,23.17-11.28-9.96,20.31-60.19,13.09-65-7.46-4.97-44.03,46.71-57.46,40.01-13.66-6.81,7.84-68.43-3.4-73.17-10.6-4.47-38.05,46.84-48.74,42.35-11.27-4.74,9.23-65.98-3.72-72.01-11.99-5.58-42.47,41.01-50.24,36.34-5.76-3.46,12.28-28.24,7.69-56.49-6.87-42.28-59.67-62.99-57.36-67.1Z"/>
    <path class="cls-10" d="M5236.73,1062.34c-4.14-1.96-35.65,41.74-71.41,123.68-23.09,52.9-49.65,114.83-64.19,201.61-19.98,119.25-4.58,209.64-3.21,209.63,1.01,0-10.05-49.14,17.6-84.3,23.66-30.08,63.29-34.19,61.62-45.02-1.81-11.73-48.84-10.5-50.03-21.21-1.25-11.32,50.52-19.91,50.7-36.1.18-16.21-51.56-25.94-50.13-36.15,1.58-11.34,66.2-5.67,69.82-21,3.46-14.64-51.34-37.42-48.22-45.51,3.22-8.36,62.92,12.71,70.02-.51,7.22-13.45-45.91-51.35-39.47-61.7,6.08-9.77,58.12,16.27,64.25,6.43,6.47-10.37-45.63-48.54-38.54-60.94,6.57-11.49,58.35,8.96,62.01.66,2.71-6.15-26.33-15.97-38.9-41.68-18.8-38.49,12.35-85.88,8.09-87.9Z"/>
    <path class="cls-10" d="M6696.54,1231.4c3.82-1.11,24.81,40.67,44.19,115.81,12.52,48.51,26.76,105.23,27.29,181.6.73,104.94-24.9,180.29-26.07,180.09-.87-.15,15.37-40.73-3.5-74.66-16.14-29.03-49.53-38-46.62-47.05,3.16-9.8,43.3-2.28,45.79-11.3,2.63-9.53-40.56-24.01-38.48-37.91,2.08-13.92,47.75-15.14,47.93-24.09.2-9.93-55.95-13.96-56.95-27.6-.95-13.02,49.14-25.01,47.58-32.37-1.61-7.61-55.67,2.24-59.93-10.06-4.34-12.52,46.41-37.69,42.31-47.45-3.86-9.21-52.04,5.95-55.95-3.32-4.12-9.78,45.78-35.32,41.41-46.92-4.05-10.75-51.24-.35-53.23-7.96-1.47-5.64,24.76-10.06,39.06-30.37,21.41-30.4,1.23-75.29,5.16-76.44Z"/>
    <path class="cls-10" d="M5117.66,1800.27c-3.17,3.31,28.41,46.97,94.94,106.69,42.95,38.56,93.38,83.24,171.19,124.35,106.91,56.48,197.56,70.29,197.98,68.98.31-.96-49.81-5.92-74.48-43.23-21.11-31.92-12.55-70.83-23.35-72.65-11.7-1.97-25.33,43.06-35.87,40.82-11.14-2.37-3.01-54.22-18.32-59.48-15.33-5.27-40.84,40.78-50.08,36.22-10.26-5.07,15.44-64.62,2.03-72.89-12.81-7.89-51.67,36.97-58.37,31.46-6.92-5.69,31.86-55.73,21.54-66.62-10.5-11.08-63.18,27.43-70.99,18.06-7.36-8.84,33.73-50.05,26.32-58.97-7.81-9.4-60.43,28.05-69.97,17.42-8.84-9.85,26.86-52.58,20.13-58.65-4.98-4.5-23.44,19.97-51.8,23.81-42.45,5.74-77.64-38.73-80.9-35.32Z"/>
    <path class="cls-10" d="M6698.04,1906.05c3.5,2.5-14.18,43.42-55.35,95.05-40.72,51.07-56.25,52.23-105.58,106.18-52.21,57.1-81.64,107.02-88.13,103.17-5.15-3.05,17.09-32.26,15.64-79.41-.87-28.48-10.03-51.78-4.75-54.06,6.2-2.68,22.29,27.75,29.89,24.83,7.6-2.92-3.92-38.63,6.3-44.05,10.24-5.43,33.4,24.25,39.42,19.99,6.68-4.73-18.12-43.92-9.57-51.25,8.17-7,40.62,20.35,44.74,15.71,4.26-4.79-28.72-35.81-22.65-44.65,6.18-9,47.69,12.33,52.15,4.83,4.21-7.07-29.41-31.59-25.17-38.71,4.47-7.51,45.81,13.07,51.36,4.5,5.14-7.94-24.84-34.14-20.76-39.18,3.02-3.74,18.78,11.49,39.24,11.04,30.65-.68,49.83-36.38,53.2-33.98Z"/>
    <path class="cls-10" d="M5732.32,1898.97c-4.8.79-8.35,4.75-14.1,15.14-7.92,14.29-24.08,43.46-16.86,49.35,9.17,7.47,57.47-21.33,53.72-44.99-1.64-10.36-13.48-21.03-22.76-19.5Z"/>
    <path class="cls-10" d="M5777.94,1926.26c-7.12,1.18-12.39,7.06-20.93,22.47-11.75,21.21-35.75,64.52-25.03,73.26,13.61,11.09,85.32-31.67,79.75-66.79-2.44-15.39-20.01-31.23-33.8-28.94Z"/>
    <path class="cls-10" d="M5835.56,1956.15c-8.52,3.3-13.53,11.94-20.13,33.23-9.09,29.3-27.64,89.15-12.1,97.21,19.72,10.22,97.51-61.24,81.56-103.31-6.99-18.43-32.84-33.52-49.33-27.13Z"/>
    <path class="cls-10" d="M6365.52,1988.96c3.32.84,5.57,3.83,8.99,11.46,4.7,10.5,14.29,31.94,8.87,35.63-6.88,4.69-39.04-18.41-35-34.78,1.77-7.17,10.71-13.95,17.14-12.31Z"/>
    <path class="cls-10" d="M6331.87,2005.38c4.93,1.25,8.27,5.69,13.34,17.02,6.97,15.58,21.22,47.41,13.17,52.9-10.21,6.96-57.96-27.33-51.96-51.64,2.63-10.65,15.91-20.71,25.45-18.28Z"/>
    <path class="cls-10" d="M6289.66,2022.9c5.78,2.82,8.78,9.18,12.13,24.52,4.62,21.1,14.05,64.21,2.67,68.93-14.45,5.99-64.75-48.81-51.04-77.37,6.01-12.51,25.05-21.55,36.24-16.08Z"/>
    <path class="cls-3" d="M5243.94,1292.89c.47.81,267.87-281.09,495.28-195.32,97.59,36.8,200.34,146.53,201.74,256.9,1.23,96.53-77.21,138.23-55.86,192.97,29.27,75.07,212.3,87.65,247.64,21.18,26.33-49.53-49.29-105.43-35.22-208.66,9.76-71.64,57.61-148.58,114.92-169.83,155.53-57.66,379.18,293.19,387.47,285.14,8.96-8.7-181.79-486.6-555.77-567.53-422.57-91.45-800.78,384.16-800.21,385.15Z"/>
    <path class="cls-10" d="M5883.18,568.73c5.49-17.57,36.68-21.7,74.9-26.77,37.71-5,94.25-6.59,198.82,23.76,84.23,24.45,126.34,36.67,127.84,58.65,1.98,29.07-66.47,71.34-110.39,54.74-41.16-15.56-39.95-74.94-70.99-78.21-30.22-3.18-39.35,52.26-83.32,63.77-60.57,15.86-147.46-62.06-136.86-95.95Z"/>
  </g>
  <path class="cls-24" d="M6211.79,3409.48c-69.28-19.21-163.04-93.57-216.77-174.85-16.04-24.26-46.39-70.18-50.73-111.29,17.9-4.39,35.62-10.49,52.55-18.15,5.28,10.29,12.15,19.57,21.04,27.78,39.78,36.72,102.48,35.89,156.02,20.91,5.06,101.26,23.29,183.19,37.89,255.62Z"/>
  <path class="cls-10" d="M5467.42,1097.49c1.52,3.68,47.23-20.8,114-31.28,38.86-6.1,117.28-18.42,202.73,19.55,26.15,11.62,107.88,52.35,153.4,147.39,17.81,37.19,42.64,84.25,29.48,137.76-4.33,17.59-17.21,54.3-42.11,90.54-12.9,18.78-26.55,33.83-25.27,55.65,1.12,19.04,13,32.63,18.65,39.1,23.42,26.81,56.19,31.93,86.63,36.7,30.68,4.8,59.4,9.29,86.33-6.92,3.82-2.3,30.48-18.35,30.98-41.21.22-9.98-4.66-16.5-9.93-25.27-15.12-25.16-20.48-47.28-28.27-79.41-2.09-8.6-8.34-36.65-5.72-72.19,3.14-42.48,17.28-72.96,29.78-99.26,18.84-39.64,28.82-60.63,52.34-77.91,36.7-26.96,79.24-24.94,97.76-24.06,65.85,3.13,112.84,38.87,150.1,67.98,83.34,65.12,116.12,134.52,129.04,127.54,8.23-4.45,3.38-37.21-10.53-63.77-27.98-53.42-74.99-48.11-91.44-93.55-11.81-32.63,2.74-62.12-11.43-68.88-13.81-6.59-32.55,19.08-45.12,12.33-16.73-8.98,3.43-61.43-12.33-70.39-16.07-9.13-49.55,38.22-68.58,29.18-20-9.5-3.79-71.63-18.35-76.4-13.4-4.39-28.24,47.9-66.48,56.55-27.85,6.3-57.71-12.91-73.69-29.48-57.73-59.87-24.2-178.66-32.49-179.87-8.92-1.31-10.98,142-85.12,176.87-29.52,13.88-72.44,11.5-96.25-9.93-31.88-28.68-21.02-83.86-37-86.33-16.33-2.52-33.77,54.23-48.13,51.13-13.64-2.94-7.7-56.25-22.26-59.86-16.32-4.04-38.81,59.19-56.85,55.35-16.24-3.46-13.74-58.07-25.57-59.26-9.67-.97-11.29,35.54-36.7,60.76-24.91,24.73-51.88,17.95-103.17,29.48-75.69,17.01-130.15,57.21-128.44,61.36Z"/>
  <path class="cls-9" d="M6340.89,2825.97c110.31,5.08,240.82-43.07,310.55-143.24,10.46-15.03,78.82-116.55,41.7-226.52-32.78-97.15-113.43-98.85-141.65-174.62-58.41-156.8,222.33-322.83,180.03-380.05-37.8-51.13-302.3,26.81-515.26,160.46-145.57,91.35-255.33,160.23-280.43,283.33-41.4,203.06,164.75,469.59,405.06,480.65Z"/>
  <path class="cls-9" d="M4857.08,2619.56c-109.02-17.6-226.91-91.43-274.68-203.74-7.17-16.85-53.31-130.21,5.52-230.26,51.96-88.39,131.25-73.55,174.38-141.95,89.25-141.54-151.58-361.49-98.47-408.84,47.46-42.31,290.42,88.09,471.53,262.47,123.8,119.2,217.15,209.08,216.54,334.7-1.02,207.24-257.33,425.95-494.82,387.62Z"/>
  <path class="cls-5" d="M6255.92,2896.23c109.55,13.85,243.49-23.74,320.98-118.03,11.62-14.14,87.85-109.9,59.63-222.48-24.94-99.45-105.19-107.57-127.29-185.36-45.73-160.96,247.35-304.08,209.75-364.49-33.6-53.98-303.47,2.63-526.41,118.88-152.39,79.46-267.29,139.37-302.12,260.07-57.45,199.12,126.8,481.22,365.46,511.41Z"/>
  <path class="cls-34" d="M6232.88,2891.87c93.01,10.94,207.71-26.68,275.42-116.29,10.16-13.44,76.81-104.39,54.85-209.17-19.4-92.55-87.57-98.67-104.95-171.02-35.97-149.69,216.16-288.94,185.26-344.75-27.61-49.86-258.39,8.04-450.31,120.86-131.19,77.12-230.1,135.26-261.97,248.79-52.57,187.28,99.1,447.73,301.72,471.57Z"/>
  <path class="cls-8" d="M6213.04,2821.38c71.2,7.79,159.74-25.09,212.93-100.53,7.98-11.32,60.39-87.86,45.01-174.65-13.59-76.67-65.8-80.8-78.12-140.69-25.5-123.93,169.89-243.22,146.97-289.18-20.49-41.06-198.36,10.31-347.18,106.78-101.73,65.95-178.44,115.67-204.48,210.49-42.96,156.42,69.75,370.8,224.87,387.78Z"/>
  <path class="cls-5" d="M4983.47,2688.84c-110.07-8.89-233.46-73.12-289.99-181.29-8.48-16.23-63.47-125.56-12.78-229.98,44.78-92.23,125-83.74,162.56-155.35,77.73-148.17-179.8-348.31-130.62-399.73,43.95-45.95,296.49,64.75,490.88,224.21,132.88,109,233.07,191.18,242.42,316.46,15.44,206.66-222.7,445.04-462.49,425.68Z"/>
  <path class="cls-35" d="M5006.91,2689.29c-93.28-8.34-197.84-68.67-245.75-170.25-7.19-15.24-53.79-117.92-10.83-215.97,37.95-86.61,105.93-78.64,137.76-145.88,65.88-139.15-152.37-327.1-110.69-375.39,37.24-43.15,251.26,60.81,416,210.55,112.61,102.36,197.51,179.54,205.44,297.18,13.08,194.08-188.73,417.93-391.93,399.75Z"/>
  <path class="cls-23" d="M5040.78,2624.35c-71.29-6.96-151.21-57.29-187.82-142.02-5.49-12.71-41.11-98.37-8.28-180.17,29.01-72.26,80.96-65.6,105.29-121.7,50.35-116.08-116.46-272.87-84.6-313.16,28.46-36,192.04,50.73,317.94,175.65,86.06,85.39,150.95,149.77,157.02,247.92,10,161.9-144.24,348.64-299.55,333.48Z"/>
  <g>
    <rect class="cls-33" x="4994.94" y="2036.03" width="126.98" height="97.38" transform="translate(-367.59 1383.23) rotate(-15.03)"/>
    <path class="cls-2" d="M5055.87,2146.99c20.34-7.32,48.98-11.14,56.01-4.13.44.43.86.97,1.31,1.62.3.42.6.9.94,1.42-.72.11-1.21.15-1.8-.09-.26-.11-.48-.25-.68-.41-.74-.59-1.07-1.45-1.28-1.79-2.6-4.37-16.1.92-16.1.92-13.54,5.3-18.32.53-38.41,2.47Z"/>
    <path class="cls-2" d="M5122.21,2158.48c-.35.62-1.31.54-3.18.85t-4.45,1.19c-12.91,3.47-12.63,3.39-13.34,3.58-9.01,2.48-9.54,3.07-19.53,5.93-8.54,2.44-6.83,1.62-11.44,3.07-8.37,2.63-16.9,4.76-25.25,7.46-1.35.44-3.63,1.19-5.42.09-1.82-1.11-2.05-3.47-2.85-8.09-.46-2.64-.85-4.52-1.16-5.91-.59-2.65-.91-3.47-.93-4.43-.05-2.67,2.28-5.43,6.15-8.06,6.62,1.53,10.48,5.05,14.68,7.91.08-.01.15-.03.23-.05,2.56-.56,32.27-7.07,44.31-12.58,3.72-1.71,8.01-2.2,11.63-4.06.19.16.42.3.68.41.59.24,1.08.21,1.8.09.26.39.52.81.81,1.25,1.32,2.06,3.04,4.65,5.61,7.68.56.65,2.24,2.62,1.66,3.64Z"/>
    <path class="cls-28" d="M5147.57,2121.02l-1.71-6.35c-2.54-9.45-2.58-10.31-3.75-13.98-1.06-3.35-1.92-5.47-2.68-7.45-2.35-6.17-3.39-10.5-8.66-29.69-2.99-10.91-2.63-10.32-4.95-18.43-2.48-8.68-6.16-17.9-8.27-25.71-1.84-6.84-1.88-6.99-1.88-6.99-1.19-5.01-1-5.61-1.71-6.35-2.03-2.14-6.43-.19-17.5,3.34-.22.07-4.52,1.35-13.06,3.89-2.93.87-6.35,1.9-10.28,3.06-2.32.69-4.51,1.35-5.69,1.68-4.28,1.23-8.49,2.34-16.08,4.32-3.75.99-8.33,2.18-14.15,3.72-12.77,3.37-19.99,5.44-24.43,6.74-7.67,2.27-6.28,1.85-7.93,2.28-12.83,3.35-27.98,5.62-29.7,9.61-.63,1.46-.59,2.88-.59,2.88.03,1.07.33,1.6.85,3.18.07.23-.01-.02,1.19,4.45.63,2.34,1.05,3.84,1.15,4.26.79,3.34,1.08,5.73,2.48,11.79.93,4.06,1.08,4.2,4.44,16.52,4.3,15.78,3.75,14.46,5.8,21.6,3.19,11.13,3.37,10.38,6.27,20.8.64,2.3,1.21,4.34,1.7,6.14.19.68.37,1.32.53,1.93,1.31,4.76,2.09,7.69,2.54,9.72.71,3.21,1.94,6.3,2.56,9.53.69,3.58.9,6.23,2.51,6.82.69.25.98-.11,3.81-1.02,3.1-1,2.98-.63,5.72-1.54,3.07-1.02,3.71-1.64,4.45-1.19.89.53.5,1.75,1.37,5.08.55,2.09.84,3.15,1.66,3.64.97.58,2.05.18,4.62-.56,1.9-.55,3.86-.88,5.72-1.54.49-.17,1.04-.35,1.64-.53,5.1-1.53,13.85-3.26,19.9-4.59.08-.01.15-.03.23-.05,2.56-.56,32.27-7.07,44.31-12.58,3.72-1.71,8.01-2.2,11.63-4.06.47-.24.93-.5,1.37-.8.05-.03.1-.07.17-.11.6-.38,2.12-1.29,3.01-.74.65.4.42,1.26,1.15,1.74h0c.57.37,1.46.33,2.16.02.47-.19.85-.51,1.01-.88.35-.79-.3-1.79.12-2.08.16-.1.38-.04.44-.02,1.22.33,4.34-1.2,4.64-1.34,4.17-2.01,6.55-.88,7.45-2.68.53-1.06.14-2.34-.56-4.62-.75-2.44-1.68-3.42-1.19-4.45.36-.74,1.2-1,2.37-1.32,6.39-1.77,9.57-2.65,10.17-2.73,2.71-.35,4-.28,4.45-1.19.39-.8-.21-1.71-.85-3.18ZM4991.45,2054.62l113.33-30.43,24.29,86.43-114.07,31.69-23.55-87.69Z"/>
    <path class="cls-13" d="M5106.18,2021.77l-117.15,31.46,24.57,91.5,117.92-32.76-25.34-90.2ZM5015,2142.31l-23.55-87.69,113.33-30.43,24.29,86.43-114.07,31.69Z"/>
    <path class="cls-25" d="M5116.85,2143.57c.41.08.68.23.81.46.13.23.03.39.17.64.15.27.48.45.81.46.6.03,1.09-.54,1.1-.98,0-.28-.19-.34-.17-.64.03-.46.52-.7.46-.81-.07-.12-.74.16-1.27.34-.78.27-1.45.43-1.91.51Z"/>
    <rect class="cls-36" x="5019.3" y="2143.15" width="13.16" height=".66" transform="translate(-383.94 1376.8) rotate(-15.03)"/>
    <rect class="cls-36" x="5039.1" y="2138.63" width="7.24" height=".66" transform="translate(-382.19 1381.01) rotate(-15.03)"/>
    <path class="cls-7" d="M5021.86,2160.23c-.28.53.26.87.85,3.18.34,1.32.35,1.93.85,3.18.42,1.03.63,1.55,1.15,1.74.57.21.99-.17,2.54-.68l1.91-.51,4.45-1.19c7.1-1.91,6.94-1.91,8.26-2.22,3.46-.8,7.16-1.24,7.16-1.24,3.25-.38,7.17-1.37,14.15-3.12.41-.1.12-.03,11.44-3.07,4.52-1.21,6.78-1.82,6.99-1.88,9.23-2.45,8.85-2.25,10.17-2.73,4.37-1.6,5.08-2.58,9.83-4,2.52-.75,2.38-.5,4.45-1.19,1.29-.44,2.11-.8,8.55-3.66,2.13-.95,3.41-1.52,5.08-1.37.58.05,1.13.18,2.08.12,1.33-.09,2.27-.48,3.18-.85,2.52-1.04,3.43-1.78,4.91-2,.11-.02.35-.05.64-.17.73-.31,1.37-1.03,1.57-1.78.18-.67-.15-.76-.85-3.18-.33-1.13-.49-1.7-.68-2.54-.22-.97-.2-1.1-.34-1.27-.88-1.09-4.46.4-5.25.73-3.86,1.59-8.11,2.13-11.9,3.88-11.16,5.13-36.21,12.35-41.26,13.8-12.75,3.67-21.94,5.54-29.87,8.02-.85.27-3.73,1.18-7.63,2.05-4.14.92-6.22,1.39-7.8,1.41-2.41.04-4.15-.31-4.62.56Z"/>
    <text class="cls-40" transform="translate(5027.95 2038.46) rotate(-15.03)"><tspan x="0" y="0" xml:space="preserve">SOP   MAN</tspan></text>
    <g>
      <path class="cls-12" d="M5045.12,2030.57s0,0,0,0c.01.01.02.02.03.03,0-.01-.02-.02-.03-.03Z"/>
      <path class="cls-12" d="M5046.32,2029.44c-.04-.06-.1-.04-.16-.11-.06-.07-.03-.1-.08-.19-.07-.13-.22-.17-.31-.2-.06-.02-.11,0-.17-.03-.05-.03-.07-.06-.11-.1-.07-.07-.16-.1-.24-.12-.1-.03-.22-.02-.47,0-.05,0-.1,0-.16,0-.07-.02-.08-.04-.13-.06-.02-.01-.04-.02-.05-.02-.14-.04-.22-.12-.22-.12-.08-.09-.08-.14-.07-.16,0-.02.02-.03.04-.06,0-.03,0-.05,0-.08,0-.04,0-.07-.03-.1-.01-.02-.03-.02-.04-.04,0-.02-.01-.04-.01-.05,0,0,0-.06-.05-.17-.05-.11-.23-.19-.4-.15-.19.04-.32.23-.3.34.02.11.05.17.05.17,0,.01.01.03.01.05,0,.02,0,.03-.01.06,0,.05.02.09.03.1.02.02.04.04.07.06.04.03.05.02.06.04.05.04.05.13.03.19-.01.03-.03.06-.08.11,0,0-.03.04-.04.05,0,0,0,0-.01.02-.04.06-.04.12-.11.19-.02.02-.03.03-.2.13-.28.16-.27.15-.31.19-.11.11-.07.15-.2.31-.14.17-.2.14-.25.25-.06.16.07.28-.02.42-.05.08-.1.07-.12.14-.04.13.13.29.2.36.06.05.17.16.34.2.1.02.1,0,.24.01.05,0,.14.04.31.1.21.07.24.09.26.11.02.01.03.03.06.04.09.02.16-.07.19-.05.03.02,0,.1,0,.18-.02.1-.01.19,0,.37,0,.11,0,.27.07.45.08.24.16.26.17.45,0,.1-.02.11-.03.27,0,0-.02.2.01.44.03.22.09.27.39.96.08.19.11.27.12.33,0,.02,0,.03,0,.05.03.3-.04.39.02.46.08.1.32.02.34.01.07-.02.2-.07.22-.16.02-.1-.08-.14-.18-.39-.03-.08-.03-.09-.07-.19-.07-.16-.08-.15-.13-.25-.06-.16-.07-.29-.09-.42,0-.04,0-.07,0-.1,0-.1,0-.17,0-.19.02-.23.03-.43-.03-.62,0-.03-.02-.05-.03-.08,0-.03,0-.06,0-.09,0-.17.07-.17.11-.39.03-.17-.01-.19,0-.52,0-.03,0-.05,0-.08.01.02.03.04.04.07.18.28.14.32.26.45.14.16.21.13.28.26.02.09.02.15.02.18,0,.29.36.61.41.7.02.03.03.07.03.07.02.03.06.14.1.28.01.04.02.08.03.12.03.13.05.24.05.37,0,.03,0,.03,0,.08-.01.26-.02.39.04.46.08.08.25.04.32.02.07-.02.24-.06.27-.18.03-.11-.08-.25-.18-.39,0-.01-.03-.03-.04-.07-.02-.04-.01-.06-.03-.14,0-.05-.01-.05-.02-.1,0-.02,0-.04-.01-.07-.04-.28,0-.3-.02-.54-.02-.18-.04-.44-.21-.67-.09-.14-.17-.18-.25-.35-.06-.14-.08-.26-.08-.32-.06-.47-.16-.69-.31-.85-.05-.06-.17-.17-.14-.22,0-.01.02-.02.07-.04,0,0,.04-.02.11-.08.08-.07.09-.17.16-.28.02-.03.03-.03.23-.22.23-.21.25-.23.27-.25.13-.16.16-.28.17-.33.02-.08.04-.17-.01-.23ZM5043.91,2030.84s-.03-.04-.06-.06c-.06-.03-.12-.02-.16,0-.09.02-.1.06-.16.07-.07,0-.12-.03-.21-.1-.14-.11-.13-.17-.24-.22-.06-.03-.12-.04-.12-.07,0-.02.02-.04.06-.07.08-.07.11-.15.13-.19.05-.1.03-.17.06-.17.03,0,.04.08.12.17.06.07.13.1.19.13.07.04.12.04.15.05.02.03.04.06.07.1.1.13.13.12.16.19.03.07.02.13.02.18ZM5045.69,2029.92c-.04.07-.02.07-.07.23-.06.17-.1.2-.12.22-.02,0-.05.02-.12.03-.12.03-.14.02-.17.05-.04.03-.07.09-.08.1,0,.01,0,.02-.01.03.01.01.03.02.03.03,0,0-.02-.02-.03-.03,0,0-.01-.01-.02-.02,0,0,0,0,0,0-.02-.01-.03-.02-.05-.04-.02-.02-.03-.04-.04-.06-.02-.03-.03-.06-.03-.1,0,0,0,0,0,0,0-.04.02-.05.04-.14.02-.08,0-.08.02-.13,0-.01,0-.04.02-.08.05-.06.09-.09.12-.14.08-.1.08-.22.09-.26,0-.09-.01-.15,0-.16.01,0,.03.02.07.06.06.07.14.1.22.12.07.03.1.02.17.06.04.02.06.03.07.06.02.05-.05.09-.11.18Z"/>
      <path class="cls-12" d="M5045,2030.45s-.03-.06-.03-.1c0,.04.02.07.03.1Z"/>
      <path class="cls-12" d="M5045.15,2030.6s-.02-.02-.03-.03c0,0-.01-.01-.02-.02,0,0,.02.01.02.02.01.01.03.02.03.03Z"/>
      <path class="cls-12" d="M5045.09,2030.55s-.03-.02-.05-.04c-.02-.02-.03-.04-.04-.06.02.04.06.07.09.1Z"/>
    </g>
    <path class="cls-37" d="M5123.46,2133.96c-.25.23-.35.49-.46.81-.15.4-.6,1.62.05,2.71.56.95,1.86,1.64,3.05,1.22.83-.29,1.39-1.03,1.57-1.78.3-1.28-.53-2.49-1.49-3.01-.79-.43-2.02-.59-2.71.05Z"/>
  </g>
  <g>
    <rect class="cls-33" x="5125.98" y="2236.21" width="157.19" height="120.54" transform="translate(884.81 -1405.01) rotate(16.78)"/>
    <path class="cls-2" d="M5161.24,2360.31c26.18,5.57,58.79,20.25,61.62,32.21.18.73.27,1.58.32,2.56.04.64.05,1.34.06,2.1-.83-.35-1.37-.64-1.84-1.28-.2-.28-.34-.58-.44-.87-.4-1.11-.18-2.22-.18-2.72.12-6.29-17.54-9.54-17.54-9.54-17.71-3.26-19.61-11.4-42.01-22.47Z"/>
    <path class="cls-2" d="M5223.53,2415.69c-.77.42-1.73-.28-3.9-1.18l-5.46-1.65c-15.84-4.78-15.5-4.68-16.37-4.94-11.09-3.27-12.04-2.99-24.41-6.51-10.58-3.01-8.25-2.75-14.04-4.23-10.53-2.7-20.88-6.02-31.43-8.63-1.71-.42-4.6-1.12-5.77-3.44-1.19-2.36.11-4.99,2.28-10.37,1.24-3.08,2.05-5.31,2.63-6.97,1.1-3.17,1.31-4.25,1.91-5.27,1.69-2.84,5.94-4.22,11.73-4.47,5.97,5.93,7.73,12.15,10.28,17.89.09.04.18.06.28.1,3.06,1.08,38.56,13.63,54.82,15.68,5.02.63,9.86,2.92,14.88,3.32.1.29.24.59.44.87.46.64,1.01.92,1.84,1.28.01.58.02,1.19.03,1.85.05,3.03.16,6.88.88,11.74.16,1.05.64,4.21-.63,4.91Z"/>
    <path class="cls-28" d="M5274.65,2392.83l2.35-7.8c3.5-11.6,4.01-12.53,5.17-17.15,1.07-4.22,1.55-7,2.04-9.59,1.55-8.02,3.28-13.26,10.27-36.88,3.97-13.43,3.97-12.57,6.82-22.61,3.06-10.75,5.2-22.85,8.08-32.44,2.52-8.39,2.59-8.58,2.59-8.58,2.02-6.04,2.61-6.55,2.35-7.8-.74-3.58-6.64-4.4-20.58-7.91-.28-.07-5.64-1.53-16.27-4.43-3.65-.99-7.92-2.15-12.81-3.49-2.89-.79-5.62-1.53-7.08-1.94-5.3-1.51-10.46-3.09-19.73-5.95-4.59-1.41-10.19-3.14-17.31-5.32-15.63-4.79-24.57-7.33-30.1-8.85-9.55-2.62-7.82-2.15-9.83-2.78-15.68-4.85-33.1-12.35-37.52-9.27-1.62,1.13-2.5,2.65-2.5,2.65-.66,1.15-.7,1.9-1.18,3.9-.07.29,0-.03-1.65,5.46-.87,2.87-1.4,4.72-1.57,5.23-1.34,4.03-2.6,6.74-5.09,14.02-1.67,4.88-1.6,5.12-6.11,20.27-5.78,19.41-5.49,17.66-8,26.51-3.9,13.79-3.22,13.12-6.98,25.97-.83,2.84-1.56,5.35-2.21,7.57-.24.84-.47,1.63-.7,2.38-1.73,5.87-2.82,9.46-3.67,11.88-1.35,3.85-2.07,7.89-3.53,11.7-1.61,4.21-3.12,7.14-1.81,8.81.56.71,1.11.52,4.68,1.41,3.91.97,3.54,1.28,7.02,2.12,3.89.94,4.98.69,5.46,1.65.58,1.14-.62,2.16-1.88,6.24-.79,2.55-1.17,3.86-.63,4.91.64,1.24,2.04,1.53,5.22,2.43,2.35.66,4.63,1.59,7.02,2.12.63.14,1.33.31,2.07.51,6.36,1.72,16.69,5.6,23.93,8.16.09.04.18.06.28.1,3.06,1.08,38.56,13.63,54.82,15.68,5.02.63,9.86,2.92,14.88,3.32.65.05,1.3.08,1.96.06.07,0,.15,0,.25,0,.88,0,3.07.02,3.65,1.19.42.85-.38,1.6.07,2.57h0c.36.77,1.32,1.3,2.26,1.44.62.1,1.22.02,1.64-.26.89-.6.86-2.08,1.49-2.1.24,0,.43.21.48.26,1.07,1.14,5.35,1.57,5.76,1.62,5.7.6,7.46,3.35,9.59,2.04,1.25-.77,1.68-2.37,2.43-5.22.8-3.05.46-4.69,1.65-5.46.86-.55,1.92-.26,3.35.16,7.87,2.31,11.8,3.46,12.48,3.76,3.08,1.4,4.4,2.31,5.46,1.65.93-.59.9-1.93,1.18-3.9ZM5153.75,2221.11l139.07,41.94-30.85,106.77-140.67-41.11,32.45-107.61Z"/>
    <path class="cls-13" d="M5295.88,2261.42l-143.76-43.36-33.87,112.29,145.41,42.49,32.21-111.42ZM5121.3,2328.72l32.45-107.61,139.07,41.94-30.85,106.77-140.67-41.11Z"/>
    <path class="cls-25" d="M5227.61,2396.51c.38.35.56.69.54,1.01-.02.33-.22.43-.24.78-.01.39.22.79.54,1.01.62.42,1.5.14,1.79-.31.19-.29.02-.48.24-.78.33-.47,1.01-.4,1.01-.54,0-.17-.88-.32-1.56-.47-1-.22-1.8-.5-2.34-.71Z"/>
    <rect class="cls-36" x="5123.83" y="2336.64" width="16.29" height=".81" transform="translate(893.43 -1382.32) rotate(16.78)"/>
    <rect class="cls-36" x="5148.16" y="2342.87" width="8.96" height=".81" transform="translate(896.11 -1388.02) rotate(16.78)"/>
    <path class="cls-7" d="M5116.82,2352.04c-.65.38-.3,1.08-1.18,3.9-.5,1.61-.89,2.25-1.18,3.9-.23,1.35-.34,2.04.07,2.57.46.59,1.16.47,3.12.94l2.34.71,5.46,1.65c8.72,2.63,8.55,2.52,10.14,3.06,4.16,1.42,8.34,3.37,8.34,3.37,3.67,1.72,8.44,3.24,16.92,5.95.5.16.14.04,14.04,4.23,5.54,1.67,8.32,2.51,8.58,2.59,11.31,3.44,10.77,3.41,12.48,3.76,5.64,1.17,7.02.6,12.95,2.2,3.14.85,2.83,1.03,5.46,1.65,1.64.38,2.74.54,11.39,1.73,2.86.4,4.58.63,6.24,1.88.58.44,1.07.93,2.1,1.49,1.45.78,2.71.98,3.9,1.18,3.33.55,4.76.37,6.47,1.1.13.06.4.18.78.24.97.15,2.11-.19,2.81-.85.62-.59.33-.89,1.18-3.9.39-1.4.59-2.1.94-3.12.4-1.16.5-1.28.47-1.56-.21-1.73-4.95-2.49-6-2.66-5.1-.84-9.92-3.05-15.05-3.69-15.08-1.88-46.15-10.64-52.4-12.4-15.81-4.46-26.69-8.49-36.65-11.05-1.07-.27-4.69-1.19-9.36-2.82-4.96-1.73-7.44-2.6-9.12-3.6-2.56-1.53-4.16-3.04-5.22-2.43Z"/>
    <text class="cls-38" transform="translate(5202.65 2227.95) rotate(16.78)"><tspan x="0" y="0" xml:space="preserve">SOP   MAN</tspan></text>
    <g>
      <path class="cls-12" d="M5225.9,2230.83s0,0,0,0c0,.02,0,.04.01.05,0-.02,0-.04,0-.06Z"/>
      <path class="cls-12" d="M5227.9,2230.43c0-.09-.08-.11-.09-.22-.02-.11.04-.13.04-.25,0-.18-.12-.33-.2-.42-.05-.06-.11-.07-.15-.14-.04-.07-.03-.11-.04-.18-.03-.13-.11-.21-.18-.28-.09-.09-.22-.17-.49-.31-.05-.03-.11-.06-.16-.11-.06-.06-.06-.1-.09-.15-.02-.03-.03-.04-.04-.05-.11-.13-.15-.27-.15-.27-.02-.14,0-.2.03-.22.02-.01.04-.01.08-.04.03-.02.04-.05.06-.08.02-.05.04-.08.04-.12,0-.03-.01-.04-.01-.07,0-.03.01-.05.02-.06,0,0,.04-.06.06-.21.02-.14-.12-.35-.33-.42-.23-.08-.48.04-.54.16-.05.13-.06.21-.06.21,0,.02,0,.04-.02.06-.02.03-.03.03-.05.05-.04.04-.04.1-.04.12,0,.04.01.06.03.11.02.05.03.05.04.08.02.07-.03.17-.09.22-.03.03-.08.04-.16.07-.01,0-.06.02-.07.02-.01,0-.01,0-.03,0-.09.04-.12.09-.24.13-.03,0-.06.01-.29,0-.4,0-.39-.02-.45,0-.19.04-.17.11-.42.2-.26.09-.31.01-.42.1-.17.13-.11.33-.29.43-.1.05-.15,0-.21.07-.13.11-.06.39-.02.51.02.1.07.28.23.43.09.09.11.06.24.17.05.04.12.13.26.31.17.21.19.26.21.29.01.03.02.05.04.08.08.08.21.03.24.07.02.04-.06.11-.12.19-.08.1-.14.19-.24.38-.06.11-.16.29-.22.52-.07.3,0,.38-.11.58-.06.11-.09.11-.21.26,0,0-.15.2-.27.47-.11.25-.08.34-.22,1.27-.04.26-.06.36-.09.43,0,.02-.02.03-.03.06-.16.33-.3.39-.28.5.02.16.32.23.35.24.08.02.26.06.33-.03.08-.09,0-.2.06-.53.02-.1.03-.11.05-.24.03-.21,0-.21.03-.35.04-.21.11-.35.18-.5.02-.04.04-.08.06-.11.06-.1.11-.17.13-.2.17-.23.31-.43.37-.67,0-.04.01-.07.02-.1.01-.03.03-.07.05-.1.1-.18.19-.13.37-.33.15-.16.11-.21.34-.55.02-.03.04-.06.05-.08,0,.03,0,.06,0,.1,0,.41-.06.43-.02.64.04.26.13.27.13.46-.04.1-.08.17-.1.21-.18.31-.02.88-.03,1,0,.05-.01.09-.01.09,0,.05-.03.19-.08.37-.02.05-.03.1-.05.15-.06.16-.1.29-.19.43-.02.03-.02.03-.06.08-.19.27-.28.4-.25.51.04.14.23.2.32.23.08.02.29.09.39-.01.1-.09.08-.32.06-.53,0-.02,0-.05,0-.1,0-.06.03-.07.06-.17.02-.05.02-.06.04-.12,0-.02.02-.05.04-.09.14-.32.21-.31.34-.58.1-.2.24-.49.22-.84,0-.21-.07-.3-.03-.53.03-.19.09-.32.12-.39.24-.53.28-.83.23-1.1-.02-.09-.07-.29,0-.32.02-.01.03,0,.1,0,0,0,.06,0,.17-.01.13-.02.2-.12.35-.19.04-.02.05-.02.38-.08.38-.07.41-.08.45-.09.24-.08.35-.19.4-.24.07-.07.15-.15.14-.25ZM5224.45,2230.33s0-.07-.03-.1c-.04-.07-.12-.1-.16-.11-.11-.04-.15,0-.22-.03-.08-.04-.11-.12-.15-.24-.08-.21-.03-.26-.11-.39-.05-.07-.1-.12-.08-.16.01-.02.05-.02.11-.03.12-.02.21-.08.26-.12.12-.08.14-.16.17-.14.03.01-.01.11.02.27.02.11.07.19.12.26.05.09.09.12.13.15,0,.04,0,.09.01.15.02.2.05.21.04.3-.02.1-.07.15-.1.19ZM5226.93,2230.53c-.09.05-.06.07-.22.19-.18.14-.24.15-.27.15-.03,0-.07-.02-.15-.04-.14-.05-.16-.07-.21-.06-.07,0-.14.05-.15.05-.01,0-.02.01-.03.02,0,.02.01.04,0,.06,0-.02,0-.03-.01-.05,0-.01,0-.02,0-.04,0,0,0,0,0,0,0-.02-.02-.05-.03-.07,0-.03,0-.06,0-.09,0-.04,0-.09.03-.12,0,0,0,0,0,0,.03-.04.05-.04.13-.12.07-.07.05-.08.1-.13.01-.01.04-.04.08-.07.09-.04.15-.04.22-.07.14-.05.23-.18.26-.21.06-.09.09-.17.11-.16.02,0,.02.04.03.11.02.11.08.2.15.27.06.07.1.09.14.17.03.05.04.08.03.11-.02.06-.11.06-.23.12Z"/>
      <path class="cls-12" d="M5225.86,2230.63s0-.09.03-.12c-.02.05-.03.08-.03.12Z"/>
      <path class="cls-12" d="M5225.91,2230.89s0-.03-.01-.05c0-.01,0-.02,0-.04,0,.01.01.02.01.03,0,.02.01.04,0,.06Z"/>
      <path class="cls-12" d="M5225.89,2230.8s-.02-.05-.03-.07c0-.03,0-.06,0-.09,0,.05.01.11.03.16Z"/>
    </g>
    <path class="cls-37" d="M5240.84,2390.72c-.42.08-.69.29-1.01.54-.42.32-1.69,1.31-1.72,2.88-.03,1.36.88,2.93,2.41,3.28,1.06.24,2.13-.17,2.81-.85,1.15-1.15,1.06-2.97.4-4.13-.55-.96-1.74-1.94-2.88-1.72Z"/>
  </g>
  <g>
    <rect class="cls-33" x="4883.54" y="2369.71" width="192.91" height="147.93" transform="translate(-561.68 2195.25) rotate(-23.57)"/>
    <path class="cls-2" d="M4990.2,2537.81c28.91-15.59,71.08-27.78,83.22-18.84.75.55,1.51,1.26,2.34,2.14.54.57,1.11,1.22,1.73,1.92-1.06.33-1.79.5-2.73.26-.42-.1-.78-.27-1.11-.47-1.25-.72-1.94-1.94-2.32-2.4-4.89-5.98-23.99,5.01-23.99,5.01-19.15,11.02-27.41,4.92-57.15,12.37Z"/>
    <path class="cls-2" d="M5092.46,2540.11c-.38,1.01-1.84,1.11-4.58,2t-6.41,2.8c-18.62,8.12-18.22,7.94-19.24,8.39-12.97,5.76-13.64,6.77-28,13.31-12.28,5.59-9.9,3.98-16.49,7.19-11.99,5.84-24.32,10.96-36.25,16.9-1.93.96-5.19,2.6-8.13,1.37-2.99-1.26-3.86-4.75-6.11-11.51-1.29-3.86-2.3-6.6-3.08-8.61-1.49-3.84-2.15-5.01-2.4-6.45-.68-4,2.19-8.67,7.43-13.5,10.29.8,16.89,5.22,23.84,8.57.11-.04.22-.09.34-.13,3.72-1.42,46.89-17.9,63.73-28.89,5.2-3.4,11.54-5.11,16.56-8.72.33.2.69.36,1.11.47.94.23,1.68.07,2.73-.26.47.54.96,1.1,1.5,1.7,2.45,2.8,5.62,6.31,10.16,10.28.98.86,3.95,3.42,3.31,5.1Z"/>
    <path class="cls-28" d="M5122.11,2478.1l-4-9.16c-5.94-13.62-6.21-14.9-8.79-20.16-2.35-4.8-4.11-7.78-5.71-10.59-4.92-8.74-7.46-15.01-19.7-42.66-6.95-15.71-6.28-14.92-11.59-26.57-5.69-12.48-13.3-25.51-18.22-36.76-4.31-9.85-4.4-10.08-4.4-10.08-2.91-7.26-2.76-8.21-4-9.16-3.54-2.75-9.7,1.16-25.54,8.96-.32.15-6.49,3.05-18.74,8.79-4.2,1.97-9.11,4.28-14.76,6.92-3.33,1.56-6.47,3.04-8.16,3.81-6.16,2.81-12.24,5.43-23.18,10.11-5.42,2.33-12.02,5.16-20.42,8.78-18.42,7.94-28.8,12.67-35.18,15.64-11.01,5.14-9.02,4.2-11.4,5.21-18.52,7.93-40.77,14.76-42.46,21.14-.61,2.34-.23,4.46-.23,4.46.29,1.6.85,2.33,2,4.58.16.32-.02-.02,2.8,6.41,1.47,3.37,2.45,5.53,2.69,6.14,1.95,4.83,2.92,8.37,6.39,17.16,2.32,5.89,2.57,6.07,10.39,23.82,10.02,22.74,8.9,20.88,13.59,31.15,7.31,16,7.41,14.83,14.11,29.83,1.48,3.31,2.79,6.24,3.94,8.84.44.98.85,1.9,1.24,2.79,3.05,6.86,4.88,11.09,6.01,14.03,1.8,4.67,4.33,9.03,6,13.74,1.84,5.22,2.76,9.16,5.31,9.68,1.09.22,1.45-.39,5.5-2.4,4.43-2.19,4.33-1.62,8.25-3.6,4.39-2.22,5.21-3.31,6.41-2.8,1.45.6,1.14,2.51,3.2,7.33,1.29,3.01,1.97,4.54,3.31,5.1,1.58.65,3.13-.19,6.81-1.88,2.72-1.25,5.6-2.19,8.25-3.6.7-.37,1.49-.77,2.35-1.17,7.32-3.44,20.07-8.02,28.86-11.38.11-.04.22-.09.34-.13,3.72-1.42,46.89-17.9,63.73-28.89,5.2-3.4,11.54-5.11,16.56-8.72.65-.47,1.28-.96,1.88-1.51.07-.05.13-.12.23-.21.82-.7,2.89-2.42,4.36-1.79,1.07.46.92,1.8,2.12,2.35h.01c.94.43,2.26.16,3.25-.45.66-.4,1.16-.95,1.32-1.55.35-1.27-.85-2.63-.28-3.15.22-.19.57-.15.66-.14,1.9.22,6.26-2.78,6.67-3.06,5.81-3.96,9.64-2.8,10.59-5.71.56-1.72-.32-3.55-1.88-6.81-1.67-3.49-3.3-4.76-2.8-6.41.37-1.2,1.58-1.77,3.26-2.51,9.19-4.1,13.79-6.15,14.66-6.4,3.99-1.14,5.95-1.33,6.41-2.8.41-1.29-.7-2.52-2-4.58ZM4872.58,2413.57l163.4-71.29,56,124.37-164.23,73.34-55.16-126.43Z"/>
    <path class="cls-13" d="M5037.54,2338.33l-168.9,73.69,57.56,131.93,169.76-75.82-58.42-129.8ZM4927.74,2540l-55.16-126.43,163.4-71.29,56,124.37-164.23,73.34Z"/>
    <path class="cls-25" d="M5081.04,2518.92c.63.02,1.07.2,1.32.52.24.32.13.58.4.92.29.37.83.57,1.32.52.91-.1,1.52-1.06,1.43-1.72-.05-.42-.36-.47-.4-.92-.06-.7.63-1.17.52-1.32-.13-.16-1.08.4-1.83.8-1.11.59-2.08.97-2.75,1.2Z"/>
    <rect class="cls-36" x="4934.35" y="2538.8" width="19.99" height="1" transform="translate(-602.9 2188.97) rotate(-23.57)"/>
    <rect class="cls-36" x="4963.12" y="2528.21" width="11" height="1" transform="translate(-596.63 2197.79) rotate(-23.57)"/>
    <path class="cls-7" d="M4942.08,2565.37c-.31.87.58,1.25,2,4.58.81,1.91.96,2.82,2,4.58.86,1.45,1.3,2.18,2.12,2.35.9.19,1.45-.48,3.66-1.6l2.75-1.2c.48-.21,6.41-2.8,6.41-2.8,10.24-4.47,9.99-4.44,11.91-5.2,5.02-1.98,10.48-3.48,10.48-3.48,4.8-1.31,10.47-3.67,20.56-7.88.6-.25.17-.07,16.49-7.19,6.51-2.84,9.77-4.26,10.08-4.4,13.32-5.77,12.78-5.37,14.66-6.4,6.21-3.39,7.04-5.02,13.86-8.23,3.62-1.7,3.47-1.28,6.41-2.8,1.84-.95,2.99-1.67,12.03-7.43,2.99-1.9,4.78-3.05,7.33-3.2.89-.05,1.74.02,3.15-.28,1.98-.43,3.31-1.23,4.58-2,3.55-2.13,4.75-3.44,6.93-4.11.17-.05.51-.15.92-.4,1.03-.63,1.82-1.86,1.95-3.03.12-1.05-.4-1.1-2-4.58-.75-1.62-1.12-2.44-1.6-3.66-.55-1.4-.55-1.6-.8-1.83-1.57-1.45-6.61,1.61-7.73,2.28-5.43,3.26-11.71,5.03-17.01,8.51-15.6,10.23-51.62,26.72-58.87,30.04-18.33,8.39-31.71,13.27-43.06,18.79-1.22.59-5.34,2.61-10.99,4.8-6.02,2.32-9.03,3.48-11.39,3.88-3.61.6-6.31.46-6.81,1.88Z"/>
    <text class="cls-39" transform="translate(4923.77 2381.14) rotate(-23.57)"><tspan x="0" y="0" xml:space="preserve">SOP   MAN</tspan></text>
    <g>
      <path class="cls-12" d="M4947.78,2365.33s0,0,0,0c.02.01.04.03.05.04-.01-.02-.03-.03-.05-.05Z"/>
      <path class="cls-12" d="M4949.33,2363.37c-.08-.08-.16-.04-.27-.13-.1-.09-.06-.15-.16-.26-.14-.17-.38-.21-.52-.23-.1-.02-.16.02-.26-.01-.09-.03-.12-.08-.18-.13-.13-.1-.26-.11-.39-.12-.16-.02-.34.02-.71.1-.07.02-.14.03-.24.02-.11-.01-.14-.04-.21-.07-.03-.01-.06-.01-.08-.02-.21-.04-.35-.14-.35-.14-.13-.12-.15-.19-.14-.23,0-.03.03-.05.04-.1,0-.04,0-.08-.01-.12-.02-.06-.03-.11-.06-.14-.02-.02-.04-.02-.07-.05-.02-.03-.03-.05-.03-.07,0,0,0-.08-.11-.24-.09-.15-.39-.24-.64-.14-.27.11-.42.42-.37.58.05.16.11.24.11.24.01.02.02.04.03.07,0,.04,0,.05,0,.09,0,.07.05.13.06.14.03.03.06.05.12.07.06.03.07.02.1.04.08.05.11.18.09.27-.01.05-.04.1-.09.19,0,.01-.04.06-.05.08-.01.02-.01.01-.02.03-.05.1-.04.18-.12.31-.02.03-.04.06-.27.24-.38.31-.38.29-.43.35-.15.18-.07.24-.23.52-.17.29-.28.25-.31.43-.06.26.16.4.07.64-.05.13-.13.12-.15.23-.03.21.25.41.38.5.1.07.29.2.55.22.15,0,.16-.03.36-.03.08,0,.22.03.49.08.33.06.38.09.42.11.03.02.06.04.1.04.14.01.22-.15.28-.12.05.02.04.15.04.28,0,.15.02.29.07.55.03.16.08.4.2.66.17.34.3.36.36.63.03.15,0,.17.01.41,0,0,.02.3.12.66.09.33.19.38.8,1.36.17.27.23.38.26.47,0,.03.01.04.02.07.11.44.03.6.13.69.15.13.48-.04.52-.06.09-.05.29-.15.29-.29,0-.15-.15-.19-.36-.55-.07-.11-.06-.13-.15-.27-.14-.22-.16-.2-.25-.35-.13-.22-.18-.42-.22-.61-.01-.06-.02-.1-.03-.15-.02-.14-.03-.25-.04-.28-.03-.35-.05-.65-.19-.92-.02-.04-.04-.08-.06-.11-.01-.04-.03-.09-.03-.13-.04-.25.07-.27.08-.61.01-.26-.06-.28-.12-.78,0-.04,0-.08-.01-.12.03.03.05.06.08.09.33.38.29.45.49.62.24.21.34.15.48.33.04.13.06.22.07.27.08.43.68.83.77.96.03.05.07.1.07.1.03.05.12.2.22.4.03.06.05.12.07.18.07.19.13.35.16.55,0,.05,0,.04.01.12.04.4.06.6.17.68.14.1.38,0,.48-.04.1-.04.34-.15.36-.32.01-.16-.18-.36-.36-.55-.02-.02-.05-.05-.08-.1-.04-.06-.03-.08-.07-.21-.02-.07-.03-.07-.06-.15-.01-.03-.02-.06-.04-.11-.12-.41-.05-.45-.15-.81-.07-.27-.16-.65-.46-.96-.17-.19-.3-.23-.45-.47-.13-.2-.17-.37-.2-.45-.2-.69-.4-1-.65-1.21-.09-.07-.29-.22-.26-.3,0-.02.03-.03.09-.08,0,0,.05-.04.14-.15.11-.12.1-.27.18-.45.02-.05.03-.06.29-.38.3-.37.32-.4.35-.44.16-.26.18-.46.18-.54,0-.12.02-.26-.07-.35ZM4946.02,2366.01s-.06-.06-.11-.07c-.09-.03-.19,0-.24.02-.13.05-.14.12-.23.14-.1.03-.19-.02-.34-.1-.24-.13-.23-.22-.41-.28-.1-.03-.19-.03-.2-.08,0-.03.03-.06.07-.12.1-.12.13-.25.15-.32.05-.16.01-.26.05-.27.04-.01.08.12.23.23.11.09.22.12.32.15.12.04.18.04.24.04.03.04.08.08.13.13.18.17.22.16.28.25.06.1.05.19.06.26ZM4948.5,2364.23c-.04.12,0,.11-.05.36-.05.27-.11.33-.14.35-.02.02-.07.04-.17.08-.17.07-.2.06-.24.11-.06.06-.09.16-.09.17,0,.02,0,.03-.01.04.02.01.04.02.05.05-.02-.01-.04-.03-.05-.04-.01,0-.02-.02-.04-.03,0,0,0,0,0,0-.03-.01-.05-.03-.08-.05-.03-.02-.05-.05-.07-.08-.04-.04-.06-.09-.07-.14,0,0,0,0,0,0,0-.06.02-.08.03-.22,0-.12-.01-.12,0-.21,0-.02,0-.07.02-.12.06-.1.11-.16.16-.24.09-.16.08-.35.07-.41,0-.13-.05-.22-.02-.24.02-.01.05.02.12.07.11.09.24.12.35.14.12.02.16,0,.27.05.06.02.1.04.12.07.03.07-.06.14-.12.3Z"/>
      <path class="cls-12" d="M4947.59,2365.18s-.06-.09-.07-.14c.02.06.04.1.07.14Z"/>
      <path class="cls-12" d="M4947.84,2365.38s-.04-.03-.05-.04c-.01,0-.02-.02-.04-.03.01,0,.03.01.04.02.02.01.04.02.05.05Z"/>
      <path class="cls-12" d="M4947.74,2365.31s-.05-.03-.08-.05c-.03-.02-.05-.05-.07-.08.04.05.1.09.16.13Z"/>
    </g>
    <path class="cls-37" d="M5088.81,2502.99c-.33.4-.41.81-.52,1.32-.13.64-.53,2.57.68,4.06,1.06,1.3,3.16,2.04,4.86,1.15,1.18-.62,1.86-1.86,1.95-3.03.16-1.99-1.36-3.62-2.91-4.18-1.28-.47-3.17-.43-4.06.68Z"/>
  </g>
  <path class="cls-29" d="M5235.95,2820.31c-17.14,13.78-125.97,101.29-250.79,54.06-126.73-47.95-149.02-189.02-151.41-205.98-10.95-77.81,13.16-170.82,49.59-176.93,40.39-6.77,83.38,95.39,107.24,85.36,5.91-2.48,7.44-10.49,7.75-21.89.21-7.9-.18-17.44-.12-27.9.15-25.78,3.01-57.16,24.17-83.54,3.41-4.25,23.83-29.72,51.56-31.97,32.58-2.66,55.38,42.58,74.44,80.3,5.19,10.26,10.09,19.96,14.84,27.99,8.05,13.61,15.66,22.42,23.41,21.01,19.02-3.47,10.67-60.37,38.8-72.94,29.21-13.05,87.42,26.35,111.03,75.72,41,85.73-18.03,210.39-100.53,276.72Z"/>
  <path class="cls-1" d="M5062.65,2421.85c-9.35,2.09-15.3,7.94-24.36,16.84-1.53,1.5-35.55,35.36-27.97,49.33,10.76,19.82,107.25,3.18,111.59-24.97,2.83-18.33-32.57-47.19-59.26-41.21Z"/>
  <path class="cls-1" d="M4877.57,2499.19c-6.8,2.38-10.32,8.21-16.24,18.35-2.75,4.7-25.43,43.53-13.84,56.85,14.09,16.18,80.97-2.69,83.92-31.28,2.27-22.06-33.43-51.05-53.84-43.92Z"/>
  <path class="cls-1" d="M5226.6,2474.45c-3.78,2.44-5.81,6.03-9.86,13.19-6.02,10.65-13.64,24.12-9.56,30.11,9.05,13.29,78.17-6.54,77.96-23.23-.06-4.67-5.53-8.01-14.04-13.19-4.26-2.59-28.93-16.95-44.5-6.88Z"/>
  <path class="cls-20" d="M4998.33,2554.93c.21-7.9-.18-17.44-.12-27.9,22.74-1.26,50.04-4.53,80.28-11.89,27.13-6.61,50.55-15.03,69.89-23.33,2.38,4.84,4.94,9.77,7.58,14.83,2.47,4.71,4.88,9.14,7.26,13.16-20.03,9.16-45.68,18.84-76.31,25.72-34.39,7.73-64.81,9.63-88.59,9.41Z"/>
  <g>
    <path class="cls-22" d="M6401.34,2254.81c-.38.64-1.05,1.15-1.84,1.56h0c-1.94,1.02-4.59,1.43-5.3,1.55-.83.13-1.42.16-1.79.54-.04.04-.08.08-.11.13-.51.71,0,1.66.36,2.7.25.74.43,1.54.1,2.33-.51,1.23-1.58.95-2.27,2.22h0s-.03.05-.04.08c-.88,1.75.61,2.87-.01,4.62-.61,1.73-2.41,1.59-4,2.83-.36.28-.72.64-1.04,1.1-1.3,1.86-.28,2.82-1.64,5.37-.03.05-.13.23-.3.5h0c-.27.42-.71,1.03-1.31,1.67-3.22.29-9.28,1-16.61.17-11.43-1.29-21.63-5.82-21.74-5.49-.06.23,4.76,1.57,4.68,3.21-.06,1.36-3.46,1.46-5.79,3.45-3.91,3.35-2.95,10.5-2.55,13.52,1.67,12.55,10.23,26.43,15.82,32.97h0c.82,3.37,1.51,7.23,1.68,11.07,0,0,.32,5-1.92,6.45-.5.32-1.12.72-1.91.68-.04,0-.06,0-.16-.03-.21-.05-.77-.21-2.55-.66-8.41-2.12-23.51-7.67-23.51-7.67,0,0-17.25-6.34-36.69-9.27-4.72-.71-9.34-2-14.07-2.69,0,0-2.03-.29-5.44-1.37-3.17-1.01-4.01-1.65-4.62-2.32-.28-.31-1.7-1.98-1.55-4.15.05-.79.3-1.37.41-1.63,2.47-5.72,3.7-8.58,4.51-9.85,7-10.91,16.16-19.34,16.16-19.34,1.65-1.52,3.13-2.8,4.49-3.94,7.02-5.84,11-7.68,18.74-15.92,1.93-2.05,5.96-6.5,7.38-13.17.44-2.07,1.26-5.94-.29-8.77-.19-.36-.42-.7-.7-1.02-2.02-2.34-4.43-.85-7.2-3.55-.22-.21-4.01-4.02-3.92-9.66.05-3.45,1.52-5.52,2.53-7.74,4.11-9.01-2.6-13.19-.15-23.46,2.67-11.17,13.56-18.59,16.7-19.2.25-.05,1.23-.2,2.25-.88,1.97-1.3,2.56-3.53,2.8-4.21,1.29-3.73,7.31-5.73,11.64-7.18,0,0,13.85-4.61,27.26,1.97,1.74.85,3.06,1.5,4.48,2.87,2.5,2.39,2.39,4.19,4.27,4.84,1.92.66,2.65-.98,5.71-.87,2.86.1,4.98,1.63,6.05,2.39,1,.72,3.4,2.45,4.41,5.45.63,1.86.22,2.73,1.21,4.35.97,1.58,1.67,1.27,2.78,2.73,2.35,3.06,1.56,7.45,1.48,7.89-.32,1.66-.78,1.81-.82,3.26-.06,2.11.87,3.6,1.42,4.69,1.62,3.23,1.65,6.39,1.68,9.39.02,1.89,0,5.91-2,10.19-1.24,2.65-2,2.73-2.32,4.62-.22,1.3-.05,2.36,2.22,8.37,1.2,3.17,1.84,4.69,2.5,7.28.69,2.72,1.03,4.09.46,5.03Z"/>
    <path class="cls-17" d="M6379.18,2197.16c-.25-.42-3.21,1.39-7.89,2.63-3.52.94-6.33,1.11-6.94,1.14-7.56.4-10.97-2.54-12.85-.64-1.06,1.07-.21,2.23-.83,6.73,0,0-.37,2.71-1.72,6.79-2.89,8.77-9.5,14.24-8.94,14.8.4.4,3.96-2.26,6.81-5.22,3.38-3.51,5.93-6.16,6.62-10.18.58-3.35-.38-6.29,1.24-7.2.69-.39,1.45-.19,2.04-.06,0,0,3.46.75,8.97-.05,3.28-.47,5.54-2.17,10.08-5.55.53-.39,3.68-2.74,3.41-3.19Z"/>
    <path class="cls-17" d="M6394.74,2227.12c-.96-1.04-4.68-4.84-10.53-5.26-6.83-.5-12.32,3.92-12.11,4.46.13.34,2.63-.75,6.39-1.28,6.25-.87,11.85.41,16.24,2.08Z"/>
    <path class="cls-17" d="M6331.59,2249.33c-1.66,5.44-3.56,11.64-9.7,17.79-3.6,3.61-5.99,4.52-16.07,9.82-6.68,3.52-11.54,6.22-15.05,8.18,7.02-5.84,11-7.68,18.74-15.92,1.93-2.05,5.96-6.5,7.38-13.17.44-2.07,1.26-5.94-.29-8.77.49.31,1.11.68,1.94,1.1,2.32,1.16,3.48,1.74,4.75,1.78,4.51.13,7.5-6.51,8.72-5.89.97.49-.36,4.9-.42,5.1Z"/>
    <path class="cls-17" d="M6316.77,2278.26c.31-.75,4.02-.14,6.93,1.17,1.29.58,4.27,1.92,6.24,5.05,2.78,4.42,2.14,10.18,1.13,10.41-.91.2-1.36-4.31-5.48-9.19-4.3-5.09-9.19-6.55-8.82-7.43Z"/>
    <path class="cls-17" d="M6286.23,2309.87c0-.5,5.23-1.7,10.95-.99,10.44,1.29,17.02,8.25,19.01,10.59,2.73,3.19,4.68,6.81,4.27,7.15-.51.41-3.87-4.57-10.72-9.07-6.91-4.54-13.52-6.06-14.87-6.36-5.04-1.11-8.63-.9-8.63-1.31Z"/>
    <path class="cls-17" d="M6382.12,2282.02c-.36.38-.78.76-1.26,1.12-.31.23-.65.45-1.01.65-2.01,1.09-3.88.97-6.19.73-.64-.07-1.31-.14-2.04-.21-1.18-.1-9.02-.73-16.32,1.66-3.15,1.03-5.93,1.98-7.83,4.67-1.68,2.39-2.06,5.25-1.72,9.11.61,7.01,2.93,10.16,6.89,19.67,0,0,1.85,4.44,3.3,10.43-5.59-6.53-14.15-20.41-15.82-32.97-.4-3.03-1.36-10.17,2.55-13.52,2.33-2,5.72-2.09,5.79-3.45.08-1.63-4.74-2.98-4.68-3.21.12-.33,10.32,4.2,21.74,5.49,7.33.83,13.39.13,16.61-.17Z"/>
    <path class="cls-17" d="M6392.75,2263.62c-.51,1.23-1.58.95-2.27,2.22h0c-.95,0-2.01-.06-3.17-.13-3.81-.24-7.73-1.15-7.68-1.65.05-.49,3.74.38,8.64-1,1.76-.5,3.21-1.15,4.39-1.78.25.74.43,1.54.1,2.33Z"/>
    <path class="cls-17" d="M6399.49,2256.37c-1.94,1.02-4.59,1.43-5.3,1.54-.83.13-1.42.16-1.79.54-.4.02-.82.06-1.27.13-.93.13-1.58.31-2.65.2-1.67-.17-5.21-1.12-5.7-3.75-.53-2.81,2.75-5.54,3.34-5.23.42.23-.83,1.83-.28,3.4.99,2.85,7.34,3.96,13.65,3.17Z"/>
    <path class="cls-17" d="M6383.74,2279.85c-.03.05-.13.23-.3.5.06-2.03,0-4.61-1.72-6.22-.56-.52-1.25-.89-1.15-1.16.18-.49,2.59.42,5.86.41-.36.28-.72.64-1.04,1.1-1.3,1.86-.28,2.82-1.64,5.37Z"/>
  </g>
  <g>
    <path class="cls-22" d="M6073.78,2435.29c.48.81,1.34,1.47,2.35,1.99h0c2.48,1.3,5.84,1.83,6.75,1.97,1.06.17,1.81.21,2.29.69.05.05.1.1.14.17.65.91,0,2.11-.46,3.44-.32.95-.54,1.96-.13,2.97.64,1.56,2.01,1.21,2.9,2.83h0s.04.07.05.1c1.13,2.22-.77,3.66.01,5.89.78,2.21,3.08,2.03,5.1,3.6.46.36.91.81,1.32,1.4,1.65,2.38.35,3.6,2.1,6.84.03.06.16.3.39.64h0c.34.53.9,1.32,1.67,2.13,4.1.38,11.82,1.27,21.16.21,14.56-1.65,27.56-7.42,27.7-7,.07.29-6.07,2-5.97,4.09.08,1.74,4.41,1.86,7.37,4.4,4.98,4.27,3.76,13.37,3.25,17.23-2.13,15.99-13.04,33.68-20.16,42h0c-1.04,4.3-1.93,9.22-2.14,14.1,0,0-.41,6.37,2.45,8.22.64.41,1.42.92,2.43.86.05,0,.07,0,.21-.04.27-.07.99-.26,3.26-.84,10.71-2.71,29.95-9.78,29.95-9.78,0,0,21.98-8.08,46.75-11.81,6.02-.91,11.9-2.55,17.92-3.42,0,0,2.58-.37,6.93-1.75,4.04-1.28,5.11-2.1,5.88-2.96.35-.4,2.17-2.52,1.98-5.29-.07-1-.38-1.74-.52-2.08-3.14-7.29-4.71-10.93-5.75-12.55-8.92-13.9-20.59-24.64-20.59-24.64-2.1-1.93-3.99-3.57-5.73-5.02-8.95-7.44-14.01-9.79-23.88-20.29-2.46-2.62-7.59-8.28-9.4-16.78-.56-2.63-1.6-7.56.37-11.18.25-.46.54-.89.9-1.3,2.57-2.98,5.64-1.09,9.17-4.53.28-.27,5.1-5.12,4.99-12.31-.07-4.4-1.94-7.03-3.23-9.87-5.24-11.48,3.31-16.8.19-29.89-3.4-14.23-17.27-23.68-21.28-24.46-.32-.06-1.57-.26-2.86-1.12-2.51-1.66-3.27-4.5-3.57-5.36-1.64-4.75-9.31-7.31-14.84-9.15,0,0-17.65-5.88-34.73,2.51-2.22,1.09-3.89,1.91-5.71,3.65-3.18,3.05-3.04,5.34-5.44,6.16-2.44.84-3.38-1.24-7.28-1.11-3.65.13-6.35,2.07-7.7,3.05-1.27.92-4.33,3.13-5.61,6.94-.8,2.37-.27,3.48-1.55,5.55-1.23,2.01-2.12,1.62-3.54,3.47-2.99,3.9-1.99,9.49-1.88,10.05.41,2.12,1,2.31,1.05,4.16.08,2.69-1.1,4.59-1.8,5.98-2.07,4.12-2.1,8.14-2.14,11.96-.02,2.41-.01,7.53,2.54,12.99,1.58,3.38,2.55,3.48,2.96,5.88.28,1.66.06,3.01-2.83,10.66-1.53,4.04-2.34,5.97-3.18,9.28-.88,3.46-1.31,5.22-.59,6.41Z"/>
    <path class="cls-17" d="M6102.01,2361.85c.32-.53,4.09,1.77,10.06,3.35,4.49,1.19,8.06,1.41,8.84,1.45,9.64.51,13.97-3.24,16.37-.82,1.35,1.36.27,2.84,1.06,8.57,0,0,.48,3.46,2.19,8.66,3.68,11.18,12.1,18.15,11.39,18.86-.51.51-5.05-2.88-8.68-6.65-4.31-4.48-7.56-7.85-8.44-12.97-.73-4.27.48-8.01-1.58-9.18-.88-.5-1.84-.24-2.6-.08,0,0-4.41.96-11.44-.06-4.18-.6-7.06-2.76-12.84-7.07-.67-.5-4.68-3.5-4.34-4.06Z"/>
    <path class="cls-17" d="M6082.18,2400.02c1.22-1.32,5.96-6.16,13.41-6.7,8.7-.63,15.7,4.99,15.43,5.68-.17.44-3.35-.96-8.15-1.63-7.96-1.11-15.09.52-20.7,2.65Z"/>
    <path class="cls-17" d="M6162.65,2428.32c2.12,6.93,4.53,14.83,12.36,22.67,4.59,4.6,7.63,5.75,20.48,12.51,8.51,4.48,14.71,7.93,19.18,10.43-8.95-7.44-14.01-9.79-23.88-20.29-2.46-2.62-7.59-8.28-9.4-16.78-.56-2.63-1.6-7.56.37-11.18-.62.4-1.42.87-2.48,1.4-2.96,1.48-4.43,2.22-6.06,2.27-5.75.17-9.55-8.29-11.11-7.51-1.23.62.46,6.25.54,6.5Z"/>
    <path class="cls-17" d="M6181.53,2465.18c-.4-.96-5.12-.17-8.83,1.49-1.65.74-5.45,2.45-7.95,6.43-3.54,5.63-2.72,12.97-1.44,13.26,1.16.26,1.73-5.49,6.99-11.71,5.48-6.49,11.71-8.34,11.24-9.47Z"/>
    <path class="cls-17" d="M6220.44,2505.45c0-.64-6.66-2.17-13.95-1.27-13.3,1.64-21.68,10.52-24.22,13.49-3.48,4.06-5.97,8.68-5.44,9.11.65.52,4.93-5.82,13.66-11.56,8.81-5.79,17.23-7.72,18.95-8.1,6.42-1.41,10.99-1.15,11-1.67Z"/>
    <path class="cls-17" d="M6098.27,2469.97c.46.48.99.97,1.61,1.43.4.3.82.58,1.28.83,2.56,1.39,4.94,1.24,7.89.93.81-.08,1.67-.18,2.59-.26,1.5-.13,11.49-.93,20.8,2.11,4.02,1.31,7.56,2.53,9.98,5.95,2.15,3.04,2.62,6.7,2.19,11.6-.77,8.93-3.74,12.95-8.77,25.06,0,0-2.35,5.66-4.2,13.29,7.12-8.32,18.03-26.01,20.16-42,.51-3.86,1.73-12.96-3.25-17.23-2.96-2.54-7.29-2.66-7.37-4.4-.1-2.08,6.04-3.8,5.97-4.09-.15-.42-13.15,5.35-27.7,7-9.34,1.06-17.06.16-21.16-.21Z"/>
    <path class="cls-17" d="M6084.72,2446.53c.64,1.56,2.01,1.21,2.9,2.83h0c1.21,0,2.56-.07,4.04-.17,4.85-.3,9.85-1.46,9.78-2.1-.06-.63-4.77.49-11.01-1.27-2.25-.63-4.08-1.47-5.59-2.26-.32.95-.54,1.96-.13,2.97Z"/>
    <path class="cls-17" d="M6076.13,2437.29c2.48,1.3,5.84,1.82,6.75,1.97,1.06.17,1.81.21,2.29.69.51.03,1.04.08,1.61.16,1.18.17,2.01.39,3.38.25,2.13-.22,6.63-1.42,7.27-4.78.67-3.57-3.5-7.06-4.26-6.66-.54.29,1.06,2.33.36,4.33-1.27,3.63-9.35,5.05-17.39,4.04Z"/>
    <path class="cls-17" d="M6096.21,2467.21c.03.06.16.3.39.64-.08-2.58,0-5.88,2.2-7.92.72-.67,1.6-1.14,1.47-1.48-.23-.62-3.3.53-7.47.52.46.36.91.81,1.32,1.4,1.65,2.38.35,3.6,2.1,6.84Z"/>
  </g>
  <g>
    <path class="cls-22" d="M6446.76,2637.94c-.56.94-1.56,1.7-2.72,2.31h0c-2.87,1.51-6.77,2.12-7.82,2.28-1.23.19-2.1.24-2.65.8-.06.06-.11.12-.16.19-.75,1.05.01,2.44.54,3.98.37,1.1.63,2.27.15,3.44-.75,1.81-2.33,1.4-3.36,3.28h0s-.04.08-.06.12c-1.3,2.58.9,4.24-.02,6.82-.9,2.56-3.56,2.35-5.91,4.17-.54.42-1.06.94-1.53,1.63-1.91,2.75-.41,4.17-2.43,7.92-.04.08-.19.34-.45.74h0c-.39.61-1.04,1.52-1.94,2.46-4.75.43-13.69,1.47-24.51.25-16.86-1.91-31.92-8.6-32.09-8.11-.09.34,7.03,2.32,6.91,4.73-.09,2.01-5.11,2.15-8.54,5.1-5.76,4.95-4.36,15.49-3.76,19.96,2.47,18.52,15.1,39.01,23.35,48.65h0c1.21,4.98,2.23,10.68,2.48,16.33,0,0,.47,7.38-2.83,9.52-.74.48-1.65,1.07-2.81,1-.06,0-.08,0-.24-.04-.31-.08-1.14-.31-3.77-.97-12.41-3.13-34.69-11.32-34.69-11.32,0,0-25.45-9.35-54.15-13.68-6.97-1.05-13.79-2.96-20.76-3.96,0,0-2.99-.43-8.02-2.03-4.68-1.48-5.92-2.43-6.81-3.43-.41-.46-2.51-2.92-2.29-6.13.08-1.16.44-2.02.61-2.41,3.64-8.44,5.46-12.66,6.66-14.53,10.33-16.1,23.85-28.54,23.85-28.54,2.43-2.24,4.62-4.14,6.63-5.81,10.36-8.61,16.23-11.33,27.65-23.5,2.85-3.03,8.79-9.59,10.88-19.44.65-3.05,1.86-8.76-.43-12.95-.28-.53-.63-1.03-1.04-1.5-2.98-3.45-6.53-1.26-10.62-5.24-.32-.31-5.91-5.94-5.78-14.26.08-5.1,2.24-8.15,3.74-11.43,6.07-13.29-3.84-19.46-.22-34.61,3.94-16.48,20.01-27.43,24.65-28.33.37-.07,1.81-.3,3.31-1.3,2.91-1.92,3.78-5.21,4.13-6.21,1.9-5.5,10.79-8.46,17.18-10.59,0,0,20.44-6.81,40.23,2.91,2.57,1.26,4.51,2.21,6.61,4.23,3.69,3.53,3.52,6.18,6.3,7.14,2.83.97,3.91-1.44,8.43-1.28,4.23.15,7.35,2.4,8.92,3.53,1.48,1.06,5.02,3.62,6.5,8.04.92,2.75.32,4.03,1.79,6.43,1.43,2.33,2.46,1.88,4.1,4.02,3.46,4.52,2.3,10.99,2.18,11.64-.47,2.45-1.15,2.67-1.22,4.81-.09,3.12,1.28,5.31,2.09,6.93,2.4,4.77,2.44,9.43,2.47,13.85.03,2.79.01,8.72-2.95,15.04-1.83,3.91-2.96,4.03-3.43,6.81-.33,1.92-.07,3.49,3.28,12.35,1.77,4.68,2.71,6.92,3.69,10.74,1.02,4.01,1.52,6.04.68,7.43Z"/>
    <path class="cls-17" d="M6414.06,2552.88c-.37-.62-4.73,2.05-11.65,3.88-5.2,1.38-9.34,1.63-10.24,1.68-11.16.6-16.18-3.75-18.96-.95-1.56,1.57-.31,3.29-1.23,9.93,0,0-.55,4.01-2.53,10.03-4.26,12.95-14.02,21.02-13.2,21.84.59.59,5.85-3.34,10.05-7.7,4.99-5.19,8.75-9.09,9.77-15.03.85-4.95-.55-9.28,1.83-10.63,1.01-.58,2.13-.28,3.01-.09,0,0,5.1,1.11,13.24-.07,4.84-.7,8.18-3.2,14.87-8.19.78-.58,5.42-4.05,5.03-4.7Z"/>
    <path class="cls-17" d="M6437.03,2597.08c-1.41-1.53-6.9-7.14-15.53-7.76-10.08-.73-18.19,5.78-17.88,6.58.2.51,3.87-1.11,9.44-1.88,9.22-1.29,17.48.6,23.97,3.07Z"/>
    <path class="cls-17" d="M6343.84,2629.86c-2.45,8.02-5.25,17.17-14.31,26.25-5.32,5.33-8.84,6.66-23.71,14.49-9.86,5.19-17.03,9.18-22.21,12.08,10.36-8.61,16.23-11.33,27.65-23.5,2.85-3.03,8.79-9.59,10.88-19.44.65-3.05,1.86-8.76-.43-12.95.72.46,1.64,1,2.87,1.62,3.42,1.71,5.14,2.57,7.02,2.63,6.66.19,11.06-9.6,12.86-8.7,1.43.72-.53,7.23-.62,7.52Z"/>
    <path class="cls-17" d="M6321.96,2672.55c.46-1.11,5.93-.2,10.23,1.73,1.91.86,6.31,2.84,9.21,7.45,4.11,6.52,3.15,15.02,1.67,15.35-1.35.3-2-6.35-8.09-13.56-6.35-7.51-13.56-9.66-13.02-10.97Z"/>
    <path class="cls-17" d="M6276.9,2719.2c0-.74,7.72-2.51,16.16-1.47,15.4,1.9,25.11,12.18,28.05,15.62,4.03,4.7,6.91,10.05,6.3,10.55-.75.61-5.71-6.74-15.82-13.38-10.2-6.7-19.95-8.95-21.95-9.38-7.43-1.63-12.73-1.33-12.74-1.94Z"/>
    <path class="cls-17" d="M6418.4,2678.1c-.53.56-1.15,1.13-1.86,1.65-.46.35-.95.67-1.49.96-2.97,1.61-5.72,1.44-9.14,1.08-.94-.1-1.94-.21-3-.31-1.74-.15-13.3-1.08-24.09,2.45-4.65,1.52-8.75,2.93-11.56,6.89-2.48,3.52-3.03,7.75-2.54,13.44.89,10.35,4.33,15,10.16,29.02,0,0,2.73,6.56,4.87,15.39-8.24-9.64-20.88-30.12-23.35-48.65-.6-4.47-2-15.01,3.76-19.96,3.43-2.95,8.45-3.08,8.54-5.1.11-2.41-7-4.4-6.91-4.73.17-.49,15.22,6.2,32.09,8.11,10.82,1.23,19.76.19,24.51-.25Z"/>
    <path class="cls-17" d="M6434.08,2650.95c-.75,1.81-2.33,1.4-3.36,3.28h0c-1.4,0-2.96-.09-4.68-.19-5.62-.35-11.4-1.69-11.33-2.44.07-.72,5.52.56,12.75-1.47,2.6-.73,4.73-1.7,6.47-2.62.37,1.1.63,2.27.15,3.44Z"/>
    <path class="cls-17" d="M6444.03,2640.25c-2.87,1.5-6.77,2.11-7.82,2.28-1.23.19-2.1.24-2.65.8-.59.03-1.21.1-1.87.19-1.37.2-2.32.45-3.91.29-2.47-.25-7.68-1.65-8.41-5.54-.78-4.14,4.06-8.18,4.94-7.71.62.33-1.22,2.69-.41,5.02,1.47,4.21,10.83,5.85,20.14,4.67Z"/>
    <path class="cls-17" d="M6420.78,2674.9c-.04.08-.19.34-.45.74.09-2.99,0-6.81-2.54-9.17-.83-.77-1.85-1.32-1.7-1.71.27-.72,3.83.62,8.65.6-.54.42-1.06.94-1.53,1.63-1.91,2.75-.41,4.17-2.43,7.92Z"/>
  </g>
  <g>
    <path class="cls-29" d="M6348.81,3060.08c126.53-48.48,148.22-189.65,150.53-206.63,10.61-77.85-13.89-170.76-50.34-176.71-40.42-6.6-82.97,95.74-106.88,85.81-20.12-8.35,9.99-80.85-32.36-133.2-3.43-4.24-23.96-29.61-51.7-31.76-56.48-4.36-82.98,134.95-112.15,129.77-19.03-3.38-10.93-60.32-39.11-72.77-29.27-12.93-87.31,26.72-110.71,76.19-40.64,85.9,18.92,210.31,101.7,276.3,17.2,13.71,126.4,100.75,251.02,53Z"/>
    <path class="cls-1" d="M6264.45,2607.24c9.5,1.27,15.94,6.57,25.75,14.64,1.66,1.36,38.52,32.11,32.19,46.69-8.98,20.69-106.56,12.58-113.35-15.08-4.43-18.02,28.3-49.86,55.41-46.25Z"/>
    <path class="cls-1" d="M6453.09,2692.22c6.8,2.38,10.32,8.21,16.24,18.35,2.75,4.7,25.43,43.53,13.84,56.85-14.09,16.18-80.97-2.69-83.92-31.28-2.27-22.06,33.43-51.05,53.84-43.92Z"/>
    <path class="cls-1" d="M6103.76,2666.29c3.78,2.44,5.81,6.03,9.86,13.19,6.02,10.65,13.64,24.12,9.56,30.11-9.05,13.29-78.17-6.54-77.96-23.23.06-4.67,5.53-8.01,14.04-13.19,4.26-2.59,28.93-16.95,44.5-6.88Z"/>
  </g>
  <ellipse class="cls-18" cx="5080.91" cy="2528.82" rx="16.54" ry="29.03" transform="translate(-402.73 1065.86) rotate(-11.52)"/>
</svg>